SplineFontDB: 3.2
FontName: linja-nanpaRegular
FullName: linja-nanpa Regular
FamilyName: linja-nanpa
Weight: Regular
Copyright: ""
Version: 2.1
ItalicAngle: 0
UnderlinePosition: 0
UnderlineWidth: 0
Ascent: 950
Descent: 50
InvalidEm: 0
sfntRevision: 0x00010000
LayerCount: 2
Layer: 0 0 "Back" 1
Layer: 1 0 "Fore" 0
XUID: [1021 511 -2811647 6872]
StyleMap: 0x0040
FSType: 0
OS2Version: 3
OS2_WeightWidthSlopeOnly: 0
OS2_UseTypoMetrics: 0
CreationTime: 1645217081
ModificationTime: 1645239643
PfmFamily: 81
TTFWeight: 500
TTFWidth: 5
LineGap: 0
VLineGap: 0
Panose: 0 0 0 0 0 0 0 0 0 0
OS2TypoAscent: 950
OS2TypoAOffset: 0
OS2TypoDescent: -50
OS2TypoDOffset: 0
OS2TypoLinegap: 0
OS2WinAscent: 990
OS2WinAOffset: 0
OS2WinDescent: 90
OS2WinDOffset: 0
HheadAscent: 950
HheadAOffset: 0
HheadDescent: -50
HheadDOffset: 0
OS2SubXSize: 650
OS2SubYSize: 699
OS2SubXOff: 0
OS2SubYOff: 140
OS2SupXSize: 650
OS2SupYSize: 699
OS2SupXOff: 0
OS2SupYOff: 479
OS2StrikeYSize: 49
OS2StrikeYPos: 258
OS2CapHeight: 990
OS2XHeight: 475
OS2Vendor: 'XXXX'
OS2CodePages: 00000001.00000000
OS2UnicodeRanges: 80000001.00000000.00000000.00000000
DEI: 91125
LangName: 1033 "" "" "Regular" "+ACIAIgAA:linja-nanpa Regular" "" "2.1" "" "+ACIAIgAA" "+ACIAIgAA" "+ACIAIgAA" "+ACIAIgAA" "+ACIAIgAA" "+ACIAIgAA" "+ACIAIgAA" "+ACIAIgAA" "" "linja-nanpa" "Regular"
Encoding: Custom
Compacted: 1
UnicodeInterp: none
NameList: AGL For New Fonts
DisplaySize: -72
AntiAlias: 1
FitToEm: 0
WinInfo: 0 26 10
BeginChars: 406 150

StartChar: .notdef
Encoding: 256 0 0
Width: 586
Flags: HW
LayerCount: 2
Fore
SplineSet
0 950 m 1
 0 950 586 950 586 950 c 1
 586 950 586 0 586 0 c 1
 586 0 0 0 0 0 c 1
 0 950 l 1
68 68 m 1
 68 68 518 68 518 68 c 1
 518 68 518 882 518 882 c 1
 518 882 68 882 68 882 c 1
 68 68 l 1
EndSplineSet
Validated: 1
EndChar

StartChar: uniF1900
Encoding: 257 989440 1
Width: 1000
Flags: HW
LayerCount: 2
Fore
SplineSet
550 850 m 2
 550 850 550 500 550 500 c 2
 550 472 528 450 500 450 c 0
 472 450 450 472 450 500 c 2
 450 500 450 850 450 850 c 2
 450 878 472 900 500 900 c 0
 528 900 550 878 550 850 c 2
500 0 m 0
 390 0 300 90 300 200 c 0
 300 310 390 400 500 400 c 0
 581 400 650 352 682 283 c 0
 683 282 683 281 684 280 c 2
 684 280 794 74 794 74 c 2
 798.040720168 66.2293842914 799.955977446 57.9757088349 799.955977446 49.8996198436 c 0
 799.955977446 31.9929254424 790.54020892 14.9592798315 774 6 c 0
 766.229384291 1.95927983154 757.975708835 0.0440225539424 749.899619844 0.0440225539424 c 0
 731.992925442 0.0440225539424 714.959279832 9.45979108023 706 26 c 2
 706 26 670 94 670 94 c 1
 634 38 572 0 500 0 c 0
500 100 m 0
 555 100 600 145 600 200 c 0
 600 255 555 300 500 300 c 0
 445 300 400 255 400 200 c 0
 400 145 445 100 500 100 c 0
EndSplineSet
Validated: 1
EndChar

StartChar: uniF1901
Encoding: 258 989441 2
Width: 1000
Flags: HW
LayerCount: 2
Fore
SplineSet
400 825 m 0
 400 784 366 750 325 750 c 0
 284 750 250 784 250 825 c 0
 250 866 284 900 325 900 c 0
 366 900 400 866 400 825 c 0
500 700 m 0
 565 700 635 693 692 669 c 0
 721 656 748 638 768 611 c 0
 782 593 791 573 796 550 c 1
 796 550 875 550 875 550 c 2
 903 550 925 528 925 500 c 0
 925 472 903 450 875 450 c 2
 875 450 800 450 800 450 c 1
 800 450 800 400 800 400 c 1
 800 400 900 400 900 400 c 2
 928 400 950 378 950 350 c 0
 950 322 928 300 900 300 c 2
 900 300 800 300 800 300 c 1
 800 300 800 250 800 250 c 1
 800 250 875 250 875 250 c 2
 903 250 925 228 925 200 c 0
 925 172 903 150 875 150 c 2
 875 150 796 150 796 150 c 1
 791 127 782 107 768 89 c 0
 748 62 721 44 692 31 c 0
 635 7 565 0 500 0 c 0
 435 0 365 7 308 31 c 0
 279 44 252 62 232 89 c 0
 218 107 209 127 204 150 c 1
 204 150 125 150 125 150 c 2
 97 150 75 172 75 200 c 0
 75 228 97 250 125 250 c 2
 125 250 200 250 200 250 c 1
 200 250 200 300 200 300 c 1
 200 300 100 300 100 300 c 2
 72 300 50 322 50 350 c 0
 50 378 72 400 100 400 c 2
 100 400 200 400 200 400 c 1
 200 400 200 450 200 450 c 1
 200 450 125 450 125 450 c 2
 97 450 75 472 75 500 c 0
 75 528 97 550 125 550 c 2
 125 550 204 550 204 550 c 1
 209 573 218 593 232 611 c 0
 252 638 279 656 308 669 c 0
 365 693 435 700 500 700 c 0
689 550 m 1
 689 550 689 551 689 551 c 1
 682 560 670 569 652 577 c 0
 615 593 560 600 500 600 c 0
 489 600 479 600 469 599 c 0
 421 597 379 590 348 577 c 0
 330 569 318 560 311 551 c 0
 311 550 311 550 311 550 c 1
 689 550 l 1
300 450 m 1
 300 450 300 400 300 400 c 1
 300 400 700 400 700 400 c 1
 700 400 700 450 700 450 c 1
 300 450 l 1
300 250 m 1
 300 250 700 250 700 250 c 1
 700 250 700 300 700 300 c 1
 495 300 l 1
 300 300 l 1
 300 250 l 1
311 150 m 1
 311 150 311 150 311 149 c 0
 311.322676086 148.585130746 311.655976648 148.170261493 311.999999634 147.755490189 c 0
 319.11906738 139.172386388 330.829738507 130.63122733 348 123 c 0
 385 107 440 100 500 100 c 0
 560 100 615 107 652 123 c 0
 670 131 682 140 689 149 c 0
 689 150 689 150 689 150 c 1
 351 150 l 1
 311 150 l 1
675 750 m 0
 634 750 600 784 600 825 c 0
 600 866 634 900 675 900 c 0
 716 900 750 866 750 825 c 0
 750 784 716 750 675 750 c 0
EndSplineSet
Validated: 1
EndChar

StartChar: uniF1902
Encoding: 259 989442 3
Width: 1000
Flags: HW
LayerCount: 2
Fore
SplineSet
135 885 m 2
 135 885 500 521 500 521 c 1
 500 521 865 885 865 885 c 2
 874 895 887 900 900 900 c 0
 913 900 926 895 935 885 c 0
 945 876 950 863 950 850 c 0
 950 837 945 824 935 815 c 2
 935 815 571 450 571 450 c 1
 571 450 935 85 935 85 c 2
 945 76 950 63 950 50 c 0
 950 37 945 24 935 15 c 0
 926 5 913 0 900 0 c 0
 887 0 874 5 865 15 c 2
 865 15 500 379 500 379 c 1
 500 379 135 15 135 15 c 2
 126 5 113 0 100 0 c 0
 87 0 74 5 65 15 c 0
 55 24 50 37 50 50 c 0
 50 63 55 76 65 85 c 2
 65 85 429 450 429 450 c 1
 429 450 65 815 65 815 c 2
 55 824.5 50 837.25 50 850 c 0
 50 862.75 55 875.5 65 885 c 0
 74.5 895 87.25 900 100 900 c 0
 112.75 900 125.5 895 135 885 c 2
EndSplineSet
Validated: 1
EndChar

StartChar: uniF1903
Encoding: 260 989443 4
Width: 1000
Flags: HW
LayerCount: 2
Fore
SplineSet
250 900 m 0
 350 900 429 882 490 849 c 0
 552 816 594 770 622 720 c 0
 663 646 672 562 674 500 c 1
 674 500 779 500 779 500 c 1
 779 500 715 565 715 565 c 2
 705 574 700 587 700 600 c 0
 700 613 705 626 715 635 c 0
 724 645 737 650 750 650 c 0
 763 650 776 645 785 635 c 2
 785 635 935 485 935 485 c 2
 940 481 944 475 946 469 c 0
 949 463 950 457 950 450 c 0
 950 443 949 437 946 431 c 0
 944 425 940 419 935 415 c 2
 935 415 785 265 785 265 c 2
 776 255 763 250 750 250 c 0
 737 250 724 255 715 265 c 0
 705 274 700 287 700 300 c 0
 700 313 705 326 715 335 c 2
 715 335 779 400 779 400 c 1
 779 400 674 400 674 400 c 1
 672 338 663 254 622 180 c 0
 594 130 552 84 490 51 c 0
 429 18 350 0 250 0 c 0
 222 0 200 22 200 50 c 2
 200 50 200 400 200 400 c 1
 200 400 100 400 100 400 c 2
 72 400 50 422 50 450 c 0
 50 478 72 500 100 500 c 2
 100 500 200 500 200 500 c 1
 200 500 200 850 200 850 c 2
 200 878 222 900 250 900 c 0
574 500 m 1
 572 555 564 618 534 672 c 0
 515 706 487 738 443 761 c 0
 408 779 362 793 300 798 c 1
 300 798 300 500 300 500 c 1
 574 500 l 1
300 400 m 1
 300 400 300 102 300 102 c 1
 362 107 408 121 443 139 c 0
 487 162 515 194 534 228 c 0
 564 282 572 345 574 400 c 1
 300 400 l 1
EndSplineSet
Validated: 1
EndChar

StartChar: uniF1904
Encoding: 261 989444 5
Width: 1000
Flags: HW
LayerCount: 2
Fore
SplineSet
103 625 m 0
 139 672 192 700 254 700 c 0
 317 700 367 672 411 632 c 0
 440 605 470 570 500 532 c 1
 530 570 560 605 589 632 c 0
 633 672 683 700 746 700 c 0
 808 700 861 672 897 625 c 0
 933 580 950 518 950 450 c 0
 950 382 933 320 897 275 c 0
 861 228 808 200 746 200 c 0
 683 200 633 228 589 268 c 0
 560 295 530 330 500 368 c 1
 470 330 440 295 411 268 c 0
 367 228 317 200 254 200 c 0
 192 200 139 228 103 275 c 0
 67 320 50 382 50 450 c 0
 50 518 67 580 103 625 c 0
437 450 m 1
 401 496 372 532 343 558 c 0
 310 588 283 600 254 600 c 0
 224 600 200 588 182 565 c 0
 163 540 150 502 150 450 c 0
 150 398 163 360 182 335 c 0
 200 312 224 300 254 300 c 0
 283 300 310 312 343 342 c 0
 372 368 401 404 437 450 c 1
563 450 m 1
 599 404 628 368 657 342 c 0
 690 312 717 300 746 300 c 0
 776 300 800 312 818 335 c 0
 837 360 850 398 850 450 c 0
 850 502 837 540 818 565 c 0
 800 588 776 600 746 600 c 0
 717 600 690 588 657 558 c 0
 628 532 599 496 563 450 c 1
EndSplineSet
Validated: 1
EndChar

StartChar: uniF1905
Encoding: 262 989445 6
Width: 1000
Flags: HW
LayerCount: 2
Fore
SplineSet
100 900 m 0
 128 900 150 878 150 850 c 2
 150 850 150 300 150 300 c 1
 150 300 850 300 850 300 c 1
 850 300 850 850 850 850 c 2
 850 878 872 900 900 900 c 0
 928 900 950 878 950 850 c 2
 950 850 950 250 950 250 c 2
 950 222 928 200 900 200 c 2
 900 200 100 200 100 200 c 2
 72 200 50 222 50 250 c 2
 50 250 50 850 50 850 c 2
 50 878 72 900 100 900 c 0
575 75 m 0
 575 34 541 0 500 0 c 0
 459 0 425 34 425 75 c 0
 425 116 459 150 500 150 c 0
 541 150 575 116 575 75 c 0
EndSplineSet
Validated: 1
EndChar

StartChar: uniF1906
Encoding: 263 989446 7
Width: 1000
Flags: HW
LayerCount: 2
Fore
SplineSet
530 510 m 2
 521 503.5 510.5 500.25 500 500.25 c 0
 489.5 500.25 479 503.5 470 510 c 2
 470 510 70 810 70 810 c 2
 56.9100688361 820.114946808 49.8384993744 835.186191489 49.8384993744 850.36897835 c 0
 49.8384993744 860.703614518 53.1149468085 871.089931164 60 880 c 0
 70.1149468085 893.089931164 85.1861914894 900.161500626 100.36897835 900.161500626 c 0
 110.703614518 900.161500626 121.089931164 896.885053192 130 890 c 2
 130 890 500 613 500 613 c 1
 500 613 870 890 870 890 c 2
 878.910068836 896.885053192 889.296385482 900.161500626 899.63102165 900.161500626 c 0
 914.813808511 900.161500626 929.885053192 893.089931164 940 880 c 0
 946.885053192 871.089931164 950.161500626 860.703614518 950.161500626 850.36897835 c 0
 950.161500626 835.186191489 943.089931164 820.114946808 930 810 c 2
 530 510 l 2
470 390 m 2
 479 396.5 489.5 399.75 500 399.75 c 0
 510.5 399.75 521 396.5 530 390 c 2
 530 390 930 90 930 90 c 2
 943.089931164 79.8850531915 950.161500626 64.8138085106 950.161500626 49.6310216504 c 0
 950.161500626 39.296385482 946.885053192 28.9100688361 940 20 c 0
 929.885053192 6.91006883607 914.813808511 -0.161500625587 899.63102165 -0.161500625587 c 0
 889.296385482 -0.161500625587 878.910068836 3.11494680849 870 10 c 2
 870 10 500 288 500 288 c 1
 500 288 130 10 130 10 c 2
 121.089931164 3.11494680849 110.703614518 -0.161500625587 100.36897835 -0.161500625587 c 0
 85.1861914894 -0.161500625587 70.1149468085 6.91006883607 60 20 c 0
 53.1149468085 28.9100688361 49.8384993744 39.296385482 49.8384993744 49.6310216504 c 0
 49.8384993744 64.8138085106 56.9100688361 79.8850531915 70 90 c 2
 470 390 l 2
EndSplineSet
Validated: 1
EndChar

StartChar: uniF1907
Encoding: 264 989447 8
Width: 1000
Flags: HW
LayerCount: 2
Fore
SplineSet
63 883 m 0
 72.673739099 894.286028949 86.1022805622 900.084269827 99.7154171071 900.084269827 c 0
 111.432347385 900.084269827 123.286028949 895.788830951 133 887 c 2
 133 887 500 563 500 563 c 1
 500 563 867 887 867 887 c 2
 876.713971051 895.788830951 888.567652615 900.084269827 900.284582893 900.084269827 c 0
 913.897719438 900.084269827 927.326260901 894.286028949 937 883 c 0
 945.788830951 873.286028949 950.084269827 861.432347385 950.084269827 849.715417107 c 0
 950.084269827 836.102280562 944.286028949 822.673739099 933 813 c 2
 933 813 550 474 550 474 c 1
 550 474 550 50 550 50 c 2
 550 22 528 0 500 0 c 0
 472 0 450 22 450 50 c 2
 450 50 450 474 450 474 c 1
 450 474 67 813 67 813 c 2
 55.7139710512 822.673739099 49.9157301732 836.102280562 49.9157301732 849.715417107 c 0
 49.9157301732 861.432347385 54.2111690489 873.286028949 63 883 c 0
EndSplineSet
Validated: 1
EndChar

StartChar: uniF1908
Encoding: 265 989448 9
Width: 1000
Flags: HW
LayerCount: 2
Fore
SplineSet
500 900 m 0
 523 900 543 884 549 862 c 2
 549 862 739 100 739 100 c 1
 739 100 900 100 900 100 c 2
 928 100 950 78 950 50 c 0
 950 22 928 0 900 0 c 2
 900 0 700 0 700 0 c 2
 677 0 657 16 651 38 c 2
 651 38 500 644 500 644 c 1
 500 644 349 38 349 38 c 2
 343 16 323 0 300 0 c 2
 300 0 100 0 100 0 c 2
 72 0 50 22 50 50 c 0
 50 78 72 100 100 100 c 2
 100 100 261 100 261 100 c 1
 261 100 451 862 451 862 c 2
 457 884 477 900 500 900 c 0
EndSplineSet
Validated: 1
EndChar

StartChar: uniF1909
Encoding: 266 989449 10
Width: 1000
Flags: HW
LayerCount: 2
Fore
SplineSet
535 485 m 2
 545 475.5 550 462.75 550 450 c 0
 550 437.25 545 424.5 535 415 c 2
 535 415 135 15 135 15 c 2
 125.5 5 112.75 0 100 0 c 0
 87.25 0 74.5 5 65 15 c 0
 55 24.5 50 37.25 50 50 c 0
 50 62.75 55 75.5 65 85 c 2
 65 85 429 450 429 450 c 1
 429 450 65 815 65 815 c 2
 55 824.5 50 837.25 50 850 c 0
 50 862.75 55 875.5 65 885 c 0
 74.5 895 87.25 900 100 900 c 0
 112.75 900 125.5 895 135 885 c 2
 535 485 l 2
935 485 m 2
 945 475.5 950 462.75 950 450 c 0
 950 437.25 945 424.5 935 415 c 2
 935 415 535 15 535 15 c 2
 525.5 5 512.75 0 500 0 c 0
 487.25 0 474.5 5 465 15 c 0
 455 24.5 450 37.25 450 50 c 0
 450 62.75 455 75.5 465 85 c 2
 465 85 829 450 829 450 c 1
 829 450 465 815 465 815 c 2
 455 824.5 450 837.25 450 850 c 0
 450 862.75 455 875.5 465 885 c 0
 474.5 895 487.25 900 500 900 c 0
 512.75 900 525.5 895 535 885 c 2
 935 485 l 2
EndSplineSet
Validated: 1
EndChar

StartChar: uniF190A
Encoding: 267 989450 11
Width: 1000
Flags: HW
LayerCount: 2
Fore
SplineSet
550 850 m 2
 550 850 550 500 550 500 c 1
 550 500 900 500 900 500 c 2
 928 500 950 478 950 450 c 0
 950 422 928 400 900 400 c 2
 900 400 550 400 550 400 c 1
 550 400 550 50 550 50 c 2
 550 22 528 0 500 0 c 0
 472 0 450 22 450 50 c 2
 450 50 450 400 450 400 c 1
 450 400 100 400 100 400 c 2
 72 400 50 422 50 450 c 0
 50 478 72 500 100 500 c 2
 100 500 450 500 450 500 c 1
 450 500 450 850 450 850 c 2
 450 878 472 900 500 900 c 0
 528 900 550 878 550 850 c 2
EndSplineSet
Validated: 1
EndChar

StartChar: uniF190B
Encoding: 268 989451 12
Width: 1000
Flags: HW
LayerCount: 2
Fore
SplineSet
100 905 m 0
 128 905 150 883 150 855 c 0
 150 795 158 752 173 719 c 0
 188 689 210 665 246 646 c 0
 282 627 334 612 406 603 c 0
 433 599 463 597 495 595 c 1
 514 652 531 701 541 734 c 0
 557 787 584 831 624 861 c 0
 665 891 714 905 767 905 c 0
 819 905 867 892 902 856 c 0
 937 821 950 773 950 720 c 0
 950 667 937 608 891 561 c 0
 845 515 775 490 678 490 c 0
 638 490 600 490 565 492 c 1
 558 471 551 451 544 430 c 0
 541 421 538 412 535 403 c 1
 563 401 589 399 613 396 c 0
 698 386 766 370 817 342 c 0
 871 313 906 272 926 220 c 0
 945 169 950 110 950 45 c 0
 950 17 928 -5 900 -5 c 0
 872 -5 850 17 850 45 c 0
 850 107 845 151 832 184 c 0
 821 214 802 236 770 254 c 0
 734 273 682 288 602 297 c 0
 572 300 539 303 502 305 c 1
 483 248 467 199 460 168 c 1
 460 168 459 166 459 166 c 1
 459 166 459 164 459 164 c 1
 446 128 418 86 382 54 c 0
 344 22 293 -5 233 -5 c 0
 181 -5 133 8 98 44 c 0
 63 79 50 127 50 180 c 0
 50 232 63 290 102 336 c 0
 142 383 204 410 287 410 c 0
 339 410 386 409 431 408 c 1
 437 426 443 445 449 463 c 0
 453 474 457 486 461 497 c 1
 437 499 415 501 394 504 c 0
 316 514 251 530 199 558 c 0
 146 586 107 625 83 677 c 0
 59 728 50 788 50 855 c 0
 50 883 72 905 100 905 c 0
398 309 m 1
 363 310 326 310 287 310 c 0
 227 310 195 292 178 271 c 0
 159 250 150 218 150 180 c 0
 150 143 159 124 169 114 c 0
 178 104 197 95 233 95 c 0
 262 95 291 108 316 130 c 0
 341 151 357 177 363 194 c 0
 370 222 383 263 398 309 c 1
599 591 m 1
 624 590 650 590 678 590 c 0
 759 590 799 610 820 631 c 0
 841 652 850 683 850 720 c 0
 850 757 841 776 831 786 c 0
 822 796 803 805 767 805 c 0
 731 805 704 796 684 781 c 0
 665 766 648 743 637 706 c 1
 637 706 637 705 637 705 c 1
 628 677 615 637 599 591 c 1
EndSplineSet
Validated: 1
EndChar

StartChar: uniF190C
Encoding: 269 989452 13
Width: 1000
Flags: HW
LayerCount: 2
Fore
SplineSet
500 0 m 0
 251 0 50 201 50 450 c 0
 50 699 251 900 500 900 c 0
 749 900 950 699 950 450 c 0
 950 201 749 0 500 0 c 0
500 100 m 0
 693 100 850 257 850 450 c 0
 850 643 693 800 500 800 c 0
 307 800 150 643 150 450 c 0
 150 257 307 100 500 100 c 0
EndSplineSet
Validated: 1
EndChar

StartChar: uniF190D
Encoding: 270 989453 14
Width: 1000
Flags: HW
LayerCount: 2
Fore
SplineSet
500 600 m 0
 307 600 150 443 150 250 c 0
 150 222 128 200 100 200 c 0
 72 200 50 222 50 250 c 0
 50 499 251 700 500 700 c 0
 749 700 950 499 950 250 c 0
 950 222 928 200 900 200 c 0
 872 200 850 222 850 250 c 0
 850 443 693 600 500 600 c 0
EndSplineSet
Validated: 1
EndChar

StartChar: uniF190E
Encoding: 271 989454 15
Width: 1000
Flags: HW
LayerCount: 2
Fore
SplineSet
50 850 m 2
 50 878 72 900 100 900 c 2
 100 900 900 900 900 900 c 2
 928 900 950 878 950 850 c 2
 950 850 950 450 950 450 c 2
 950 422 928 400 900 400 c 2
 900 400 550 400 550 400 c 1
 550 400 550 50 550 50 c 2
 550 22 528 0 500 0 c 0
 472 0 450 22 450 50 c 2
 450 50 450 400 450 400 c 1
 450 400 100 400 100 400 c 2
 72 400 50 422 50 450 c 2
 50 850 l 2
550 500 m 1
 550 500 850 500 850 500 c 1
 850 500 850 800 850 800 c 1
 850 800 550 800 550 800 c 1
 550 500 l 1
450 800 m 1
 450 800 150 800 150 800 c 1
 150 800 150 500 150 500 c 1
 150 500 450 500 450 500 c 1
 450 800 l 1
EndSplineSet
Validated: 1
EndChar

StartChar: uniF190F
Encoding: 272 989455 16
Width: 1000
Flags: HW
LayerCount: 2
Fore
SplineSet
100 900 m 0
 128 900 150 878 150 850 c 2
 150 850 150 100 150 100 c 1
 150 100 850 100 850 100 c 1
 850 100 850 850 850 850 c 2
 850 878 872 900 900 900 c 0
 928 900 950 878 950 850 c 2
 950 850 950 50 950 50 c 2
 950 22 928 0 900 0 c 2
 900 0 100 0 100 0 c 2
 72 0 50 22 50 50 c 2
 50 50 50 850 50 850 c 2
 50 878 72 900 100 900 c 0
600 450 m 0
 600 395 555 350 500 350 c 0
 445 350 400 395 400 450 c 0
 400 505 445 550 500 550 c 0
 555 550 600 505 600 450 c 0
EndSplineSet
Validated: 1
EndChar

StartChar: uniF1910
Encoding: 273 989456 17
Width: 1000
Flags: HW
LayerCount: 2
Fore
SplineSet
162 550 m 1
 148 545 133 539 119 533 c 0
 112.824191537 530.624689053 106.479120012 529.490640567 100.259623854 529.490640567 c 0
 80.2951959045 529.490640567 61.6246890528 541.175808463 54 561 c 0
 51.3153652136 567.101442696 50.0602703815 573.500706217 50.0602703815 579.834363223 c 0
 50.0602703815 599.452179176 62.1014426964 618.440577079 81 626 c 0
 131 646 182 664 231 678 c 1
 239 692 248 704 258 717 c 0
 307 783 367 840 433 872 c 0
 468.822004607 889.384208118 506.864106124 899.830613392 545.225811568 899.830613392 c 0
 579.685155611 899.830613392 614.402387163 891.401438399 648 872 c 1
 648 872 650 872 650 872 c 1
 650 872 651 871 651 871 c 1
 684 849 707 820 722 786 c 1
 729 786.5 736.25 786.75 743.5 786.75 c 0
 750.75 786.75 758 786.5 765 786 c 0
 804 784 845 775 878 754 c 0
 914 732 939 697 947 651 c 0
 949.050983811 640.289306765 950.011384579 629.578613531 950.011384579 618.938928809 c 0
 950.011384579 582.890208686 938.986484018 547.656629306 922 516 c 0
 912 497 899 478 885 460 c 1
 923 408 948 344 948 268 c 0
 948 155 871 87 788 50 c 0
 705 13 605 0 530 0 c 0
 467 0 395 13 328 39 c 1
 308 32 289 26 271 21 c 0
 232 11 198 5 173 3 c 0
 160 1 150 1 143 0 c 0
 140 0 137 0 135 0 c 0
 134 0 133 0 133 0 c 2
 132 0 132 0 132 0 c 1
 132 0 132 0 131 0 c 0
 104 0 81 22 81 50 c 0
 81 78 104 100 131 100 c 0
 132 100 132 100 133 100 c 0
 134 100 136 100 138 100 c 0
 144 101 152 101 162 102 c 0
 174 103 189 105 205 109 c 1
 159 147 123 197 113 260 c 0
 109.931712199 278.665417453 108.497867112 297.919234283 108.497867112 317.544136396 c 0
 108.497867112 374.671755773 120.647956901 434.943870704 140 493 c 0
 146 512 154 531 162 550 c 1
235 461 m 0
 217.529042097 408.58712629 208.136120452 358.482262939 208.136120452 315.068361234 c 0
 208.136120452 301.329143761 209.076854923 288.260049866 211 276 c 0
 219 227 259 184 324 150 c 0
 326 149 328 148 329 147 c 0
 376 168 423 198 465 241 c 0
 477 253 489 267 501 283 c 1
 464 289 428 306 399 328 c 0
 362 355 327 400 327 455 c 0
 327 557.302650417 426.63701202 630.010148749 528.908257003 630.010148749 c 0
 529.60539251 630.010148749 530.302650417 630.006770384 531 630 c 0
 566 629 604 624 641 615 c 1
 644 637 645 658 645 678 c 1
 611 672 576 664 542 656 c 0
 517 649 491 643 464 637 c 0
 410 623 353 610 295 593 c 1
 271 551 250 506 235 461 c 0
395 723 m 1
 412 727 428 731 444 735 c 0
 469 741 494 747 518 753 c 0
 547 760 579 768 612 774 c 1
 608 778 603 783 598 786 c 0
 580.857142857 795.523809524 562.807256236 800.285714286 543.742360436 800.285714286 c 0
 522.770975057 800.285714286 500.571428571 794.523809524 477 783 c 0
 450 769 422 749 395 723 c 1
744 687 m 1
 744.417424305 679.695074662 744.617044797 672.346588561 744.617044797 664.954541697 c 0
 744.617044797 636.929164256 741.747727085 608.277650357 737 579 c 1
 760 568 783 555 803 540 c 0
 807 537 810 534 814 532 c 1
 821 542 828 552 833 562 c 0
 844.961563715 585.12568985 849.928153779 605.071846221 849.928153779 621.331373217 c 0
 849.928153779 625.461563715 849.607687257 629.353876458 849 633 c 0
 845 651 837 662 825 669 c 0
 811 678 790 684 759 686 c 0
 754 686 749 687 744 687 c 1
742 460 m 1
 733 467 723 474 712 479 c 1
 707 462 701 446 694 429 c 1
 711 438 727 449 742 460 c 1
629 294 m 1
 601 246 569 204 537 171 c 0
 512 146 486 124 459 106 c 1
 484 102 508 100 530 100 c 0
 597 100 681 112 747 141 c 0
 812 170 848 211 848 268 c 0
 848 314 835 354 813 388 c 1
 761 347 697 313 629 294 c 1
564 383 m 1
 586 425 605 471 619 517 c 1
 589 525 558 529 530 530 c 0
 465 530 427 485 427 455 c 0
 427 444 435 426 459 407 c 0
 482 390 510 380 530 380 c 0
 541 381 552 381 564 383 c 1
EndSplineSet
Validated: 1
EndChar

StartChar: uniF1911
Encoding: 274 989457 18
Width: 1000
Flags: HW
LayerCount: 2
Fore
SplineSet
500 900 m 0
 721 900 900 721 900 500 c 0
 900 389 855 289 782 216 c 1
 782 216 932 88 932 88 c 2
 943.70620901 77.9661065626 949.81913927 63.8926229162 949.81913927 49.7635439619 c 0
 949.81913927 38.546188577 945.966106563 27.2937909897 938 18 c 0
 927.966106563 6.29379098966 913.892622916 0.180860730084 899.763543962 0.180860730084 c 0
 888.546188577 0.180860730084 877.29379099 4.03389343744 868 12 c 2
 868 12 701 154 701 154 c 1
 642 120 573 100 500 100 c 0
 427 100 358 120 299 154 c 1
 299 154 134 12 134 12 c 2
 124.441226 3.80676514246 112.603377704 -0.242698268737 100.844155991 -0.242698268737 c 0
 86.7691382967 -0.242698268737 72.8067651425 5.55877400047 63 17 c 0
 54.8067651425 26.5587740005 50.7573017313 38.3966222964 50.7573017313 50.155844009 c 0
 50.7573017313 64.2308617033 56.5587740005 78.1932348575 68 88 c 2
 68 88 218 216 218 216 c 1
 145 289 100 389 100 500 c 0
 100 721 279 900 500 900 c 0
200 500 m 0
 200 334 334 200 500 200 c 0
 666 200 800 334 800 500 c 0
 800 666 666 800 500 800 c 0
 334 800 200 666 200 500 c 0
EndSplineSet
Validated: 1
EndChar

StartChar: uniF1912
Encoding: 275 989458 19
Width: 1000
Flags: HW
LayerCount: 2
Fore
SplineSet
550 850 m 2
 550 850 550 794 550 794 c 1
 620 776 676 720 694 650 c 1
 694 650 750 650 750 650 c 2
 778 650 800 628 800 600 c 0
 800 572 778 550 750 550 c 2
 750 550 694 550 694 550 c 1
 687 523 674 498 658 477 c 1
 658 477 890 75 890 75 c 2
 894.5 67.5 896.75 58.75 896.75 50 c 0
 896.75 41.25 894.5 32.5 890 25 c 0
 881 10 864 0 846 0 c 2
 846 0 154 0 154 0 c 2
 136 0 119 10 110 25 c 0
 105.5 32.5 103.25 41.25 103.25 50 c 0
 103.25 58.75 105.5 67.5 110 75 c 2
 110 75 342 477 342 477 c 1
 326 498 313 523 306 550 c 1
 306 550 250 550 250 550 c 2
 222 550 200 572 200 600 c 0
 200 628 222 650 250 650 c 2
 250 650 306 650 306 650 c 1
 324 720 380 776 450 794 c 1
 450 794 450 850 450 850 c 2
 450 878 472 900 500 900 c 0
 528 900 550 878 550 850 c 2
500 500 m 0
 555 500 600 545 600 600 c 0
 600 655 555 700 500 700 c 0
 445 700 400 655 400 600 c 0
 400 545 445 500 500 500 c 0
500 400 m 0
 472 400 446 406 422 416 c 1
 422 416 240 100 240 100 c 1
 240 100 760 100 760 100 c 1
 760 100 578 416 578 416 c 1
 554 406 528 400 500 400 c 0
EndSplineSet
Validated: 1
EndChar

StartChar: uniF1913
Encoding: 276 989459 20
Width: 1000
Flags: HW
LayerCount: 2
Fore
SplineSet
700 700 m 0
 700 590 610 500 500 500 c 0
 445 500 396 522 360 557 c 1
 294 512 250 436 250 350 c 0
 250 212 362 100 500 100 c 0
 621 100 722 186 745 300 c 1
 745 300 550 300 550 300 c 2
 522 300 500 322 500 350 c 0
 500 378 522 400 550 400 c 2
 550 400 800 400 800 400 c 2
 828 400 850 378 850 350 c 0
 850 157 693 0 500 0 c 0
 307 0 150 157 150 350 c 0
 150 473 213 580 308 643 c 1
 303 661 300 680 300 700 c 0
 300 810 390 900 500 900 c 0
 610 900 700 810 700 700 c 0
600 700 m 0
 600 755 555 800 500 800 c 0
 445 800 400 755 400 700 c 0
 400 645 445 600 500 600 c 0
 555 600 600 645 600 700 c 0
EndSplineSet
Validated: 1
EndChar

StartChar: uniF1914
Encoding: 277 989460 21
Width: 1000
Flags: HW
LayerCount: 2
Fore
SplineSet
50 650 m 0
 50 678 72 700 100 700 c 0
 178 700 247 683 306 644 c 0
 341 620 371 588 396 550 c 1
 473 647 582 700 712 700 c 0
 835 700 950 586 950 450 c 0
 950 290 831 200 712 200 c 0
 582 200 473 253 396 350 c 1
 371 312 341 280 306 256 c 0
 247 217 178 200 100 200 c 0
 72 200 50 222 50 250 c 0
 50 278 72 300 100 300 c 0
 163 300 212 313 250 339 c 0
 284 362 313 397 337 450 c 1
 313 503 284 538 250 561 c 0
 212 587 163 600 100 600 c 0
 72 600 50 622 50 650 c 0
449 450 m 1
 507 351 598 300 712 300 c 0
 780 300 850 350 850 450 c 0
 850 534 777 600 712 600 c 0
 598 600 507 549 449 450 c 1
EndSplineSet
Validated: 1
EndChar

StartChar: uniF1915
Encoding: 278 989461 22
Width: 1000
Flags: HW
LayerCount: 2
Fore
SplineSet
615 565 m 0
 605 574.5 600 587.25 600 600 c 0
 600 612.75 605 625.5 615 635 c 2
 615 635 745 765 745 765 c 2
 754.5 775 767.25 780 780 780 c 0
 792.75 780 805.5 775 815 765 c 0
 825 755.5 830 742.75 830 730 c 0
 830 717.25 825 704.5 815 695 c 2
 815 695 685 565 685 565 c 2
 675.5 555 662.75 550 650 550 c 0
 637.25 550 624.5 555 615 565 c 0
185 765 m 0
 194.5 775 207.25 780 220 780 c 0
 232.75 780 245.5 775 255 765 c 2
 255 765 385 635 385 635 c 2
 395 625.5 400 612.75 400 600 c 0
 400 587.25 395 574.5 385 565 c 0
 375.5 555 362.75 550 350 550 c 0
 337.25 550 324.5 555 315 565 c 2
 315 565 185 695 185 695 c 2
 175 704.5 170 717.25 170 730 c 0
 170 742.75 175 755.5 185 765 c 0
500 896 m 0
 528 896 550 874 550 846 c 2
 550 846 550 662 550 662 c 2
 550 635 528 612 500 612 c 0
 472 612 450 635 450 662 c 2
 450 662 450 846 450 846 c 2
 450 874 472 896 500 896 c 0
50 450 m 0
 50 478 72 500 100 500 c 2
 100 500 900 500 900 500 c 2
 928 500 950 478 950 450 c 0
 950 201 749 0 500 0 c 0
 251 0 50 201 50 450 c 0
154 400 m 1
 178 230 324 100 500 100 c 0
 676 100 822 230 846 400 c 1
 154 400 l 1
EndSplineSet
Validated: 1
EndChar

StartChar: uniF1916
Encoding: 279 989462 23
Width: 1000
Flags: HW
LayerCount: 2
Fore
SplineSet
600 900 m 0
 623 900 643 884 649 862 c 2
 649 862 849 62 849 62 c 2
 849.734993995 58.325030024 850.109843875 54.5900360288 850.109843875 50.8685468372 c 0
 850.109843875 39.4001601281 846.550020016 28.0600240192 839 19 c 0
 830 7 815 0 800 0 c 2
 800 0 600 0 600 0 c 2
 572 0 550 22 550 50 c 0
 550 78 572 100 600 100 c 2
 600 100 736 100 736 100 c 1
 736 100 600 644 600 644 c 1
 600 644 449 38 449 38 c 2
 443 16 423 0 400 0 c 2
 400 0 200 0 200 0 c 2
 172 0 150 22 150 50 c 0
 150 78 172 100 200 100 c 2
 200 100 361 100 361 100 c 1
 361 100 551 862 551 862 c 2
 557 884 577 900 600 900 c 0
EndSplineSet
Validated: 1
EndChar

StartChar: uniF1917
Encoding: 280 989463 24
Width: 1000
Flags: HW
LayerCount: 2
Fore
SplineSet
564 785 m 0
 619 841 707 868 772 882 c 0
 806 889 837 894 860 896 c 0
 871 898 880 899 887 899 c 0
 890 899 893 900 894 900 c 0
 895 900 896 900 896 900 c 2
 897 900 897 900 897 900 c 2
 898.082590497 900.0721727 899.165180994 900.107883109 900.24589179 900.107883109 c 0
 914.139136501 900.107883109 927.721726998 894.206100302 937 884 c 0
 945.053994957 875.140605547 949.864648176 863.037869356 949.864648176 851.348851548 c 0
 949.864648176 848.524552833 949.583801513 845.72440706 949 843 c 2
 949 843 949 842 949 842 c 2
 949 841 949 841 949 840 c 0
 949 839 948 836 948 834 c 0
 947 828 946 821 944 811 c 0
 940 793 934 767 926 739 c 0
 909 684 882 611 835 564 c 0
 781 509 693 482 628 468 c 0
 598 462 571 458 550 455 c 1
 550 455 550 51 550 51 c 2
 550 23 528 1 500 1 c 0
 472 1 450 23 450 51 c 2
 450 51 450 455 450 455 c 1
 429 458 401 462 372 469 c 0
 307 483 219 510 164 565 c 0
 118 612 90 685 74 739 c 0
 66 767 60 793 56 811 c 0
 54 821 53 828 52 834 c 0
 52 836 51 838 51 840 c 0
 51 841 51 841 51 842 c 2
 51 842 51 843 51 843 c 2
 50.4161984871 845.72440706 50.1353518244 848.486683477 50.1353518244 851.257351666 c 0
 50.1353518244 862.72440706 54.946005043 874.335206052 63 884 c 0
 72.278273002 894.206100302 85.860863499 900.107883109 98.9553755543 900.107883109 c 0
 99.973955507 900.107883109 100.989582203 900.0721727 102 900 c 2
 102 900 103 900 103 900 c 2
 104 900 105 900 106 900 c 0
 107 900 110 899 113 899 c 0
 120 899 129 898 140 897 c 0
 163 894 194 890 228 882 c 0
 293 868 381 841 435 786 c 0
 463 758 484 720 500 683 c 1
 516 720 537 757 564 785 c 0
207 785 m 0
 191 788 177 791 163 793 c 1
 165 785 167 776 170 768 c 0
 186 716 208 664 235 636 c 0
 267 603 330 580 393 566 c 0
 408 563 423 560 437 558 c 1
 435 566 432 575 430 583 c 0
 414 636 392 688 364 716 c 0
 332 748 270 771 207 785 c 0
563 558 m 1
 577 560 592 563 607 566 c 0
 670 580 732 602 764 635 c 0
 792 663 814 715 830 767 c 0
 833 776 835 784 837 792 c 1
 823 790 809 788 793 784 c 0
 730 770 668 748 635 715 c 0
 608 687 586 635 570 583 c 0
 568 574 565 566 563 558 c 1
EndSplineSet
Validated: 1
EndChar

StartChar: uniF1918
Encoding: 281 989464 25
Width: 1000
Flags: HW
LayerCount: 2
Fore
SplineSet
300 850 m 2
 300 850 300 501 300 501 c 1
 500 514 596 598 645 677 c 0
 672 720 686 764 693 798 c 0
 697 814 698 828 699 837 c 0
 700 842 700 845 700 848 c 0
 700 849 700 849 700 850 c 0
 700 878 722 900 750 900 c 0
 778 900 800 878 800 850 c 2
 800 850 800 849 800 849 c 1
 800 849 800 848 800 848 c 2
 800 847 800 845 800 843 c 0
 800 840 799 835 799 828 c 0
 798 816 795 798 791 777 c 0
 782 736 765 680 730 624 c 0
 688 557 623 492 524 450 c 1
 623 408 688 343 730 277 c 0
 765 220 782 164 791 123 c 0
 795 102 798 84 799 72 c 0
 799 65 800 60 800 57 c 0
 800 55 800 53 800 52 c 2
 800 52 800 51 800 51 c 1
 800 51 800 50 800 50 c 2
 800 22 778 0 750 0 c 0
 722 0 700 22 700 50 c 0
 700 51 700 51 700 52 c 0
 700 55 700 58 699 63 c 0
 698 72 697 86 693 102 c 0
 686 136 672 180 645 224 c 0
 596 302 500 386 300 399 c 1
 300 399 300 50 300 50 c 2
 300 22 278 0 250 0 c 0
 222 0 200 22 200 50 c 2
 200 50 200 850 200 850 c 2
 200 878 222 900 250 900 c 0
 278 900 300 878 300 850 c 2
EndSplineSet
Validated: 1
EndChar

StartChar: uniF1919
Encoding: 282 989465 26
Width: 1000
Flags: HW
LayerCount: 2
Fore
SplineSet
850 900 m 2
 878 900 900 878 900 850 c 2
 900 850 900 550 900 550 c 2
 900 522 878 500 850 500 c 2
 850 500 550 500 550 500 c 1
 550 500 550 447 550 447 c 1
 718 426 850 298 850 140 c 2
 850 140 850 50 850 50 c 2
 850 22 828 0 800 0 c 0
 772 0 750 22 750 50 c 2
 750 50 750 140 750 140 c 2
 750 247 648 350 500 350 c 0
 352 350 250 247 250 140 c 2
 250 140 250 50 250 50 c 2
 250 25 232 5 208 1 c 0
 205.254833996 0.542472332657 202.509667992 0.320442677496 199.789942218 0.320442677496 c 0
 178.732082781 0.320442677496 159.199326582 13.6307840872 153 34 c 2
 153 34 53 334 53 334 c 2
 51.1479974709 339.350229528 50.2699209598 344.827492885 50.2699209598 350.222663874 c 0
 50.2699209598 371.045890611 63.3502295285 390.64622447 84 397 c 0
 89.3502295285 398.852002529 94.8274928854 399.73007904 100.222663874 399.73007904 c 0
 121.045890611 399.73007904 140.64622447 386.649770472 147 366 c 2
 147 366 180 267 180 267 c 1
 229 363 330 432 450 447 c 1
 450 447 450 500 450 500 c 1
 450 500 150 500 150 500 c 2
 122 500 100 522 100 550 c 2
 100 550 100 850 100 850 c 2
 100 878 122 900 150 900 c 2
 850 900 l 2
550 600 m 1
 550 600 800 600 800 600 c 1
 800 600 800 800 800 800 c 1
 800 800 550 800 550 800 c 1
 550 600 l 1
450 800 m 1
 450 800 200 800 200 800 c 1
 200 800 200 600 200 600 c 1
 200 600 450 600 450 600 c 1
 450 800 l 1
EndSplineSet
Validated: 1
EndChar

StartChar: uniF191A
Encoding: 283 989466 27
Width: 1000
Flags: HW
LayerCount: 2
Fore
SplineSet
550 850 m 2
 550 850 550 707 550 707 c 1
 562 711 574 715 588 719 c 0
 639.511165082 735.805060949 701.699459596 756.080188963 759.888695208 756.080188963 c 0
 860.979146015 756.080188963 950 694.88763676 950 448 c 0
 950 198 750 -2 500 -2 c 0
 250 -2 50 198 50 448 c 0
 50 697.727272328 137.491176409 760.143889708 237.486948438 760.143889708 c 0
 296.057460957 760.143889708 358.918043935 738.730027597 411 721 c 0
 425 716 438 712 450 708 c 1
 450 708 450 850 450 850 c 2
 450 878 472 900 500 900 c 0
 528 900 550 878 550 850 c 2
850 448 m 0
 850 561 829 613 813 634 c 0
 802 649 789 656 761 656 c 0
 759.526961572 656.046032451 758.036971252 656.06875605 756.530224124 656.06875605 c 0
 725.304690011 656.06875605 686.88250726 646.309513237 643 632 c 0
 636 630 629 627 621 625 c 0
 606 620 590 615 576 611 c 0
 557 605 528 598 500 598 c 0
 471 598 442 606 423 612 c 0
 409 616 392 622 377 627 c 0
 369 629 362 632 356 634 c 0
 309 649 270 660 238 660 c 0
 211 660 198 653 187 638 c 0
 171 617 150 564 150 448 c 0
 150 253 305 98 500 98 c 0
 695 98 850 253 850 448 c 0
EndSplineSet
Validated: 1
EndChar

StartChar: uniF191B
Encoding: 284 989467 28
Width: 1000
Flags: HW
LayerCount: 2
Fore
SplineSet
530 30 m 2
 521 23.5 510.75 20.25 500.5 20.25 c 0
 490.25 20.25 480 23.5 471 30 c 2
 471 30 72 320 72 320 c 2
 58.6274606681 328.915026221 51.3261339597 343.901265066 51.3261339597 359.628222167 c 0
 51.3261339597 365.070410341 52.2004319624 370.601295887 54 376 c 2
 54 376 206 845 206 845 c 2
 213 866 232 880 254 880 c 2
 254 880 747 880 747 880 c 2
 769 880 788 866 795 845 c 2
 795 845 948 376 948 376 c 2
 949.410107742 371.064622904 950.102180762 366.018778929 950.102180762 361.031219126 c 0
 950.102180762 344.796741822 942.769676775 329.179784517 929 320 c 2
 530 30 l 2
841 379 m 1
 841 379 711 780 711 780 c 1
 711 780 290 780 290 780 c 1
 290 780 160 379 160 379 c 1
 160 379 501 132 501 132 c 1
 841 379 l 1
EndSplineSet
Validated: 1
EndChar

StartChar: uniF191C
Encoding: 285 989468 29
Width: 1000
Flags: HW
LayerCount: 2
Fore
SplineSet
716 725 m 0
 719.74243687 725.190940657 723.479040406 725.285631311 727.206524838 725.285631311 c 0
 821.087493686 725.285631311 909.183832071 665.219374999 939 570 c 0
 946.549967967 546.878223102 950.147647694 523.366783984 950.147647694 500.240567912 c 0
 950.147647694 425.34796886 912.417270587 354.495365555 849 314 c 1
 858.761746717 288.061644439 863.544988345 260.956451747 863.544988345 234.029570208 c 0
 863.544988345 164.41216708 831.57180788 95.9866700081 771 52 c 0
 731.537703153 23.4730384238 685.519895593 9.6394629282 639.932538323 9.6394629282 c 0
 589.637218817 9.6394629282 539.86584867 26.4778602954 500 59 c 1
 459.609600689 26.4778602954 409.863986651 9.6394629282 359.567402487 9.6394629282 c 0
 313.978898939 9.6394629282 267.937746207 23.4730384238 228 52 c 0
 167.779356976 95.7316574338 135.826701699 164.133558719 135.826701699 233.255364908 c 0
 135.826701699 260.549528864 140.80884701 287.955942359 151 314 c 1
 87.5827294132 355.259429056 49.8523523062 425.708509794 49.8523523062 500.368165061 c 0
 49.8523523062 523.422450016 53.4500320335 546.878223102 61 570 c 0
 91.0397472985 664.964362428 180.236980881 725.18543926 274.906354926 725.18543926 c 0
 277.932562879 725.18543926 280.964362428 725.123903574 284 725 c 0
 309 820 396 890 500 890 c 0
 603 890 690 820 716 725 c 0
500 790 m 0
 433 790 379 738 376 672 c 0
 377 665 377 658 374 651 c 0
 367.585055209 630.151429429 348.310261457 616.375775786 327.003116515 616.375775786 c 0
 321.73837891 616.375775786 316.34956133 617.21681289 311 619 c 0
 298.429189211 623.06133887 285.708768685 624.990738999 273.21488156 624.990738999 c 0
 221.106518544 624.990738999 172.93866113 591.429189211 156 539 c 0
 151.8743421 526.2301065 149.910087769 513.305827031 149.910087769 500.621460069 c 0
 149.910087769 448.741165431 182.7698935 400.8743421 235 384 c 0
 255.848570571 376.78318711 269.624224214 357.349517707 269.624224214 336.01089443 c 0
 269.624224214 330.73837891 268.78318711 325.34956133 267 320 c 0
 265 314 262 308 257 303 c 0
 242.820972025 281.923066523 235.984706442 257.909028089 235.984706442 234.053142987 c 0
 235.984706442 195.657387829 253.693716505 157.671321108 287 133 c 0
 308.638129527 117.263178526 333.681412869 109.729682149 358.53713234 109.729682149 c 0
 396.85991308 109.729682149 434.736821474 127.638129527 459 161 c 0
 469 174 484 181 500 181 c 0
 515 181 530 174 540 161 c 0
 564.263178526 127.638129527 602.508025565 109.729682149 641.120315544 109.729682149 c 0
 666.163807413 109.729682149 691.361870473 117.263178526 713 133 c 0
 746.090895124 157.667758184 763.616396654 195.36700868 763.616396654 233.465944804 c 0
 763.616396654 258.690816602 755.933894455 284.090895124 740 306 c 0
 732.896812486 315.470916686 730.810499614 324.379871927 730.810499614 336.355057076 c 0
 730.810499614 357.614916731 744.397183192 376.508066615 765 384 c 0
 817.2301065 400.8743421 850.089912231 448.741165431 850.089912231 500.621460069 c 0
 850.089912231 513.305827031 848.1256579 526.2301065 844 539 c 0
 827.06133887 591.429189211 778.2428732 624.990738999 726.407641211 624.990738999 c 0
 713.979242005 624.990738999 701.3774137 623.06133887 689 619 c 0
 683.65043867 617.21681289 678.26162109 616.375775786 672.996883485 616.375775786 c 0
 651.689738543 616.375775786 632.414944791 630.151429429 626 651 c 0
 624 656 623 662 623 667 c 0
 623 735 568 790 500 790 c 0
EndSplineSet
Validated: 1
EndChar

StartChar: uniF191D
Encoding: 286 989469 30
Width: 1000
Flags: HW
LayerCount: 2
Fore
SplineSet
318 497 m 0
 319 497 320 496 321 496 c 0
 431.090075471 458.254831267 499.750137878 360.528897352 499.750137878 255.823544298 c 0
 499.750137878 227.376573086 494.682115903 198.414428303 484 170 c 0
 444.636464444 65.2929954197 339.574640591 0.252881886023 227.368118798 0.252881886023 c 0
 197.048670544 0.252881886023 166.20755902 5.00172342311 136 15 c 0
 113.898188207 22.1041537907 99.8963395501 41.6697893299 99.8963395501 62.3849593709 c 0
 99.8963395501 67.9131021666 100.893504212 73.5231109509 103 79 c 0
 110.860955444 99.4384841552 131.080834988 111.843667646 152.972813946 111.843667646 c 0
 158.929840256 111.843667646 165.010675244 110.9251401 171 109 c 0
 189.444064452 102.851978516 208.247683418 99.9399476479 226.71529626 99.9399476479 c 0
 295.358760341 99.9399476479 359.360022225 140.172060007 383 204 c 0
 389.640555433 221.351128712 392.793732915 239.069349839 392.793732915 256.486262445 c 0
 392.793732915 320.376447753 350.363602495 380.212132502 282 403 c 0
 281 403 280 404 279 404 c 0
 168.909924529 441.745168733 100.249862122 539.471102648 100.249862122 643.690204821 c 0
 100.249862122 672.00506851 105.317884097 700.799214016 116 729 c 0
 155.374294245 834.523108575 260.482794493 899.737505922 372.72388635 899.737505922 c 0
 403.013719822 899.737505922 433.822995655 894.98816341 464 885 c 0
 486.101811793 877.895846209 500.10366045 858.953284757 500.10366045 838.500615305 c 0
 500.10366045 833.042524588 499.106495788 827.476889049 497 822 c 0
 489.127771087 800.744981936 468.861144564 788.166042199 446.932989304 788.166042199 c 0
 441.006066285 788.166042199 434.957759044 789.085006021 429 791 c 0
 410.555935548 797.148021484 391.752316582 800.060052352 373.28470374 800.060052352 c 0
 304.641239659 800.060052352 240.639977775 759.827939993 217 696 c 0
 210.359444567 678.648871288 207.206267085 660.930650161 207.206267085 643.513737555 c 0
 207.206267085 579.623552247 249.636397505 519.787867498 318 497 c 0
718 497 m 0
 719 497 720 496 721 496 c 0
 831.090075471 458.254831267 899.750137878 360.528897352 899.750137878 255.823544298 c 0
 899.750137878 227.376573086 894.682115903 198.414428303 884 170 c 0
 844.636464444 65.2929954197 739.574640591 0.252881886023 627.368118798 0.252881886023 c 0
 597.048670544 0.252881886023 566.20755902 5.00172342311 536 15 c 0
 513.898188207 22.1041537907 499.89633955 41.6697893299 499.89633955 62.3849593709 c 0
 499.89633955 67.9131021666 500.893504212 73.5231109509 503 79 c 0
 510.860955444 99.4384841552 531.080834988 111.843667646 552.972813946 111.843667646 c 0
 558.929840256 111.843667646 565.010675244 110.9251401 571 109 c 0
 589.444064452 102.851978516 608.247683418 99.9399476479 626.71529626 99.9399476479 c 0
 695.358760341 99.9399476479 759.360022225 140.172060007 783 204 c 0
 789.640555433 221.351128712 792.793732915 239.069349839 792.793732915 256.486262445 c 0
 792.793732915 320.376447753 750.363602495 380.212132502 682 403 c 0
 681 403 680 404 679 404 c 0
 568.909924529 441.745168733 500.249862122 539.471102648 500.249862122 643.690204821 c 0
 500.249862122 672.00506851 505.317884097 700.799214016 516 729 c 0
 555.374294245 834.523108575 660.482794493 899.737505922 772.72388635 899.737505922 c 0
 803.013719822 899.737505922 833.822995655 894.98816341 864 885 c 0
 886.101811793 877.895846209 900.10366045 858.953284757 900.10366045 838.500615305 c 0
 900.10366045 833.042524588 899.106495788 827.476889049 897 822 c 0
 889.127771087 800.744981936 868.861144564 788.166042199 846.932989304 788.166042199 c 0
 841.006066285 788.166042199 834.957759044 789.085006021 829 791 c 0
 810.555935548 797.148021484 791.752316582 800.060052352 773.28470374 800.060052352 c 0
 704.641239659 800.060052352 640.639977775 759.827939993 617 696 c 0
 610.359444567 678.648871288 607.206267085 660.930650161 607.206267085 643.513737555 c 0
 607.206267085 579.623552247 649.636397505 519.787867498 718 497 c 0
EndSplineSet
Validated: 1
EndChar

StartChar: uniF191E
Encoding: 287 989470 31
Width: 1000
Flags: HW
LayerCount: 2
Fore
SplineSet
543 800 m 2
 543 800 745 450 745 450 c 1
 745 450 850 450 850 450 c 2
 878 450 900 428 900 400 c 0
 900 372 878 350 850 350 c 2
 850 350 803 350 803 350 c 1
 803 350 933 125 933 125 c 2
 937.5 117.5 939.75 108.75 939.75 100 c 0
 939.75 91.25 937.5 82.5 933 75 c 0
 924 60 908 50 890 50 c 2
 890 50 110 50 110 50 c 2
 92 50 76 60 67 75 c 0
 62.5 82.5 60.25 91.25 60.25 100 c 0
 60.25 108.75 62.5 117.5 67 125 c 2
 67 125 197 350 197 350 c 1
 197 350 150 350 150 350 c 2
 122 350 100 372 100 400 c 0
 100 428 122 450 150 450 c 2
 150 450 255 450 255 450 c 1
 255 450 457 800 457 800 c 2
 466 815 482 825 500 825 c 0
 518 825 534 815 543 800 c 2
630 450 m 1
 630 450 500 675 500 675 c 1
 500 675 370 450 370 450 c 1
 630 450 l 1
312 350 m 1
 312 350 197 150 197 150 c 1
 197 150 803 150 803 150 c 1
 803 150 688 350 688 350 c 1
 312 350 l 1
EndSplineSet
Validated: 1
EndChar

StartChar: uniF191F
Encoding: 288 989471 32
Width: 1000
Flags: HW
LayerCount: 2
Fore
SplineSet
400 255 m 0
 400 324 344 380 275 380 c 0
 206 380 150 324 150 255 c 0
 150 186 206 130 275 130 c 0
 344 130 400 186 400 255 c 0
725 130 m 0
 794 130 850 186 850 255 c 0
 850 324 794 380 725 380 c 0
 656 380 600 324 600 255 c 0
 600 186 656 130 725 130 c 0
501 519 m 0
 570 519 626 575 626 644 c 0
 626 713 570 769 501 769 c 0
 432 769 376 713 376 644 c 0
 376 575 432 519 501 519 c 0
503 263 m 5
 503 341 542 409 602 449 c 5
 572 435 539 427 504 427 c 4
 465 427 429 437 397 454 c 5
 460 415 503 344 503 263 c 5
 503 139 402 38 278 38 c 4
 154 38 53 139 53 263 c 4
 53 387 154 488 278 488 c 4
 317 488 353 478 385 461 c 5
 322 500 279 571 279 652 c 4
 279 776 380 877 504 877 c 4
 628 877 729 776 729 652 c 4
 729 574 690 506 630 466 c 5
 660 480 693 488 728 488 c 4
 852 488 953 387 953 263 c 4
 953 139 852 38 728 38 c 4
 604 38 503 139 503 263 c 5
EndSplineSet
Validated: 5
EndChar

StartChar: uniF1920
Encoding: 289 989472 33
Width: 1000
Flags: HW
LayerCount: 2
Fore
SplineSet
295 560 m 0
 285.903202145 543.205911653 268.482265648 533.266996305 250.617865398 533.266996305 c 0
 242.952710418 533.266996305 235.205911653 535.096797855 228 539 c 0
 210.710659668 547.990456972 201.073704338 565.111573009 201.073704338 583.086590234 c 0
 201.073704338 591.103046483 202.990456972 599.289340332 207 607 c 1
 207 607 207 607 207 608 c 1
 208 608 208 609 209 610 c 0
 210 612 212 615 214 619 c 0
 218 627 224 638 232 651 c 0
 248 677 271 712 297 747 c 0
 324 782 356 819 392 847 c 0
 426 875 469 900 518 900 c 0
 598 900 677 856 733 799 c 0
 790 742 834 664 834 583 c 0
 834 503 793 428 740 362 c 0
 686 296 616 235 548 183 c 0
 480 130 411 86 360 55 c 0
 335 40 313 27 298 19 c 0
 291 15 285 12 281 9 c 0
 279 8 277 7 276 7 c 1
 276 6 275 6 275 6 c 1
 275 6 274 6 274 6 c 1
 266.597766718 1.99045697249 258.624772421 0.0737043376882 250.755828512 0.0737043376882 c 0
 233.111573009 0.0737043376882 215.990456972 9.71065966829 207 27 c 0
 202.990456972 34.4022332816 201.073704338 42.3752275793 201.073704338 50.2441714879 c 0
 201.073704338 67.8884269914 210.710659668 85.0095430275 228 94 c 1
 228 94 228 95 229 95 c 0
 230 95 231 96 233 97 c 0
 237 99 242 102 249 106 c 0
 264 114 284 126 308 141 c 0
 357 170 422 213 487 262 c 0
 552 312 616 368 662 425 c 0
 709 484 734 537 734 583 c 0
 734 629 708 683 663 728 c 0
 618 774 563 800 518 800 c 0
 503 800 482 792 454 769 c 0
 428 748 401 718 377 686 c 0
 353 655 332 623 318 599 c 0
 310 587 305 577 301 570 c 0
 299 567 297 564 297 562 c 1
 296 562 296 561 295 560 c 0
572 645 m 0
 589.857142857 636.428571429 600.06122449 618.673469388 600.06122449 600.116618076 c 0
 600.06122449 592.693877551 598.428571429 585.142857143 595 578 c 0
 539 462 444 374 324 306 c 0
 316.33849754 301.850019501 308.065551122 299.840092854 299.896860375 299.840092854 c 0
 282.47676107 299.840092854 265.530790232 308.980731729 256 326 c 0
 251.850019501 333.66150246 249.840092854 341.934448878 249.840092854 350.103139625 c 0
 249.840092854 367.52323893 258.980731729 384.469209768 276 394 c 0
 382 454 460 528 505 622 c 0
 513.571428571 639.857142857 531.326530612 650.06122449 549.883381924 650.06122449 c 0
 557.306122449 650.06122449 564.857142857 648.428571429 572 645 c 0
EndSplineSet
Validated: 1
EndChar

StartChar: uniF1921
Encoding: 290 989473 34
Width: 1000
Flags: HW
LayerCount: 2
Fore
SplineSet
651 450 m 0
 651 643 494 800 301 800 c 0
 273 800 251 822 251 850 c 0
 251 878 273 900 301 900 c 0
 549 900 751 699 751 450 c 0
 751 201 549 0 301 0 c 0
 273 0 251 22 251 50 c 0
 251 78 273 100 301 100 c 0
 494 100 651 257 651 450 c 0
EndSplineSet
Validated: 1
EndChar

StartChar: uniF1922
Encoding: 291 989474 35
Width: 1000
Flags: HW
LayerCount: 2
Fore
SplineSet
950 449 m 0
 950 270 804 124 625 124 c 0
 462 124 327 244 304 400 c 1
 304 400 100 400 100 400 c 2
 72 400 50 422 50 450 c 0
 50 478 72 500 100 500 c 2
 100 500 304 500 304 500 c 1
 328 655 463 774 625 774 c 0
 804 774 950 628 950 449 c 0
850 449 m 0
 850 573 749 674 625 674 c 0
 501 674 400 573 400 449 c 0
 400 325 501 224 625 224 c 0
 749 224 850 325 850 449 c 0
EndSplineSet
Validated: 1
EndChar

StartChar: uniF1923
Encoding: 292 989475 36
Width: 1000
Flags: HW
LayerCount: 2
Fore
SplineSet
597 506 m 1
 597 506 846 75 846 75 c 2
 850.5 67.5 852.75 58.75 852.75 50 c 0
 852.75 41.25 850.5 32.5 846 25 c 0
 837 10 821 0 803 0 c 2
 803 0 197 0 197 0 c 2
 179 0 163 10 154 25 c 0
 149.5 32.5 147.25 41.25 147.25 50 c 0
 147.25 58.75 149.5 67.5 154 75 c 2
 154 75 403 507 403 507 c 1
 398 508 392 509 387 510 c 0
 330 522 251 547 202 596 c 0
 160 639 136 704 122 751 c 0
 114 776 109 799 106 815 c 0
 104 823 103 830 102 835 c 0
 101 837 101 839 101 840 c 0
 101 841 101 841 101 842 c 2
 101 842 101 843 101 843 c 2
 100.416198487 845.72440706 100.135351824 848.486683477 100.135351824 851.257351666 c 0
 100.135351824 862.72440706 104.946005043 874.335206052 113 884 c 0
 122.278273002 894.206100302 135.860863499 900.107883109 149.75410821 900.107883109 c 0
 150.834819006 900.107883109 151.917409503 900.0721727 153 900 c 0
 154 900 155 900 155 900 c 2
 157 900 159 900 162 899 c 0
 168 899 176 898 186 897 c 0
 206 895 233 891 263 884 c 0
 321 872 399 848 449 798 c 0
 470 776 488 748 501 719 c 1
 514 748 531 776 553 797 c 0
 602 847 680 872 737 884 c 0
 768 891 795 895 815 897 c 0
 825 898 833 899 839 899 c 0
 842 899 844 900 846 900 c 2
 846 900 847 900 847 900 c 2
 848 900 848 900 848 900 c 2
 849.082590497 900.0721727 850.165180994 900.107883109 851.24589179 900.107883109 c 0
 865.139136501 900.107883109 878.721726998 894.206100302 888 884 c 0
 896.053994957 875.140605547 900.864648176 863.037869356 900.864648176 851.348851548 c 0
 900.864648176 848.524552833 900.583801513 845.72440706 900 843 c 2
 900 843 900 842 900 842 c 2
 900 841 900 841 900 840 c 0
 900 839 900 837 899 835 c 0
 898 830 897 823 895 815 c 0
 892 798 887 776 879 751 c 0
 865 703 841 638 799 596 c 0
 750 546 671 522 614 510 c 0
 609 508 603 507 597 506 c 1
214 792 m 1
 215 788 216 784 218 780 c 0
 231 734 250 690 273 667 c 0
 300 639 353 620 408 608 c 0
 418 605 428 604 437 602 c 1
 436 606 435 610 433 615 c 0
 420 660 401 705 377 728 c 0
 351 755 298 775 243 787 c 0
 233 789 223 791 214 792 c 1
565 602 m 1
 574 603 583 605 593 607 c 0
 648 619 701 639 728 666 c 0
 751 689 770 733 783 779 c 0
 785 783 786 788 787 792 c 1
 778 790 769 788 759 786 c 0
 703 774 651 755 624 727 c 0
 601 704 582 660 568 614 c 0
 567 610 566 606 565 602 c 1
500 475 m 1
 500 475 283 100 283 100 c 1
 283 100 717 100 717 100 c 1
 500 475 l 1
EndSplineSet
Validated: 1
EndChar

StartChar: uniF1924
Encoding: 293 989476 37
Width: 1000
Flags: HW
LayerCount: 2
Fore
SplineSet
787 550 m 1
 795 518 800 485 800 450 c 0
 800 243 632 75 425 75 c 0
 218 75 50 243 50 450 c 0
 50 657 218 825 425 825 c 0
 559 825 676 755 742 650 c 1
 742 650 900 650 900 650 c 2
 928 650 950 628 950 600 c 0
 950 572 928 550 900 550 c 2
 787 550 l 1
236 650 m 1
 236 650 614 650 614 650 c 1
 564 696 498 725 425 725 c 0
 352 725 286 696 236 650 c 1
169 550 m 1
 157 519 150 485 150 450 c 0
 150 298 273 175 425 175 c 0
 577 175 700 298 700 450 c 0
 700 485 693 519 681 550 c 1
 681 550 170 550 170 550 c 1
 169 550 l 1
EndSplineSet
Validated: 1
EndChar

StartChar: uniF1925
Encoding: 294 989477 38
Width: 1000
Flags: HW
LayerCount: 2
Fore
SplineSet
200 900 m 2
 200 900 800 900 800 900 c 2
 828 900 850 878 850 850 c 2
 850 850 850 50 850 50 c 2
 850 22 828 0 800 0 c 0
 772 0 750 22 750 50 c 2
 750 50 750 200 750 200 c 1
 750 200 550 200 550 200 c 1
 550 200 550 50 550 50 c 2
 550 22 528 0 500 0 c 0
 472 0 450 22 450 50 c 2
 450 50 450 200 450 200 c 1
 450 200 250 200 250 200 c 1
 250 200 250 50 250 50 c 2
 250 22 228 0 200 0 c 0
 172 0 150 22 150 50 c 2
 150 50 150 850 150 850 c 2
 150 878 172 900 200 900 c 2
750 300 m 1
 750 300 750 800 750 800 c 1
 750 800 250 800 250 800 c 1
 250 800 250 300 250 300 c 1
 750 300 l 1
EndSplineSet
Validated: 1
EndChar

StartChar: uniF1926
Encoding: 295 989478 39
Width: 1000
Flags: HW
LayerCount: 2
Fore
SplineSet
743 771 m 2
 743 771 587 500 587 500 c 1
 587 500 900 500 900 500 c 2
 928 500 950 478 950 450 c 0
 950 422 928 400 900 400 c 2
 900 400 587 400 587 400 c 1
 587 400 743 129 743 129 c 2
 747.666666667 121 749.888888889 112.222222222 749.888888889 103.555555556 c 0
 749.888888889 86.2222222222 741 69.3333333333 725 60 c 0
 717.26173357 55.4860112492 708.899709147 53.3630948054 700.651355355 53.3630948054 c 0
 683.317688573 53.3630948054 666.486011249 62.73826643 657 79 c 2
 657 79 500 350 500 350 c 1
 500 350 343 79 343 79 c 2
 333.513988751 62.73826643 316.682311427 53.3630948054 299.348644645 53.3630948054 c 0
 291.100290853 53.3630948054 282.73826643 55.4860112492 275 60 c 0
 259 69.3333333333 250.111111111 86.2222222222 250.111111111 103.555555556 c 0
 250.111111111 112.222222222 252.333333333 121 257 129 c 2
 257 129 413 400 413 400 c 1
 413 400 100 400 100 400 c 2
 72 400 50 422 50 450 c 0
 50 478 72 500 100 500 c 2
 100 500 413 500 413 500 c 1
 413 500 257 771 257 771 c 2
 252.333333333 779 250.111111111 787.777777778 250.111111111 796.444444444 c 0
 250.111111111 813.777777778 259 830.666666667 275 840 c 0
 282.73826643 844.513988751 291.100290853 846.636905195 299.348644645 846.636905195 c 0
 316.682311427 846.636905195 333.513988751 837.26173357 343 821 c 2
 343 821 500 550 500 550 c 1
 500 550 657 821 657 821 c 2
 666.486011249 837.26173357 683.317688573 846.636905195 700.651355355 846.636905195 c 0
 708.899709147 846.636905195 717.26173357 844.513988751 725 840 c 0
 741 830.666666667 749.888888889 813.777777778 749.888888889 796.444444444 c 0
 749.888888889 787.777777778 747.666666667 779 743 771 c 2
EndSplineSet
Validated: 1
EndChar

StartChar: uniF1927
Encoding: 296 989479 40
Width: 1000
Flags: HW
LayerCount: 2
Fore
SplineSet
735 485 m 2
 745 475.5 750 462.75 750 450 c 0
 750 437.25 745 424.5 735 415 c 2
 735 415 335 15 335 15 c 2
 325.5 5 312.75 0 300 0 c 0
 287.25 0 274.5 5 265 15 c 0
 255 24.5 250 37.25 250 50 c 0
 250 62.75 255 75.5 265 85 c 2
 265 85 629 450 629 450 c 1
 629 450 265 815 265 815 c 2
 255 824.5 250 837.25 250 850 c 0
 250 862.75 255 875.5 265 885 c 0
 274.5 895 287.25 900 300 900 c 0
 312.75 900 325.5 895 335 885 c 2
 735 485 l 2
EndSplineSet
Validated: 1
EndChar

StartChar: uniF1928
Encoding: 297 989480 41
Width: 1000
Flags: HW
LayerCount: 2
Fore
SplineSet
215 635 m 0
 224.5 645 237.25 650 250 650 c 0
 262.75 650 275.5 645 285 635 c 2
 285 635 500 421 500 421 c 1
 500 421 715 635 715 635 c 2
 724.5 645 737.25 650 750 650 c 0
 762.75 650 775.5 645 785 635 c 0
 795 625.5 800 612.75 800 600 c 0
 800 587.25 795 574.5 785 565 c 2
 785 565 535 315 535 315 c 2
 525.5 305 512.75 300 500 300 c 0
 487.25 300 474.5 305 465 315 c 2
 465 315 215 565 215 565 c 2
 205 574.5 200 587.25 200 600 c 0
 200 612.75 205 625.5 215 635 c 0
EndSplineSet
Validated: 1
EndChar

StartChar: uniF1929
Encoding: 298 989481 42
Width: 1000
Flags: HW
LayerCount: 2
Fore
SplineSet
170 567 m 0
 164.022983648 550.349740163 161.190107588 533.334942321 161.190107588 516.597588951 c 0
 161.190107588 454.926942946 199.650259837 397.022983648 261 375 c 0
 277.257701613 369.372334057 293.862954656 366.69885526 310.218121995 366.69885526 c 0
 372.330568518 366.69885526 430.836098015 405.257701613 453 467 c 0
 489.247756992 569.439313237 585.726274395 633.380614665 688.613208788 633.380614665 c 0
 716.294325355 633.380614665 744.439313237 628.752243008 772 619 c 0
 874.439313237 582.752243008 938.380614665 486.273725605 938.380614665 383.386791212 c 0
 938.380614665 355.705674645 933.752243008 327.560686763 924 300 c 0
 916.852002529 279.350229528 897.08823522 266.26992096 876.231377465 266.26992096 c 0
 870.827492885 266.26992096 865.350229528 267.147997471 860 269 c 0
 839.561515845 276.860955444 827.156332354 295.844942578 827.156332354 316.236666233 c 0
 827.156332354 321.785458078 828.0748599 327.438484155 830 333 c 0
 835.977016352 349.650259837 838.809892412 366.665057679 838.809892412 383.402411049 c 0
 838.809892412 445.073057054 800.349740163 502.977016352 739 525 c 0
 722.742298387 530.627665943 706.137045344 533.30114474 689.781878005 533.30114474 c 0
 627.669431482 533.30114474 569.163901985 494.742298387 547 433 c 0
 510.752243008 330.560686763 414.273725605 266.619385335 311.386791212 266.619385335 c 0
 283.705674645 266.619385335 255.560686763 271.247756992 228 281 c 0
 125.560686763 317.247756992 61.6193853354 413.726274395 61.6193853354 516.613208788 c 0
 61.6193853354 544.294325355 66.2477569916 572.439313237 76 600 c 0
 83.1479974709 620.649770472 102.91176478 633.73007904 123.768622535 633.73007904 c 0
 129.172507115 633.73007904 134.649770472 632.852002529 140 631 c 0
 160.438484155 623.139044556 172.843667646 604.155057422 172.843667646 583.763333767 c 0
 172.843667646 578.214541922 171.9251401 572.561515845 170 567 c 0
EndSplineSet
Validated: 1
EndChar

StartChar: uniF192A
Encoding: 299 989482 43
Width: 1000
Flags: HW
LayerCount: 2
Fore
SplineSet
150 850 m 2
 150 878 172 900 200 900 c 2
 200 900 800 900 800 900 c 2
 828 900 850 878 850 850 c 2
 850 850 850 50 850 50 c 2
 850 22 828 0 800 0 c 2
 800 0 200 0 200 0 c 2
 172 0 150 22 150 50 c 2
 150 850 l 2
250 800 m 1
 250 800 250 100 250 100 c 1
 250 100 750 100 750 100 c 1
 750 100 750 800 750 800 c 1
 250 800 l 1
EndSplineSet
Validated: 1
EndChar

StartChar: uniF192B
Encoding: 300 989483 44
Width: 1000
Flags: HW
LayerCount: 2
Fore
SplineSet
200 900 m 2
 200 900 900 900 900 900 c 2
 928 900 950 878 950 850 c 0
 950 688 854 549 716 486 c 1
 716 486 940 99 940 99 c 2
 944.5 91.5 946.75 82.75 946.75 74 c 0
 946.75 65.25 944.5 56.5 940 49 c 0
 931 34 914 24 896 24 c 2
 896 24 204 24 204 24 c 2
 186 24 169 34 160 49 c 0
 155.5 56.5 153.25 65.25 153.25 74 c 0
 153.25 82.75 155.5 91.5 160 99 c 2
 160 99 384 486 384 486 c 1
 246 549 150 688 150 850 c 0
 150 878 172 900 200 900 c 2
618 456 m 1
 596 452 573 450 550 450 c 0
 527 450 504 452 482 456 c 1
 482 456 290 124 290 124 c 1
 290 124 810 124 810 124 c 1
 618 456 l 1
550 550 m 0
 699 550 822 658 846 800 c 1
 846 800 254 800 254 800 c 1
 278 658 401 550 550 550 c 0
EndSplineSet
Validated: 1
EndChar

StartChar: uniF192C
Encoding: 301 989484 45
Width: 1000
Flags: HW
LayerCount: 2
Fore
SplineSet
50 299 m 0
 50 327 72 349 100 349 c 2
 100 349 900 349 900 349 c 2
 928 349 950 327 950 299 c 0
 950 271 928 249 900 249 c 2
 900 249 100 249 100 249 c 2
 72 249 50 271 50 299 c 0
600 549 m 0
 600 494 555 449 500 449 c 0
 445 449 400 494 400 549 c 0
 400 604 445 649 500 649 c 0
 555 649 600 604 600 549 c 0
EndSplineSet
Validated: 1
EndChar

StartChar: uniF192D
Encoding: 302 989485 46
Width: 1000
Flags: HW
LayerCount: 2
Fore
SplineSet
600 750 m 0
 462 750 350 638 350 500 c 2
 350 500 350 50 350 50 c 2
 350 27 335 7 313 1 c 0
 308.718788905 -0.167603025809 304.399708454 -0.729296351227 300.138560793 -0.729296351227 c 0
 282.502809077 -0.729296351227 265.859394453 8.89201008603 257 25 c 2
 257 25 56 373 56 373 c 2
 51.4860112492 380.73826643 49.3630948054 389.204250519 49.3630948054 397.559965193 c 0
 49.3630948054 415.119247631 58.73826643 432.191560983 75 441 c 0
 83 445.666666667 91.6666666667 447.888888889 100.185185185 447.888888889 c 0
 117.222222222 447.888888889 133.666666667 439 143 423 c 2
 143 423 250 237 250 237 c 1
 250 237 250 500 250 500 c 2
 250 693 407 850 600 850 c 0
 793 850 950 693 950 500 c 2
 950 500 950 50 950 50 c 2
 950 22 928 0 900 0 c 0
 872 0 850 22 850 50 c 2
 850 50 850 500 850 500 c 2
 850 638 738 750 600 750 c 0
EndSplineSet
Validated: 1
EndChar

StartChar: uniF192E
Encoding: 303 989486 47
Width: 1000
Flags: HW
LayerCount: 2
Fore
SplineSet
600 450 m 0
 600 395 555 350 500 350 c 0
 445 350 400 395 400 450 c 0
 400 505 445 550 500 550 c 0
 555 550 600 505 600 450 c 0
880 550 m 1
 880 550 881 549 881 549 c 2
 906 519 929 486 947 450 c 1
 928 414 906 380 880 350 c 0
 788 243 652 175 500 175 c 0
 348 175 212 243 120 350 c 0
 94 380 72 414 53 450 c 1
 72 486 94 520 120 550 c 0
 212 657 348 725 500 725 c 0
 652 725 788 657 880 550 c 1
831 450 m 1
 759 556 637 625 500 625 c 0
 363 625 241 556 169 450 c 1
 241 344 363 275 500 275 c 0
 637 275 759 344 831 450 c 1
EndSplineSet
Validated: 1
EndChar

StartChar: uniF192F
Encoding: 304 989487 48
Width: 1000
Flags: HW
LayerCount: 2
Fore
SplineSet
500 100 m 0
 693 100 850 257 850 450 c 2
 850 450 850 850 850 850 c 2
 850 878 872 900 900 900 c 0
 928 900 950 878 950 850 c 2
 950 850 950 450 950 450 c 2
 950 201 749 0 500 0 c 0
 251 0 50 201 50 450 c 2
 50 450 50 850 50 850 c 2
 50 878 72 900 100 900 c 0
 128 900 150 878 150 850 c 2
 150 850 150 450 150 450 c 2
 150 257 307 100 500 100 c 0
EndSplineSet
Validated: 1
EndChar

StartChar: uniF1930
Encoding: 305 989488 49
Width: 1000
Flags: HW
LayerCount: 2
Fore
SplineSet
500 0 m 0
 251 0 50 201 50 450 c 0
 50 699 251 900 500 900 c 0
 749 900 950 699 950 450 c 0
 950 201 749 0 500 0 c 0
550 104 m 1
 703 125 825 247 846 400 c 1
 846 400 550 400 550 400 c 1
 550 104 l 1
450 104 m 1
 450 104 450 400 450 400 c 1
 450 400 154 400 154 400 c 1
 175 247 297 125 450 104 c 1
550 500 m 1
 550 500 846 500 846 500 c 1
 825 653 703 775 550 796 c 1
 550 500 l 1
450 796 m 1
 297 775 175 653 154 500 c 1
 154 500 450 500 450 500 c 1
 450 796 l 1
EndSplineSet
Validated: 1
EndChar

StartChar: uniF1931
Encoding: 306 989489 50
Width: 1000
Flags: HW
LayerCount: 2
Fore
SplineSet
500 900 m 0
 693 900 850 743 850 550 c 0
 850 427 787 320 692 257 c 1
 697 239 700 220 700 200 c 0
 700 90 610 0 500 0 c 0
 390 0 300 90 300 200 c 0
 300 220 303 239 308 257 c 1
 213 320 150 427 150 550 c 0
 150 743 307 900 500 900 c 0
250 550 m 0
 250 412 362 300 500 300 c 0
 638 300 750 412 750 550 c 0
 750 688 638 800 500 800 c 0
 362 800 250 688 250 550 c 0
599 214 m 1
 568 205 534 200 500 200 c 0
 466 200 432 205 401 214 c 1
 400 210 400 205 400 200 c 0
 400 145 445 100 500 100 c 0
 555 100 600 145 600 200 c 0
 600 205 600 210 599 214 c 1
EndSplineSet
Validated: 1
EndChar

StartChar: uniF1932
Encoding: 307 989490 51
Width: 1000
Flags: HW
LayerCount: 2
Fore
SplineSet
282 736 m 1
 345 776 420 800 500 800 c 0
 580 800 655 776 718 736 c 1
 718 736 719 736 719 736 c 1
 763 749 790 764 809 783 c 0
 828 801 842 825 852 863 c 0
 857.88454975 884.856899073 877.902946752 899.64687452 900.173572817 899.64687452 c 0
 904.395098075 899.64687452 908.697549037 899.11545025 913 898 c 0
 934.856899073 892.11545025 949.64687452 872.097053248 949.64687452 849.826427183 c 0
 949.64687452 845.604901925 949.11545025 841.302450963 948 837 c 0
 935 787 914 745 879 711 c 0
 858 690 832 674 803 661 c 1
 864 591 900 500 900 400 c 0
 900 179 721 0 500 0 c 0
 279 0 100 179 100 400 c 0
 100 500 136 591 197 661 c 1
 168 674 142 690 121 711 c 0
 86 745 65 787 52 837 c 0
 50.8845497504 841.302450963 50.3531254797 845.604901925 50.3531254797 849.826427183 c 0
 50.3531254797 872.097053248 65.1431009271 892.11545025 87 898 c 0
 91.3024509627 899.11545025 95.6049019255 899.64687452 99.8264271834 899.64687452 c 0
 122.097053248 899.64687452 142.11545025 884.856899073 148 863 c 0
 158 825 172 801 191 783 c 0
 210 764 237 749 281 736 c 1
 282 736 l 1
800 400 m 0
 800 566 666 700 500 700 c 0
 334 700 200 566 200 400 c 0
 200 234 334 100 500 100 c 0
 666 100 800 234 800 400 c 0
EndSplineSet
Validated: 1
EndChar

StartChar: uniF1933
Encoding: 308 989491 52
Width: 1000
Flags: HW
LayerCount: 2
Fore
SplineSet
500 800 m 0
 307 800 150 643 150 450 c 2
 150 450 150 50 150 50 c 2
 150 22 128 0 100 0 c 0
 72 0 50 22 50 50 c 2
 50 50 50 450 50 450 c 2
 50 699 251 900 500 900 c 0
 749 900 950 699 950 450 c 2
 950 450 950 50 950 50 c 2
 950 22 928 0 900 0 c 0
 872 0 850 22 850 50 c 2
 850 50 850 450 850 450 c 2
 850 643 693 800 500 800 c 0
500 650 m 0
 390 650 300 560 300 450 c 0
 300 340 390 250 500 250 c 0
 610 250 700 340 700 450 c 0
 700 560 610 650 500 650 c 0
200 450 m 0
 200 616 334 750 500 750 c 0
 666 750 800 616 800 450 c 0
 800 284 666 150 500 150 c 0
 334 150 200 284 200 450 c 0
EndSplineSet
Validated: 1
EndChar

StartChar: uniF1934
Encoding: 309 989492 53
Width: 1000
Flags: HW
LayerCount: 2
Fore
SplineSet
300 376 m 1
 300 376 300 50 300 50 c 2
 300 22 278 0 250 0 c 0
 222 0 200 22 200 50 c 2
 200 50 200 600 200 600 c 2
 200 766 334 900 500 900 c 0
 666 900 800 766 800 600 c 0
 800 434 666 300 500 300 c 0
 423 300 353 329 300 376 c 1
300 600 m 0
 300 490 390 400 500 400 c 0
 610 400 700 490 700 600 c 0
 700 710 610 800 500 800 c 0
 390 800 300 710 300 600 c 0
EndSplineSet
Validated: 1
EndChar

StartChar: uniF1935
Encoding: 310 989493 54
Width: 1000
Flags: HW
LayerCount: 2
Fore
SplineSet
100 500 m 0
 100 721 279 900 500 900 c 0
 721 900 900 721 900 500 c 0
 900 405 867 318 812 250 c 1
 812 250 900 250 900 250 c 2
 928 250 950 228 950 200 c 2
 950 200 950 50 950 50 c 2
 950 22 928 0 900 0 c 0
 872 0 850 22 850 50 c 2
 850 50 850 150 850 150 c 1
 850 150 694 150 694 150 c 1
 636 118 570 100 500 100 c 0
 430 100 364 118 306 150 c 1
 306 150 150 150 150 150 c 1
 150 150 150 50 150 50 c 2
 150 22 128 0 100 0 c 0
 72 0 50 22 50 50 c 2
 50 50 50 200 50 200 c 2
 50 228 72 250 100 250 c 2
 100 250 188 250 188 250 c 1
 133 318 100 405 100 500 c 0
500 800 m 0
 334 800 200 666 200 500 c 0
 200 334 334 200 500 200 c 0
 666 200 800 334 800 500 c 0
 800 666 666 800 500 800 c 0
EndSplineSet
Validated: 1
EndChar

StartChar: uniF1936
Encoding: 311 989494 55
Width: 1000
Flags: HW
LayerCount: 2
Fore
SplineSet
100 900 m 2
 100 900 900 900 900 900 c 2
 928 900 950 878 950 850 c 0
 950 651 821 483 643 423 c 1
 764 375 850 267 850 140 c 2
 850 140 850 50 850 50 c 2
 850 22 828 0 800 0 c 0
 772 0 750 22 750 50 c 2
 750 50 750 140 750 140 c 2
 750 247 648 350 500 350 c 0
 352 350 250 247 250 140 c 2
 250 140 250 50 250 50 c 2
 250 25 232 5 208 1 c 0
 205.254833996 0.542472332657 202.509667992 0.320442677496 199.789942218 0.320442677496 c 0
 178.732082781 0.320442677496 159.199326582 13.6307840872 153 34 c 2
 153 34 53 334 53 334 c 2
 51.1479974709 339.350229528 50.2699209598 344.827492885 50.2699209598 350.222663874 c 0
 50.2699209598 371.045890611 63.3502295285 390.64622447 84 397 c 0
 89.3502295285 398.852002529 94.8274928854 399.73007904 100.222663874 399.73007904 c 0
 121.045890611 399.73007904 140.64622447 386.649770472 147 366 c 2
 147 366 180 267 180 267 c 1
 216 337 279 392 357 423 c 1
 179 483 50 651 50 850 c 0
 50 878 72 900 100 900 c 2
500 500 m 0
 676 500 822 630 846 800 c 1
 846 800 154 800 154 800 c 1
 178 630 324 500 500 500 c 0
EndSplineSet
Validated: 1
EndChar

StartChar: uniF1937
Encoding: 312 989495 56
Width: 1000
Flags: HW
LayerCount: 2
Fore
SplineSet
240 560 m 0
 249.5 570 262.25 575 275 575 c 0
 287.75 575 300.5 570 310 560 c 2
 310 560 350 521 350 521 c 1
 350 521 390 560 390 560 c 2
 399.5 570 412.25 575 425 575 c 0
 437.75 575 450.5 570 460 560 c 0
 470 550.5 475 537.75 475 525 c 0
 475 512.25 470 499.5 460 490 c 2
 460 490 421 450 421 450 c 1
 421 450 460 410 460 410 c 2
 470 400.5 475 387.75 475 375 c 0
 475 362.25 470 349.5 460 340 c 0
 450.5 330 437.75 325 425 325 c 0
 412.25 325 399.5 330 390 340 c 2
 390 340 350 379 350 379 c 1
 350 379 310 340 310 340 c 2
 300.5 330 287.75 325 275 325 c 0
 262.25 325 249.5 330 240 340 c 0
 230 349.5 225 362.25 225 375 c 0
 225 387.75 230 400.5 240 410 c 2
 240 410 279 450 279 450 c 1
 279 450 240 490 240 490 c 2
 230 499.5 225 512.25 225 525 c 0
 225 537.75 230 550.5 240 560 c 0
610 560 m 2
 610 560 650 521 650 521 c 1
 650 521 690 560 690 560 c 2
 699.5 570 712.25 575 725 575 c 0
 737.75 575 750.5 570 760 560 c 0
 770 550.5 775 537.75 775 525 c 0
 775 512.25 770 499.5 760 490 c 2
 760 490 721 450 721 450 c 1
 721 450 760 410 760 410 c 2
 770 400.5 775 387.75 775 375 c 0
 775 362.25 770 349.5 760 340 c 0
 750.5 330 737.75 325 725 325 c 0
 712.25 325 699.5 330 690 340 c 2
 690 340 650 379 650 379 c 1
 650 379 610 340 610 340 c 2
 600.5 330 587.75 325 575 325 c 0
 562.25 325 549.5 330 540 340 c 0
 530 349.5 525 362.25 525 375 c 0
 525 387.75 530 400.5 540 410 c 2
 540 410 579 450 579 450 c 1
 579 450 540 490 540 490 c 2
 530 499.5 525 512.25 525 525 c 0
 525 537.75 530 550.5 540 560 c 0
 549.5 570 562.25 575 575 575 c 0
 587.75 575 600.5 570 610 560 c 2
950 450 m 0
 950 201 749 0 500 0 c 0
 251 0 50 201 50 450 c 0
 50 699 251 900 500 900 c 0
 749 900 950 699 950 450 c 0
850 450 m 0
 850 643 693 800 500 800 c 0
 307 800 150 643 150 450 c 0
 150 257 307 100 500 100 c 0
 693 100 850 257 850 450 c 0
EndSplineSet
Validated: 1
EndChar

StartChar: uniF1938
Encoding: 313 989496 57
Width: 1000
Flags: HW
LayerCount: 2
Fore
SplineSet
950 850 m 0
 950 822 928 800 900 800 c 2
 900 800 350 800 350 800 c 1
 350 800 350 100 350 100 c 1
 350 100 900 100 900 100 c 2
 928 100 950 78 950 50 c 0
 950 22 928 0 900 0 c 2
 900 0 300 0 300 0 c 2
 272 0 250 22 250 50 c 2
 250 50 250 850 250 850 c 2
 250 878 272 900 300 900 c 2
 300 900 900 900 900 900 c 2
 928 900 950 878 950 850 c 0
125 375 m 0
 84 375 50 409 50 450 c 0
 50 491 84 525 125 525 c 0
 166 525 200 491 200 450 c 0
 200 409 166 375 125 375 c 0
EndSplineSet
Validated: 1
EndChar

StartChar: uniF1939
Encoding: 314 989497 58
Width: 1000
Flags: HW
LayerCount: 2
Fore
SplineSet
500 175 m 0
 459 175 425 209 425 250 c 0
 425 291 459 325 500 325 c 0
 541 325 575 291 575 250 c 0
 575 209 541 175 500 175 c 0
900 400 m 0
 900 179 721 0 500 0 c 0
 279 0 100 179 100 400 c 0
 100 450 109 498 126 543 c 1
 80 579 50 636 50 700 c 0
 50 810 140 900 250 900 c 0
 327 900 393 857 427 793 c 1
 451 798 475 800 500 800 c 0
 525 800 549 798 573 793 c 1
 607 857 673 900 750 900 c 0
 860 900 950 810 950 700 c 0
 950 636 920 579 874 543 c 1
 891 498 900 450 900 400 c 0
350 700 m 0
 350 755 305 800 250 800 c 0
 195 800 150 755 150 700 c 0
 150 645 195 600 250 600 c 0
 305 600 350 645 350 700 c 0
450 696 m 1
 448 587 359 500 250 500 c 0
 239 500 228 501 218 503 c 1
 206 471 200 436 200 400 c 0
 200 234 334 100 500 100 c 0
 666 100 800 234 800 400 c 0
 800 436 794 471 782 503 c 1
 772 501 761 500 750 500 c 0
 641 500 552 587 550 696 c 1
 534 699 517 700 500 700 c 0
 483 700 466 699 450 696 c 1
750 600 m 0
 805 600 850 645 850 700 c 0
 850 755 805 800 750 800 c 0
 695 800 650 755 650 700 c 0
 650 645 695 600 750 600 c 0
EndSplineSet
Validated: 1
EndChar

StartChar: uniF193A
Encoding: 315 989498 59
Width: 1000
Flags: HW
LayerCount: 2
Fore
SplineSet
227 718 m 1
 303 654 352 558 352 450 c 0
 352 342 303 246 227 182 c 1
 288 131 366 100 452 100 c 0
 645 100 802 257 802 450 c 0
 802 643 645 800 452 800 c 0
 366 800 288 769 227 718 c 1
111 744 m 0
 194 840 316 900 452 900 c 0
 700 900 902 699 902 450 c 0
 902 201 700 0 452 0 c 0
 316 0 194 60 111 156 c 0
 103.176700169 164.605629814 99.0256415525 175.659420439 99.0256415525 187.246102268 c 0
 99.0256415525 190.469899494 99.3469899494 193.734949747 100 197 c 0
 102 212 111 225 125 232 c 0
 201 275 252 357 252 450 c 0
 252 543 201 625 124 668 c 0
 111 675 102 688 100 703 c 0
 99.3469899494 706.265050253 99.0256415525 709.530100506 99.0256415525 712.753897732 c 0
 99.0256415525 724.340579561 103.176700169 735.394370186 111 744 c 0
EndSplineSet
Validated: 1
EndChar

StartChar: uniF193B
Encoding: 316 989499 60
Width: 1000
Flags: HW
LayerCount: 2
Fore
SplineSet
250 500 m 0
 239 500 228 501 218 503 c 1
 206 471 200 436 200 400 c 0
 200 234 334 100 500 100 c 0
 666 100 800 234 800 400 c 0
 800 436 794 471 782 503 c 1
 772 501 761 500 750 500 c 0
 640 500 550 590 550 700 c 0
 550 810 640 900 750 900 c 0
 860 900 950 810 950 700 c 0
 950 636 920 579 874 543 c 1
 891 498 900 450 900 400 c 0
 900 179 721 0 500 0 c 0
 279 0 100 179 100 400 c 0
 100 450 109 498 126 543 c 1
 80 579 50 636 50 700 c 0
 50 810 140 900 250 900 c 0
 360 900 450 810 450 700 c 0
 450 590 360 500 250 500 c 0
250 600 m 0
 305 600 350 645 350 700 c 0
 350 755 305 800 250 800 c 0
 195 800 150 755 150 700 c 0
 150 645 195 600 250 600 c 0
850 700 m 0
 850 755 805 800 750 800 c 0
 695 800 650 755 650 700 c 0
 650 645 695 600 750 600 c 0
 805 600 850 645 850 700 c 0
EndSplineSet
Validated: 1
EndChar

StartChar: uniF193C
Encoding: 317 989500 61
Width: 1000
Flags: HW
LayerCount: 2
Fore
SplineSet
750 25 m 0
 722 25 700 47 700 75 c 2
 700 75 700 825 700 825 c 2
 700 853 722 875 750 875 c 0
 778 875 800 853 800 825 c 2
 800 825 800 75 800 75 c 2
 800 47 778 25 750 25 c 0
500 0 m 0
 472 0 450 22 450 50 c 2
 450 50 450 850 450 850 c 2
 450 878 472 900 500 900 c 0
 528 900 550 878 550 850 c 2
 550 850 550 50 550 50 c 2
 550 22 528 0 500 0 c 0
250 25 m 0
 222 25 200 47 200 75 c 2
 200 75 200 825 200 825 c 2
 200 853 222 875 250 875 c 0
 278 875 300 853 300 825 c 2
 300 825 300 75 300 75 c 2
 300 47 278 25 250 25 c 0
EndSplineSet
Validated: 1
EndChar

StartChar: uniF193D
Encoding: 318 989501 62
Width: 1000
Flags: HW
LayerCount: 2
Fore
SplineSet
940 300 m 0
 940 272 918 250 890 250 c 2
 890 250 700 250 700 250 c 1
 700 250 700 50 700 50 c 2
 700 22 678 0 650 0 c 0
 622 0 600 22 600 50 c 2
 600 50 600 250 600 250 c 1
 600 250 400 250 400 250 c 1
 400 250 400 50 400 50 c 2
 400 22 378 0 350 0 c 0
 322 0 300 22 300 50 c 2
 300 50 300 250 300 250 c 1
 300 250 100 250 100 250 c 2
 72 250 50 272 50 300 c 0
 50 328 72 350 100 350 c 2
 100 350 300 350 300 350 c 1
 300 350 300 550 300 550 c 1
 300 550 110 550 110 550 c 2
 82 550 60 572 60 600 c 0
 60 628 82 650 110 650 c 2
 110 650 300 650 300 650 c 1
 300 650 300 850 300 850 c 2
 300 878 322 900 350 900 c 0
 378 900 400 878 400 850 c 2
 400 850 400 650 400 650 c 1
 400 650 600 650 600 650 c 1
 600 650 600 840 600 840 c 2
 600 868 622 890 650 890 c 0
 678 890 700 868 700 840 c 2
 700 840 700 650 700 650 c 1
 700 650 900 650 900 650 c 2
 928 650 950 628 950 600 c 0
 950 572 928 550 900 550 c 2
 900 550 700 550 700 550 c 1
 700 550 700 350 700 350 c 1
 700 350 890 350 890 350 c 2
 918 350 940 328 940 300 c 0
600 550 m 1
 600 550 400 550 400 550 c 1
 400 550 400 350 400 350 c 1
 400 350 600 350 600 350 c 1
 600 550 l 1
EndSplineSet
Validated: 1
EndChar

StartChar: uniF193E
Encoding: 319 989502 63
Width: 1000
Flags: HW
LayerCount: 2
Fore
SplineSet
849 380 m 0
 849 176 682.305320151 26 484 26 c 0
 271 26 95 204.720088774 95 421 c 0
 95 668 282.217575893 879 528 879 c 0
 708 879 933.242698269 774 933.242698269 677.844155991 c 0
 933.242698269 651.717089601 911.275826096 627.757301731 883.682437452 627.757301731 c 0
 847.344114628 627.757301731 847.241203465 648.607249258 815 680 c 0
 777 717 710 779 533 779 c 0
 347.932444767 779 195 628 195 447 c 0
 195 279.494776201 315 126 482 126 c 0
 626.006944277 126 749 273 749 381 c 0
 749 493.008928216 655.628849318 581 544 581 c 0
 451 581 393 524 393 444 c 0
 393 365.941009946 428.147478516 324.982136103 476.254579168 324.982136103 c 0
 476.834515702 324.982136103 477.416335603 324.988088482 478 325 c 0
 521.990840012 325.897772245 553 347 553 380 c 0
 553 395.652475842 537.762432001 401.319652571 519 404 c 0
 494.917590551 407.567764363 477.199652376 428.63782473 477.199652376 452.308755795 c 0
 477.199652376 482.395997438 500.31727708 503.532046855 527.561029465 503.532046855 c 0
 626.231262429 503.532046855 653 454.268120235 653 387 c 0
 653 305 572 224 473 224 c 0
 361.537001655 224 293 338 293 446 c 0
 293 589.573031322 418.662774874 664.942471512 550.506301357 664.942471512 c 0
 695.99024112 664.942471512 849 573.170983241 849 380 c 0
EndSplineSet
Validated: 1
EndChar

StartChar: uniF193F
Encoding: 320 989503 64
Width: 1000
Flags: HW
LayerCount: 2
Fore
SplineSet
550 850 m 2
 550 850 550 621 550 621 c 1
 550 621 785 385 785 385 c 2
 795 375.5 800 362.75 800 350 c 0
 800 337.25 795 324.5 785 315 c 0
 775.5 305 762.75 300 750 300 c 0
 737.25 300 724.5 305 715 315 c 2
 715 315 550 479 550 479 c 1
 550 479 550 50 550 50 c 2
 550 22 528 0 500 0 c 0
 472 0 450 22 450 50 c 2
 450 50 450 479 450 479 c 1
 450 479 285 315 285 315 c 2
 275.5 305 262.75 300 250 300 c 0
 237.25 300 224.5 305 215 315 c 0
 205 324.5 200 337.25 200 350 c 0
 200 362.75 205 375.5 215 385 c 2
 215 385 450 621 450 621 c 1
 450 621 450 850 450 850 c 2
 450 878 472 900 500 900 c 0
 528 900 550 878 550 850 c 2
EndSplineSet
Validated: 1
EndChar

StartChar: uniF1940
Encoding: 321 989504 65
Width: 1000
Flags: HW
LayerCount: 2
Fore
SplineSet
500 800 m 0
 307 800 150 643 150 450 c 2
 150 450 150 50 150 50 c 2
 150 22 128 0 100 0 c 0
 72 0 50 22 50 50 c 2
 50 50 50 450 50 450 c 2
 50 699 251 900 500 900 c 0
 749 900 950 699 950 450 c 2
 950 450 950 50 950 50 c 2
 950 22 928 0 900 0 c 0
 872 0 850 22 850 50 c 2
 850 50 850 450 850 450 c 2
 850 643 693 800 500 800 c 0
EndSplineSet
Validated: 1
EndChar

StartChar: uniF1941
Encoding: 322 989505 66
Width: 1000
Flags: HW
LayerCount: 2
Fore
SplineSet
550 850 m 2
 550 850 550 171 550 171 c 1
 550 171 715 335 715 335 c 2
 724.5 345 737.25 350 750 350 c 0
 762.75 350 775.5 345 785 335 c 0
 795 325.5 800 312.75 800 300 c 0
 800 287.25 795 274.5 785 265 c 2
 785 265 535 15 535 15 c 2
 531 10 525 6 519 4 c 0
 513 1 507 0 500 0 c 0
 493 0 487 1 481 4 c 0
 475 6 469 10 465 15 c 2
 465 15 215 265 215 265 c 2
 205 274.5 200 287.25 200 300 c 0
 200 312.75 205 325.5 215 335 c 0
 224.5 345 237.25 350 250 350 c 0
 262.75 350 275.5 345 285 335 c 2
 285 335 450 171 450 171 c 1
 450 171 450 850 450 850 c 2
 450 878 472 900 500 900 c 0
 528 900 550 878 550 850 c 2
EndSplineSet
Validated: 1
EndChar

StartChar: uniF1942
Encoding: 323 989506 67
Width: 1000
Flags: HW
LayerCount: 2
Fore
SplineSet
261 200 m 2
 144 200 50 294 50 411 c 2
 50 411 50 489 50 489 c 2
 50 606 144 700 261 700 c 2
 261 700 739 700 739 700 c 2
 856 700 950 606 950 489 c 2
 950 489 950 411 950 411 c 2
 950 294 856 200 739 200 c 2
 261 200 l 2
150 411 m 2
 150 350 200 300 261 300 c 2
 261 300 739 300 739 300 c 2
 800 300 850 350 850 411 c 2
 850 411 850 489 850 489 c 2
 850 550 800 600 739 600 c 2
 739 600 261 600 261 600 c 2
 200 600 150 550 150 489 c 2
 150 411 l 2
EndSplineSet
Validated: 1
EndChar

StartChar: uniF1943
Encoding: 324 989507 68
Width: 1000
Flags: HW
LayerCount: 2
Fore
SplineSet
150 900 m 0
 178 900 200 878 200 850 c 2
 200 850 200 100 200 100 c 1
 200 100 700 100 700 100 c 2
 755 100 800 145 800 200 c 0
 800 255 755 300 700 300 c 2
 700 300 450 300 450 300 c 2
 422 300 400 322 400 350 c 2
 400 350 400 850 400 850 c 2
 400 878 422 900 450 900 c 0
 478 900 500 878 500 850 c 2
 500 850 500 400 500 400 c 1
 500 400 700 400 700 400 c 2
 810 400 900 310 900 200 c 0
 900 90 810 0 700 0 c 2
 700 0 150 0 150 0 c 2
 122 0 100 22 100 50 c 2
 100 50 100 850 100 850 c 2
 100 878 122 900 150 900 c 0
EndSplineSet
Validated: 1
EndChar

StartChar: uniF1944
Encoding: 325 989508 69
Width: 1000
Flags: HW
LayerCount: 2
Fore
SplineSet
500 0 m 0
 390 0 300 90 300 200 c 0
 300 310 390 400 500 400 c 0
 610 400 700 310 700 200 c 0
 700 90 610 0 500 0 c 0
500 100 m 0
 555 100 600 145 600 200 c 0
 600 255 555 300 500 300 c 0
 445 300 400 255 400 200 c 0
 400 145 445 100 500 100 c 0
500 900 m 0
 528 900 550 878 550 850 c 2
 550 850 550 500 550 500 c 2
 550 472 528 450 500 450 c 0
 472 450 450 472 450 500 c 2
 450 500 450 850 450 850 c 2
 450 878 472 900 500 900 c 0
EndSplineSet
Validated: 1
EndChar

StartChar: uniF1945
Encoding: 326 989509 70
Width: 1000
Flags: HW
LayerCount: 2
Fore
SplineSet
667 900 m 0
 775 900 875 823 875 716 c 0
 875 693 869 670 860 649 c 1
 914 609 950 550 950 479 c 0
 950 418 916 359 877 309 c 0
 837 257 784 206 733 162 c 0
 681 118 630 79 592 52 c 0
 570 37 549 22 527 8 c 0
 519 2.5 509.5 -0.25 500 -0.25 c 0
 490.5 -0.25 481 2.5 473 8 c 0
 451 22 430 37 408 52 c 0
 370 79 319 118 267 162 c 0
 216 206 163 257 123 309 c 0
 84 359 50 418 50 479 c 0
 50 550 86 609 140 649 c 1
 131 670 125 693 125 716 c 0
 125 823 225 900 333 900 c 0
 390 900 439 878 473 851 c 0
 483 844 492 836 500 828 c 1
 508 836 517 844 527 851 c 0
 561 878 610 900 667 900 c 0
215 687 m 1
 242 695 271 700 300 700 c 0
 368 700 426 673 468 641 c 0
 480 632 491 623 500 613 c 0
 501.294735026 611.561405526 502.630861134 610.929937136 504.005401074 610.929937136 c 0
 512.185603383 610.929937136 521.726313369 633.294735026 532 641 c 0
 574 673 632 700 700 700 c 0
 729 700 758 695 785 687 c 1
 790 698 792 707 792 716 c 0
 792 766 742 817 667 817 c 0
 632 817 601 803 577 785 c 0
 566 776 556 767 550 758 c 0
 543 749 541 744 541 742 c 0
 540 740 540 738 539 737 c 0
 535 726 526 717 515 712 c 0
 510 711 505 710 500 710 c 0
 495 710 490 711 485 712 c 0
 474 717 465 726 461 737 c 0
 460 738 460 740 459 742 c 0
 459 744 457 749 450 758 c 0
 444 767 434 776 423 785 c 0
 399 803 368 817 333 817 c 0
 258 817 208 766 208 716 c 0
 208 707 210 698 215 687 c 1
300 600 m 0
 210 600 150 539 150 479 c 0
 150 453 166 416 202 370 c 0
 237 326 284 280 333 238 c 0
 381 196 430 160 467 134 c 0
 479 124 491 116 500 110 c 0
 501.138097353 109.241268432 502.324167505 108.898301125 503.552144043 108.898301125 c 0
 512.034926274 108.898301125 522.517463137 125.264552614 533 134 c 0
 570 160 619 196 667 238 c 0
 716 280 763 326 798 370 c 0
 834 416 850 453 850 479 c 0
 850 539 790 600 700 600 c 0
 658 600 621 584 593 562 c 0
 579 551 568 540 560 530 c 0
 552 519 549 512 549 510 c 0
 548 508 548 506 547 504 c 0
 542 491 531 480 517 475 c 0
 512 473 506 471 500 471 c 0
 494 471 488 473 483 475 c 0
 469 480 458 491 453 504 c 0
 452 506 452 508 451 510 c 0
 451 512 448 519 440 530 c 0
 432 540 421 551 407 562 c 0
 379 584 342 600 300 600 c 0
EndSplineSet
Validated: 1
EndChar

StartChar: uniF1946
Encoding: 327 989510 71
Width: 1000
Flags: HW
LayerCount: 2
Fore
SplineSet
650 150 m 2
 650 150 100 150 100 150 c 2
 72 150 50 172 50 200 c 0
 50 228 72 250 100 250 c 2
 100 250 426 250 426 250 c 1
 379 303 350 373 350 450 c 0
 350 616 484 750 650 750 c 0
 816 750 950 616 950 450 c 0
 950 284 816 150 650 150 c 2
650 250 m 0
 760 250 850 340 850 450 c 0
 850 560 760 650 650 650 c 0
 540 650 450 560 450 450 c 0
 450 340 540 250 650 250 c 0
EndSplineSet
Validated: 1
EndChar

StartChar: uniF1947
Encoding: 328 989511 72
Width: 1000
Flags: HW
LayerCount: 2
Fore
SplineSet
150 850 m 2
 150 850 150 300 150 300 c 1
 150 300 850 300 850 300 c 1
 850 300 850 850 850 850 c 2
 850 878 872 900 900 900 c 0
 928 900 950 878 950 850 c 2
 950 850 950 50 950 50 c 2
 950 22 928 0 900 0 c 2
 900 0 100 0 100 0 c 2
 72 0 50 22 50 50 c 2
 50 50 50 850 50 850 c 2
 50 878 72 900 100 900 c 0
 128 900 150 878 150 850 c 2
150 200 m 1
 150 200 150 100 150 100 c 1
 150 100 850 100 850 100 c 1
 850 100 850 200 850 200 c 1
 150 200 l 1
EndSplineSet
Validated: 1
EndChar

StartChar: uniF1948
Encoding: 329 989512 73
Width: 1000
Flags: HW
LayerCount: 2
Fore
SplineSet
200 900 m 2
 200 900 800 900 800 900 c 2
 828 900 850 878 850 850 c 2
 850 850 850 50 850 50 c 2
 850 22 828 0 800 0 c 2
 800 0 200 0 200 0 c 2
 172 0 150 22 150 50 c 2
 150 50 150 850 150 850 c 2
 150 878 172 900 200 900 c 2
250 100 m 1
 250 100 343 100 343 100 c 1
 343 100 538 400 538 400 c 1
 538 400 370 400 370 400 c 2
 352 400 335 410 326 426 c 0
 321.854528128 433.369727773 319.830653421 441.588094413 319.830653421 449.775597782 c 0
 319.830653421 459.36352085 322.606079858 468.909119787 328 477 c 2
 328 477 538 800 538 800 c 1
 538 800 250 800 250 800 c 1
 250 100 l 1
462 100 m 1
 462 100 750 100 750 100 c 1
 750 100 750 800 750 800 c 1
 750 800 657 800 657 800 c 1
 657 800 462 500 462 500 c 1
 462 500 630 500 630 500 c 2
 648 500 665 490 674 474 c 0
 678.145471872 466.630272227 680.169346579 458.411905587 680.169346579 450.224402218 c 0
 680.169346579 440.63647915 677.393920142 431.090880213 672 423 c 2
 462 100 l 1
EndSplineSet
Validated: 1
EndChar

StartChar: uniF1949
Encoding: 330 989513 74
Width: 1000
Flags: HW
LayerCount: 2
Fore
SplineSet
672 410 m 1
 778 357 850 257 850 140 c 2
 850 140 850 50 850 50 c 2
 850 22 828 0 800 0 c 0
 772 0 750 22 750 50 c 2
 750 50 750 140 750 140 c 2
 750 247 648 350 500 350 c 0
 352 350 250 247 250 140 c 2
 250 140 250 50 250 50 c 2
 250 25 232 5 208 1 c 0
 205.254833996 0.542472332657 202.509667992 0.320442677496 199.789942218 0.320442677496 c 0
 178.732082781 0.320442677496 159.199326582 13.6307840872 153 34 c 2
 153 34 53 334 53 334 c 2
 51.1479974709 339.350229528 50.2699209598 344.827492885 50.2699209598 350.222663874 c 0
 50.2699209598 371.045890611 63.3502295285 390.64622447 84 397 c 0
 89.3502295285 398.852002529 94.8274928854 399.73007904 100.222663874 399.73007904 c 0
 121.045890611 399.73007904 140.64622447 386.649770472 147 366 c 2
 147 366 180 267 180 267 c 1
 211 328 263 378 328 410 c 1
 265 461 225 538 225 625 c 0
 225 777 348 900 500 900 c 0
 652 900 775 777 775 625 c 0
 775 538 735 461 672 410 c 1
500 450 m 0
 597 450 675 528 675 625 c 0
 675 722 597 800 500 800 c 0
 403 800 325 722 325 625 c 0
 325 528 403 450 500 450 c 0
EndSplineSet
Validated: 1
EndChar

StartChar: uniF194A
Encoding: 331 989514 75
Width: 1000
Flags: HW
LayerCount: 2
Fore
SplineSet
302 701 m 2
 302 811 391 900 501 900 c 0
 611 900 700 811 700 701 c 2
 700 701 700 199 700 199 c 2
 700 89 611 0 501 0 c 0
 391 0 302 89 302 199 c 2
 302 701 l 2
501 800 m 0
 446 800 402 756 402 701 c 2
 402 701 402 199 402 199 c 2
 402 144 446 100 501 100 c 0
 556 100 600 144 600 199 c 2
 600 199 600 701 600 701 c 2
 600 756 556 800 501 800 c 0
EndSplineSet
Validated: 1
EndChar

StartChar: uniF194B
Encoding: 332 989515 76
Width: 1000
Flags: HW
LayerCount: 2
Fore
SplineSet
215 885 m 0
 224.5 895 237.25 900 250 900 c 0
 262.75 900 275.5 895 285 885 c 2
 285 885 500 671 500 671 c 1
 500 671 715 885 715 885 c 2
 724.5 895 737.25 900 750 900 c 0
 762.75 900 775.5 895 785 885 c 0
 795 875.5 800 862.75 800 850 c 0
 800 837.25 795 824.5 785 815 c 2
 785 815 535 565 535 565 c 2
 525.5 555 512.75 550 500 550 c 0
 487.25 550 474.5 555 465 565 c 2
 465 565 215 815 215 815 c 2
 205 824.5 200 837.25 200 850 c 0
 200 862.75 205 875.5 215 885 c 0
215 610 m 0
 224.5 620 237.25 625 250 625 c 0
 262.75 625 275.5 620 285 610 c 2
 285 610 500 396 500 396 c 1
 500 396 715 610 715 610 c 2
 724.5 620 737.25 625 750 625 c 0
 762.75 625 775.5 620 785 610 c 0
 795 600.5 800 587.75 800 575 c 0
 800 562.25 795 549.5 785 540 c 2
 785 540 535 290 535 290 c 2
 525.5 280 512.75 275 500 275 c 0
 487.25 275 474.5 280 465 290 c 2
 465 290 215 540 215 540 c 2
 205 549.5 200 562.25 200 575 c 0
 200 587.75 205 600.5 215 610 c 0
215 335 m 0
 224.5 345 237.25 350 250 350 c 0
 262.75 350 275.5 345 285 335 c 2
 285 335 500 121 500 121 c 1
 500 121 715 335 715 335 c 2
 724.5 345 737.25 350 750 350 c 0
 762.75 350 775.5 345 785 335 c 0
 795 325.5 800 312.75 800 300 c 0
 800 287.25 795 274.5 785 265 c 2
 785 265 535 15 535 15 c 2
 525.5 5 512.75 0 500 0 c 0
 487.25 0 474.5 5 465 15 c 2
 465 15 215 265 215 265 c 2
 205 274.5 200 287.25 200 300 c 0
 200 312.75 205 325.5 215 335 c 0
EndSplineSet
Validated: 1
EndChar

StartChar: uniF194C
Encoding: 333 989516 77
Width: 1000
Flags: HW
LayerCount: 2
Fore
SplineSet
600 598 m 0
 462 598 350 486 350 348 c 2
 350 348 350 50 350 50 c 2
 350 27 335 8 313 2 c 0
 308.475957833 0.766170318137 303.909628564 0.16664717121 299.414058204 0.16664717121 c 0
 282.048084334 0.16664717121 265.737978917 9.11276560621 257 25 c 2
 257 25 57 373 57 373 c 2
 52.3333333333 381 50.1111111111 389.777777778 50.1111111111 398.444444444 c 0
 50.1111111111 415.777777778 59 432.666666667 75 442 c 0
 82.7245467376 446.184129483 91.1742329823 448.192840444 99.5155209345 448.192840444 c 0
 117.090434625 448.192840444 134.184129483 439.275453262 143 423 c 2
 143 423 250 237 250 237 c 1
 250 237 250 348 250 348 c 2
 250 541 407 698 600 698 c 0
 793 698 950 541 950 348 c 2
 950 348 950 50 950 50 c 2
 950 22 928 0 900 0 c 0
 872 0 850 22 850 50 c 2
 850 50 850 348 850 348 c 2
 850 486 738 598 600 598 c 0
601 900 m 0
 629 900 651 878 651 850 c 2
 651 850 651 800 651 800 c 2
 651 772 629 750 601 750 c 0
 574 750 551 772 551 800 c 2
 551 800 551 850 551 850 c 2
 551 878 574 900 601 900 c 0
828 847 m 0
 847.248839751 837.760556919 859.383737132 817.850200284 859.383737132 797.767290573 c 0
 859.383737132 791.766927252 858.3004641 785.751160249 856 780 c 2
 856 780 837 730 837 730 c 2
 829.515065163 710.539169424 811.385522918 698.921733779 792.256143975 698.921733779 c 0
 785.828347926 698.921733779 779.287662907 700.233428321 773 703 c 0
 753.595710274 712.314059068 742.023170911 732.472080178 742.023170911 753.18689358 c 0
 742.023170911 759.160526 742.985544301 765.180461315 745 771 c 2
 745 771 765 820 765 820 c 2
 771.736441353 839.460830576 789.67773261 851.078266221 808.759765203 851.078266221 c 0
 815.171652074 851.078266221 821.712337093 849.766571679 828 847 c 0
373 847 m 0
 379.539169424 849.766571679 386.204849903 851.078266221 392.678857889 851.078266221 c 0
 411.945765413 851.078266221 429.515065163 839.460830576 437 820 c 2
 437 820 456 771 456 771 c 2
 458.375310947 764.824191537 459.509359433 758.422698991 459.509359433 752.090360792 c 0
 459.509359433 731.763712694 447.824191537 712.149626863 428 703 c 0
 421.712337093 700.233428321 415.234907602 698.921733779 408.901804254 698.921733779 c 0
 390.054234587 698.921733779 372.484934837 710.539169424 365 730 c 2
 365 730 346 780 346 780 c 2
 343.610481379 785.973796552 342.477118591 792.233083066 342.477118591 798.464055095 c 0
 342.477118591 818.309347862 353.973796552 837.867422345 373 847 c 0
EndSplineSet
Validated: 1
EndChar

StartChar: uniF194D
Encoding: 334 989517 78
Width: 1000
Flags: HW
LayerCount: 2
Fore
SplineSet
150 850 m 0
 178 850 200 828 200 800 c 2
 200 800 200 150 200 150 c 1
 200 150 850 150 850 150 c 2
 878 150 900 128 900 100 c 0
 900 72 878 50 850 50 c 2
 850 50 150 50 150 50 c 2
 122 50 100 72 100 100 c 2
 100 100 100 800 100 800 c 2
 100 828 122 850 150 850 c 0
EndSplineSet
Validated: 1
EndChar

StartChar: uniF194E
Encoding: 335 989518 79
Width: 1000
Flags: HW
LayerCount: 2
Fore
SplineSet
469 61 m 2
 468 62 467 63 465 64 c 0
 462 66 458 70 452 74 c 0
 441 83 425 96 405 112 c 0
 367 143 316 188 265 240 c 0
 213 291 161 350 121 410 c 0
 82 469 50 535 50 600 c 0
 50 738 162 850 300 850 c 0
 371 850 430 818 471 781 c 0
 479.637957167 773.225838549 488.275914335 749.036530213 496.26935634 749.036530213 c 0
 497.529771295 749.036530213 498.774161451 749.637957167 500 751 c 0
 509 762 519 772 529 781 c 0
 570 818 629 850 700 850 c 0
 838 850 950 738 950 600 c 0
 950 535 918 469 879 410 c 0
 839 350 787 291 735 240 c 0
 684 188 633 143 595 112 c 0
 575 96 559 83 548 74 c 0
 542 70 538 66 535 64 c 0
 533 63 532 62 531 61 c 2
 531 61 531 60 530 60 c 0
 521 53.5 510.5 50.25 500 50.25 c 0
 489.5 50.25 479 53.5 470 60 c 0
 469 60 469 61 469 61 c 2
300 750 m 0
 217 750 150 683 150 600 c 0
 150 565 168 519 204 465 c 0
 239 413 287 359 335 310 c 0
 384 262 433 219 470 188 c 0
 481 179 491 170 500 163 c 0
 501.054794071 162.296803953 502.123323828 161.978207102 503.20558927 161.978207102 c 0
 511.35772251 161.978207102 520.289192754 180.054794071 530 188 c 0
 567 219 616 262 665 310 c 0
 713 359 761 413 796 465 c 0
 832 519 850 565 850 600 c 0
 850 683 783 750 700 750 c 0
 660 750 624 732 596 706 c 0
 566 680 551 651 549 640 c 0
 544 617 524 600 500 600 c 0
 476 600 456 617 451 640 c 0
 449 651 434 680 404 706 c 0
 376 732 340 750 300 750 c 0
EndSplineSet
Validated: 1
EndChar

StartChar: uniF194F
Encoding: 336 989519 80
Width: 1000
Flags: HW
LayerCount: 2
Fore
SplineSet
543 800 m 2
 543 800 933 125 933 125 c 2
 937.5 117.5 939.75 108.75 939.75 100 c 0
 939.75 91.25 937.5 82.5 933 75 c 0
 924 60 908 50 890 50 c 2
 890 50 110 50 110 50 c 2
 92 50 76 60 67 75 c 0
 62.5 82.5 60.25 91.25 60.25 100 c 0
 60.25 108.75 62.5 117.5 67 125 c 2
 67 125 457 800 457 800 c 2
 466 815 482 825 500 825 c 0
 518 825 534 815 543 800 c 2
271 150 m 1
 271 150 442 447 442 447 c 1
 442 447 405 511 405 511 c 1
 405 511 197 150 197 150 c 1
 271 150 l 1
386 150 m 1
 386 150 613 150 613 150 c 1
 613 150 500 347 500 347 c 1
 386 150 l 1
729 150 m 1
 729 150 803 150 803 150 c 1
 803 150 595 511 595 511 c 1
 595 511 558 447 558 447 c 1
 729 150 l 1
537 611 m 1
 537 611 500 675 500 675 c 1
 500 675 463 611 463 611 c 1
 463 611 500 547 500 547 c 1
 537 611 l 1
EndSplineSet
Validated: 1
EndChar

StartChar: uniF1950
Encoding: 337 989520 81
Width: 1000
Flags: HW
LayerCount: 2
Fore
SplineSet
550 800 m 1
 550 800 550 100 550 100 c 1
 550 100 900 100 900 100 c 2
 928 100 950 78 950 50 c 0
 950 22 928 0 900 0 c 2
 900 0 100 0 100 0 c 2
 72 0 50 22 50 50 c 0
 50 78 72 100 100 100 c 2
 100 100 450 100 450 100 c 1
 450 100 450 800 450 800 c 1
 450 800 100 800 100 800 c 2
 72 800 50 822 50 850 c 0
 50 878 72 900 100 900 c 2
 100 900 900 900 900 900 c 2
 928 900 950 878 950 850 c 0
 950 822 928 800 900 800 c 2
 550 800 l 1
EndSplineSet
Validated: 1
EndChar

StartChar: uniF1951
Encoding: 338 989521 82
Width: 1000
Flags: HW
LayerCount: 2
Fore
SplineSet
325 750 m 0
 284 750 250 784 250 825 c 0
 250 866 284 900 325 900 c 0
 366 900 400 866 400 825 c 0
 400 784 366 750 325 750 c 0
80 550 m 0
 80 578 102 600 130 600 c 2
 130 600 450 600 450 600 c 1
 450 600 450 700 450 700 c 2
 450 728 472 750 500 750 c 0
 528 750 550 728 550 700 c 2
 550 700 550 600 550 600 c 1
 550 600 880 600 880 600 c 2
 908 600 930 578 930 550 c 0
 930 522 908 500 880 500 c 2
 880 500 550 500 550 500 c 1
 550 500 550 400 550 400 c 1
 550 400 900 400 900 400 c 2
 928 400 950 378 950 350 c 0
 950 322 928 300 900 300 c 2
 900 300 550 300 550 300 c 1
 550 300 550 200 550 200 c 1
 550 200 875 200 875 200 c 2
 903 200 925 178 925 150 c 0
 925 122 903 100 875 100 c 2
 875 100 550 100 550 100 c 1
 550 100 550 50 550 50 c 2
 550 22 528 0 500 0 c 0
 472 0 450 22 450 50 c 2
 450 50 450 100 450 100 c 1
 450 100 125 100 125 100 c 2
 97 100 75 122 75 150 c 0
 75 178 97 200 125 200 c 2
 125 200 450 200 450 200 c 1
 450 200 450 300 450 300 c 1
 450 300 100 300 100 300 c 2
 72 300 50 322 50 350 c 0
 50 378 72 400 100 400 c 2
 100 400 450 400 450 400 c 1
 450 400 450 500 450 500 c 1
 450 500 130 500 130 500 c 2
 102 500 80 522 80 550 c 0
750 825 m 0
 750 784 716 750 675 750 c 0
 634 750 600 784 600 825 c 0
 600 866 634 900 675 900 c 0
 716 900 750 866 750 825 c 0
EndSplineSet
Validated: 1
EndChar

StartChar: uniF1952
Encoding: 339 989522 83
Width: 1000
Flags: HW
LayerCount: 2
Fore
SplineSet
100 775 m 0
 128 775 150 753 150 725 c 2
 150 725 150 225 150 225 c 1
 150 225 650 225 650 225 c 1
 650 225 650 725 650 725 c 2
 650 753 672 775 700 775 c 0
 728 775 750 753 750 725 c 2
 750 725 750 175 750 175 c 2
 750 147 728 125 700 125 c 2
 700 125 100 125 100 125 c 2
 72 125 50 147 50 175 c 2
 50 175 50 725 50 725 c 2
 50 753 72 775 100 775 c 0
950 450 m 0
 950 409 916 375 875 375 c 0
 834 375 800 409 800 450 c 0
 800 491 834 525 875 525 c 0
 916 525 950 491 950 450 c 0
EndSplineSet
Validated: 1
EndChar

StartChar: uniF1953
Encoding: 340 989523 84
Width: 1000
Flags: HW
LayerCount: 2
Fore
SplineSet
100 900 m 0
 128 900 150 878 150 850 c 2
 150 850 150 100 150 100 c 1
 150 100 850 100 850 100 c 1
 850 100 850 850 850 850 c 2
 850 878 872 900 900 900 c 0
 928 900 950 878 950 850 c 2
 950 850 950 50 950 50 c 2
 950 22 928 0 900 0 c 2
 900 0 100 0 100 0 c 2
 72 0 50 22 50 50 c 2
 50 50 50 850 50 850 c 2
 50 878 72 900 100 900 c 0
EndSplineSet
Validated: 1
EndChar

StartChar: uniF1954
Encoding: 341 989524 85
Width: 1000
Flags: HW
LayerCount: 2
Fore
SplineSet
500 300 m 0
 693 300 850 457 850 650 c 0
 850 678 872 700 900 700 c 0
 928 700 950 678 950 650 c 0
 950 401 749 200 500 200 c 0
 251 200 50 401 50 650 c 0
 50 678 72 700 100 700 c 0
 128 700 150 678 150 650 c 0
 150 457 307 300 500 300 c 0
EndSplineSet
Validated: 1
EndChar

StartChar: uniF1955
Encoding: 342 989525 86
Width: 1000
Flags: HW
LayerCount: 2
Fore
SplineSet
150 850 m 2
 150 878 172 900 200 900 c 2
 200 900 800 900 800 900 c 2
 828 900 850 878 850 850 c 2
 850 850 850 50 850 50 c 2
 850 22 828 0 800 0 c 2
 800 0 200 0 200 0 c 2
 172 0 150 22 150 50 c 2
 150 850 l 2
250 800 m 1
 250 800 250 100 250 100 c 1
 250 100 750 100 750 100 c 1
 750 100 750 800 750 800 c 1
 250 800 l 1
670 380 m 0
 670 474 594 550 500 550 c 0
 406 550 330 474 330 380 c 0
 330 286 406 210 500 210 c 0
 594 210 670 286 670 380 c 0
500 150 m 0
 373 150 270 253 270 380 c 0
 270 507 373 610 500 610 c 0
 627 610 730 507 730 380 c 0
 730 253 627 150 500 150 c 0
570 380 m 0
 570 397 583 410 600 410 c 0
 617 410 630 397 630 380 c 0
 630 308 572 250 500 250 c 0
 428 250 370 308 370 380 c 0
 370 397 383 410 400 410 c 0
 417 410 430 397 430 380 c 0
 430 341 461 310 500 310 c 0
 539 310 570 341 570 380 c 0
283 678 m 0
 287.5 682.5 293.75 684.75 300.125 684.75 c 0
 306.5 684.75 313 682.5 318 678 c 2
 318 678 368 628 368 628 c 2
 373 623 375.5 616.5 375.5 610 c 0
 375.5 603.5 373 597 368 592 c 0
 363 587.5 356.75 585.25 350.5 585.25 c 0
 344.25 585.25 338 587.5 333 592 c 2
 333 592 283 642 283 642 c 2
 278 647 275.5 653.5 275.5 660 c 0
 275.5 666.5 278 673 283 678 c 0
634 592 m 0
 629 597 626.5 603.5 626.5 610 c 0
 626.5 616.5 629 623 634 628 c 2
 634 628 684 678 684 678 c 2
 689 682.5 695.5 684.75 702 684.75 c 0
 708.5 684.75 715 682.5 720 678 c 0
 724.5 673 726.75 666.5 726.75 660 c 0
 726.75 653.5 724.5 647 720 642 c 2
 720 642 669 592 669 592 c 2
 664.5 587.5 658.25 585.25 651.875 585.25 c 0
 645.5 585.25 639 587.5 634 592 c 0
501 755 m 0
 515 755 527 744 527 730 c 2
 527 730 527 659 527 659 c 2
 527 646 515 634 501 634 c 0
 488 634 476 646 476 659 c 2
 476 659 476 730 476 730 c 2
 476 744 488 755 501 755 c 0
EndSplineSet
Validated: 1
EndChar

StartChar: uniF1956
Encoding: 343 989526 87
Width: 1000
Flags: HW
LayerCount: 2
Fore
SplineSet
950 700 m 0
 950 672 928 650 900 650 c 2
 900 650 100 650 100 650 c 2
 72 650 50 672 50 700 c 0
 50 728 72 750 100 750 c 2
 100 750 900 750 900 750 c 2
 928 750 950 728 950 700 c 0
950 200 m 0
 950 172 928 150 900 150 c 2
 900 150 100 150 100 150 c 2
 72 150 50 172 50 200 c 0
 50 228 72 250 100 250 c 2
 100 250 900 250 900 250 c 2
 928 250 950 228 950 200 c 0
EndSplineSet
Validated: 1
EndChar

StartChar: uniF1957
Encoding: 344 989527 88
Width: 1000
Flags: HW
LayerCount: 2
Fore
SplineSet
575 75 m 0
 575 34 541 0 500 0 c 0
 459 0 425 34 425 75 c 0
 425 116 459 150 500 150 c 0
 541 150 575 116 575 75 c 0
500 900 m 0
 528 900 550 878 550 850 c 2
 550 850 550 350 550 350 c 2
 550 322 528 300 500 300 c 0
 472 300 450 322 450 350 c 2
 450 350 450 850 450 850 c 2
 450 878 472 900 500 900 c 0
871 822 m 0
 889.436714819 813.88784548 900.259390684 795.442352378 900.259390684 776.289431426 c 0
 900.259390684 769.471184061 898.88784548 762.563285181 896 756 c 2
 896 756 684 303 684 303 c 2
 676.033207798 284.893654087 658.100086822 274.13091885 639.318302567 274.13091885 c 0
 632.167487907 274.13091885 624.893654087 275.691046038 618 279 c 0
 599.893654087 286.966792202 589.13091885 304.899913178 589.13091885 323.681697433 c 0
 589.13091885 330.832512093 590.691046038 338.106345913 594 345 c 2
 594 345 805 798 805 798 c 2
 813.691046038 816.106345913 831.299333612 826.86908115 849.846905411 826.86908115 c 0
 856.908548039 826.86908115 864.106345913 825.308953962 871 822 c 0
129 822 m 0
 135.893654087 825.308953962 143.167487907 826.86908115 150.318302567 826.86908115 c 0
 169.100086822 826.86908115 187.033207798 816.106345913 195 798 c 2
 195 798 407 345 407 345 c 2
 409.88784548 338.436714819 411.259390684 331.528815939 411.259390684 324.710568574 c 0
 411.259390684 305.557647622 400.436714819 287.11215452 382 279 c 0
 375.106345913 275.691046038 367.908548039 274.13091885 360.846905411 274.13091885 c 0
 342.299333612 274.13091885 324.691046038 284.893654087 316 303 c 2
 316 303 105 756 105 756 c 2
 101.691046038 762.893654087 100.13091885 770.167487907 100.13091885 777.318302567 c 0
 100.13091885 796.100086822 110.893654087 814.033207798 129 822 c 0
EndSplineSet
Validated: 1
EndChar

StartChar: uniF1958
Encoding: 345 989528 89
Width: 1000
Flags: HW
LayerCount: 2
Fore
SplineSet
100 0 m 0
 72 0 50 22 50 50 c 2
 50 50 50 850 50 850 c 2
 50 878 72 900 100 900 c 2
 100 900 900 900 900 900 c 2
 928 900 950 878 950 850 c 2
 950 850 950 50 950 50 c 2
 950 22 928 0 900 0 c 0
 872 0 850 22 850 50 c 2
 850 50 850 800 850 800 c 1
 850 800 750 800 750 800 c 1
 750 800 750 100 750 100 c 2
 750 72 728 50 700 50 c 0
 672 50 650 72 650 100 c 2
 650 100 650 800 650 800 c 1
 650 800 350 800 350 800 c 1
 350 800 350 100 350 100 c 2
 350 72 328 50 300 50 c 0
 272 50 250 72 250 100 c 2
 250 100 250 800 250 800 c 1
 250 800 150 800 150 800 c 1
 150 800 150 50 150 50 c 2
 150 22 128 0 100 0 c 0
EndSplineSet
Validated: 1
EndChar

StartChar: uniF1959
Encoding: 346 989529 90
Width: 1000
Flags: HW
LayerCount: 2
Fore
SplineSet
575 75 m 0
 575 34 541 0 500 0 c 0
 459 0 425 34 425 75 c 0
 425 116 459 150 500 150 c 0
 541 150 575 116 575 75 c 0
514 480 m 0
 548 510 591 532 627 551 c 0
 629 552 630 552 632 553 c 0
 669 572 700 588 722 606 c 0
 744 623 750 637 750 650 c 0
 750 699 727 734 686 759 c 0
 643 785 578 800 500 800 c 0
 422 800 357 785 314 759 c 0
 273 734 250 699 250 650 c 0
 250 622 228 600 200 600 c 0
 172 600 150 622 150 650 c 0
 150 739 195 804 262 845 c 0
 327 884 412 900 500 900 c 0
 588 900 673 884 738 845 c 0
 805 804 850 739 850 650 c 0
 850 594 819 555 784 528 c 0
 754 503 714 483 680 466 c 0
 678 464 675 463 673 462 c 0
 634 442 603 425 580 405 c 0
 559 387 550 370 550 350 c 2
 550 350 550 250 550 250 c 2
 550 222 528 200 500 200 c 0
 472 200 450 222 450 250 c 2
 450 250 450 350 450 350 c 2
 450 408 479 450 514 480 c 0
EndSplineSet
Validated: 1
EndChar

StartChar: uniF195A
Encoding: 347 989530 91
Width: 1000
Flags: HW
LayerCount: 2
Fore
SplineSet
100 0 m 0
 72 0 50 22 50 50 c 2
 50 50 50 650 50 650 c 2
 50 678 72 700 100 700 c 2
 100 700 900 700 900 700 c 2
 928 700 950 678 950 650 c 2
 950 650 950 50 950 50 c 2
 950 22 928 0 900 0 c 0
 872 0 850 22 850 50 c 2
 850 50 850 600 850 600 c 1
 850 600 150 600 150 600 c 1
 150 600 150 50 150 50 c 2
 150 22 128 0 100 0 c 0
575 825 m 0
 575 784 541 750 500 750 c 0
 459 750 425 784 425 825 c 0
 425 866 459 900 500 900 c 0
 541 900 575 866 575 825 c 0
EndSplineSet
Validated: 1
EndChar

StartChar: uniF195B
Encoding: 348 989531 92
Width: 1000
Flags: HW
LayerCount: 2
Fore
SplineSet
150 50 m 2
 150 22 128 0 100 0 c 0
 72 0 50 22 50 50 c 2
 50 50 50 850 50 850 c 2
 50 878 72 900 100 900 c 2
 100 900 900 900 900 900 c 2
 928 900 950 878 950 850 c 2
 950 850 950 50 950 50 c 2
 950 22 928 0 900 0 c 0
 872 0 850 22 850 50 c 2
 850 50 850 800 850 800 c 1
 850 800 550 800 550 800 c 1
 550 800 550 100 550 100 c 2
 550 72 528 50 500 50 c 0
 472 50 450 72 450 100 c 2
 450 100 450 800 450 800 c 1
 450 800 150 800 150 800 c 1
 150 50 l 2
EndSplineSet
Validated: 1
EndChar

StartChar: uniF195C
Encoding: 349 989532 93
Width: 1000
Flags: HW
LayerCount: 2
Fore
SplineSet
500 100 m 0
 693 100 850 257 850 450 c 0
 850 643 693 800 500 800 c 0
 307 800 150 643 150 450 c 0
 150 257 307 100 500 100 c 0
500 0 m 0
 251 0 50 201 50 450 c 0
 50 699 251 900 500 900 c 0
 749 900 950 699 950 450 c 0
 950 201 749 0 500 0 c 0
650 450 m 0
 650 533 583 600 500 600 c 0
 417 600 350 533 350 450 c 0
 350 367 417 300 500 300 c 0
 583 300 650 367 650 450 c 0
500 200 m 0
 362 200 250 312 250 450 c 0
 250 588 362 700 500 700 c 0
 638 700 750 588 750 450 c 0
 750 312 638 200 500 200 c 0
EndSplineSet
Validated: 1
EndChar

StartChar: uniF195D
Encoding: 350 989533 94
Width: 1000
Flags: HW
LayerCount: 2
Fore
SplineSet
600 250 m 0
 600 278 622 300 650 300 c 2
 650 300 900 300 900 300 c 2
 928 300 950 278 950 250 c 0
 950 222 928 200 900 200 c 2
 900 200 650 200 650 200 c 2
 622 200 600 222 600 250 c 0
500 700 m 0
 528 700 550 678 550 650 c 2
 550 650 550 400 550 400 c 2
 550 372 528 350 500 350 c 0
 472 350 450 372 450 400 c 2
 450 400 450 650 450 650 c 2
 450 678 472 700 500 700 c 0
50 250 m 0
 50 278 72 300 100 300 c 2
 100 300 350 300 350 300 c 2
 378 300 400 278 400 250 c 0
 400 222 378 200 350 200 c 2
 350 200 100 200 100 200 c 2
 72 200 50 222 50 250 c 0
EndSplineSet
Validated: 1
EndChar

StartChar: uniF195E
Encoding: 351 989534 95
Width: 1000
Flags: HW
LayerCount: 2
Fore
SplineSet
200 300 m 2
 200 300 200 850 200 850 c 2
 200 878 222 900 250 900 c 0
 278 900 300 878 300 850 c 2
 300 850 300 524 300 524 c 1
 353 571 423 600 500 600 c 0
 666 600 800 466 800 300 c 0
 800 134 666 0 500 0 c 0
 334 0 200 134 200 300 c 2
300 300 m 0
 300 190 390 100 500 100 c 0
 610 100 700 190 700 300 c 0
 700 410 610 500 500 500 c 0
 390 500 300 410 300 300 c 0
EndSplineSet
Validated: 1
EndChar

StartChar: uniF195F
Encoding: 352 989535 96
Width: 1000
Flags: HW
LayerCount: 2
Fore
SplineSet
50 850 m 0
 50 878 72 900 100 900 c 2
 100 900 700 900 700 900 c 2
 728 900 750 878 750 850 c 2
 750 850 750 50 750 50 c 2
 750 22 728 0 700 0 c 2
 700 0 100 0 100 0 c 2
 72 0 50 22 50 50 c 0
 50 78 72 100 100 100 c 2
 100 100 650 100 650 100 c 1
 650 100 650 800 650 800 c 1
 650 800 100 800 100 800 c 2
 72 800 50 822 50 850 c 0
875 375 m 0
 834 375 800 409 800 450 c 0
 800 491 834 525 875 525 c 0
 916 525 950 491 950 450 c 0
 950 409 916 375 875 375 c 0
EndSplineSet
Validated: 1
EndChar

StartChar: uniF1960
Encoding: 353 989536 97
Width: 1000
Flags: HW
LayerCount: 2
Fore
SplineSet
150 850 m 2
 150 878 172 900 200 900 c 2
 200 900 800 900 800 900 c 2
 828 900 850 878 850 850 c 2
 850 850 850 50 850 50 c 2
 850 22 828 0 800 0 c 2
 800 0 200 0 200 0 c 2
 172 0 150 22 150 50 c 2
 150 850 l 2
250 800 m 1
 250 800 250 100 250 100 c 1
 250 100 750 100 750 100 c 1
 750 100 750 800 750 800 c 1
 250 800 l 1
400 450 m 0
 400 422 378 400 350 400 c 0
 322 400 300 422 300 450 c 0
 300 478 322 500 350 500 c 0
 378 500 400 478 400 450 c 0
550 450 m 0
 550 422 528 400 500 400 c 0
 472 400 450 422 450 450 c 0
 450 478 472 500 500 500 c 0
 528 500 550 478 550 450 c 0
700 450 m 0
 700 422 678 400 650 400 c 0
 622 400 600 422 600 450 c 0
 600 478 622 500 650 500 c 0
 678 500 700 478 700 450 c 0
EndSplineSet
Validated: 1
EndChar

StartChar: uniF1961
Encoding: 354 989537 98
Width: 1000
Flags: HW
LayerCount: 2
Fore
SplineSet
150 650 m 2
 150 678 172 700 200 700 c 2
 200 700 800 700 800 700 c 2
 828 700 850 678 850 650 c 2
 850 650 850 50 850 50 c 2
 850 22 828 0 800 0 c 2
 800 0 200 0 200 0 c 2
 172 0 150 22 150 50 c 2
 150 650 l 2
250 600 m 1
 250 600 250 100 250 100 c 1
 250 100 750 100 750 100 c 1
 750 100 750 600 750 600 c 1
 250 600 l 1
500 900 m 0
 528 900 550 878 550 850 c 2
 550 850 550 800 550 800 c 2
 550 772 528 750 500 750 c 0
 472 750 450 772 450 800 c 2
 450 800 450 850 450 850 c 2
 450 878 472 900 500 900 c 0
728 882 m 0
 747.460830576 874.515065163 759.078266221 855.825280423 759.078266221 836.414092203 c 0
 759.078266221 829.891603454 757.766571679 823.287662907 755 817 c 2
 755 817 736 771 736 771 c 2
 728.515065163 751.539169424 709.825280423 739.921733779 690.414092203 739.921733779 c 0
 683.891603454 739.921733779 677.287662907 741.233428321 671 744 c 0
 651.539169424 751.484934837 639.921733779 769.614477082 639.921733779 789.163193882 c 0
 639.921733779 795.731894569 641.233428321 802.460830576 644 809 c 2
 644 809 663 855 663 855 c 2
 671.233428321 874.460830576 689.551221554 886.078266221 708.727946848 886.078266221 c 0
 715.171652074 886.078266221 721.712337093 884.766571679 728 882 c 0
271 882 m 0
 277.287662907 884.766571679 283.891603454 886.078266221 290.414092203 886.078266221 c 0
 309.825280423 886.078266221 328.515065163 874.460830576 336 855 c 2
 336 855 355 809 355 809 c 2
 357.766571679 802.460830576 359.078266221 795.731894569 359.078266221 789.163193882 c 0
 359.078266221 769.614477082 347.460830576 751.484934837 328 744 c 0
 321.712337093 741.233428321 315.171652074 739.921733779 308.727946848 739.921733779 c 0
 289.551221554 739.921733779 271.233428321 751.539169424 263 771 c 2
 263 771 244 817 244 817 c 2
 241.233428321 823.287662907 239.921733779 829.891603454 239.921733779 836.414092203 c 0
 239.921733779 855.825280423 251.539169424 874.515065163 271 882 c 0
EndSplineSet
Validated: 1
EndChar

StartChar: uniF1962
Encoding: 355 989538 99
Width: 1000
Flags: HW
LayerCount: 2
Fore
SplineSet
50 850 m 0
 50 878 72 900 100 900 c 2
 100 900 600 900 600 900 c 2
 793 900 950 743 950 550 c 0
 950 374 820 228 650 204 c 1
 650 204 650 50 650 50 c 2
 650 22 628 0 600 0 c 0
 572 0 550 22 550 50 c 2
 550 50 550 250 550 250 c 2
 550 278 572 300 600 300 c 0
 738 300 850 412 850 550 c 0
 850 688 738 800 600 800 c 2
 600 800 100 800 100 800 c 2
 72 800 50 822 50 850 c 0
450 250 m 2
 450 250 450 50 450 50 c 2
 450 22 428 0 400 0 c 0
 372 0 350 22 350 50 c 2
 350 50 350 250 350 250 c 2
 350 278 372 300 400 300 c 0
 428 300 450 278 450 250 c 2
200 300 m 0
 228 300 250 278 250 250 c 2
 250 250 250 50 250 50 c 2
 250 22 228 0 200 0 c 0
 172 0 150 22 150 50 c 2
 150 50 150 250 150 250 c 2
 150 278 172 300 200 300 c 0
750 550 m 0
 750 509 716 475 675 475 c 0
 634 475 600 509 600 550 c 0
 600 591 634 625 675 625 c 0
 716 625 750 591 750 550 c 0
425 475 m 0
 384 475 350 509 350 550 c 0
 350 591 384 625 425 625 c 0
 466 625 500 591 500 550 c 0
 500 509 466 475 425 475 c 0
EndSplineSet
Validated: 1
EndChar

StartChar: uniF1963
Encoding: 356 989539 100
Width: 1000
Flags: HW
LayerCount: 2
Fore
SplineSet
500 0 m 0
 476 0 456 17 451 40 c 0
 446 63 418 185 362 339 c 0
 305 493 223 675 111 819 c 0
 103.831133642 828.277356463 100.396680925 839.333005135 100.396680925 850.217200023 c 0
 100.396680925 865.143405812 106.855658442 879.747168337 119 889 c 0
 128.277356463 896.168866358 139.333005135 899.603319075 150.217200023 899.603319075 c 0
 165.143405812 899.603319075 179.747168337 893.144341558 189 881 c 0
 311 725 398 532 456 373 c 0
 473 326 488 282 500 242 c 1
 512 282 527 326 544 373 c 0
 602 532 689 725 811 881 c 0
 820.252831663 893.144341558 834.856594188 899.603319075 849.782799977 899.603319075 c 0
 860.666994865 899.603319075 871.722643537 896.168866358 881 889 c 0
 893.144341558 879.747168337 899.603319075 865.143405812 899.603319075 850.217200023 c 0
 899.603319075 839.333005135 896.168866358 828.277356463 889 819 c 0
 777 675 695 493 638 339 c 0
 582 185 554 63 549 40 c 0
 544 17 524 0 500 0 c 0
EndSplineSet
Validated: 1
EndChar

StartChar: uniF1964
Encoding: 357 989540 101
Width: 1000
Flags: HW
LayerCount: 2
Fore
SplineSet
450 850 m 2
 450 878 472 900 500 900 c 0
 528 900 550 878 550 850 c 2
 550 850 550 746 550 746 c 1
 676 725 775 626 796 500 c 1
 796 500 900 500 900 500 c 2
 928 500 950 478 950 450 c 0
 950 422 928 400 900 400 c 2
 900 400 796 400 796 400 c 1
 775 274 676 175 550 154 c 1
 550 154 550 50 550 50 c 2
 550 22 528 0 500 0 c 0
 472 0 450 22 450 50 c 2
 450 50 450 154 450 154 c 1
 324 175 225 274 204 400 c 1
 204 400 100 400 100 400 c 2
 72 400 50 422 50 450 c 0
 50 478 72 500 100 500 c 2
 100 500 204 500 204 500 c 1
 225 626 324 725 450 746 c 1
 450 850 l 2
500 650 m 0
 390 650 300 560 300 450 c 0
 300 340 390 250 500 250 c 0
 610 250 700 340 700 450 c 0
 700 560 610 650 500 650 c 0
EndSplineSet
Validated: 1
EndChar

StartChar: uniF1965
Encoding: 358 989541 102
Width: 1000
Flags: HW
LayerCount: 2
Fore
SplineSet
100 750 m 2
 100 750 900 750 900 750 c 2
 928 750 950 728 950 700 c 0
 950 672 928 650 900 650 c 2
 900 650 700 650 700 650 c 1
 700 650 700 200 700 200 c 2
 700 172 678 150 650 150 c 0
 622 150 600 172 600 200 c 2
 600 200 600 650 600 650 c 1
 600 650 400 650 400 650 c 1
 400 650 400 200 400 200 c 2
 400 172 378 150 350 150 c 0
 322 150 300 172 300 200 c 2
 300 200 300 650 300 650 c 1
 300 650 100 650 100 650 c 2
 72 650 50 672 50 700 c 0
 50 728 72 750 100 750 c 2
EndSplineSet
Validated: 1
EndChar

StartChar: uniF1966
Encoding: 359 989542 103
Width: 1000
Flags: HW
LayerCount: 2
Fore
SplineSet
65 465 m 0
 55 474.5 50 487.25 50 500 c 0
 50 512.75 55 525.5 65 535 c 2
 65 535 215 685 215 685 c 2
 224.5 695 237.25 700 250 700 c 0
 262.75 700 275.5 695 285 685 c 2
 285 685 435 535 435 535 c 2
 445 525.5 450 512.75 450 500 c 0
 450 487.25 445 474.5 435 465 c 0
 425.5 455 412.75 450 400 450 c 0
 387.25 450 374.5 455 365 465 c 2
 365 465 250 579 250 579 c 1
 250 579 135 465 135 465 c 2
 125.5 455 112.75 450 100 450 c 0
 87.25 450 74.5 455 65 465 c 0
565 465 m 0
 555 474.5 550 487.25 550 500 c 0
 550 512.75 555 525.5 565 535 c 2
 565 535 715 685 715 685 c 2
 724.5 695 737.25 700 750 700 c 0
 762.75 700 775.5 695 785 685 c 2
 785 685 935 535 935 535 c 2
 945 525.5 950 512.75 950 500 c 0
 950 487.25 945 474.5 935 465 c 0
 925.5 455 912.75 450 900 450 c 0
 887.25 450 874.5 455 865 465 c 2
 865 465 750 579 750 579 c 1
 750 579 635 465 635 465 c 2
 625.5 455 612.75 450 600 450 c 0
 587.25 450 574.5 455 565 465 c 0
580 275 m 0
 580 234 546 200 505 200 c 0
 464 200 430 234 430 275 c 0
 430 316 464 350 505 350 c 0
 546 350 580 316 580 275 c 0
EndSplineSet
Validated: 1
EndChar

StartChar: uniF1967
Encoding: 360 989543 104
Width: 1000
Flags: HW
LayerCount: 2
Fore
SplineSet
305 500 m 1
 305 500 365 560 365 560 c 2
 374.5 570 387.25 575 400 575 c 0
 412.75 575 425.5 570 435 560 c 0
 445 550.5 450 537.75 450 525 c 0
 450 512.25 445 499.5 435 490 c 2
 435 490 285 340 285 340 c 2
 275.5 330 262.75 325 250 325 c 0
 237.25 325 224.5 330 215 340 c 2
 215 340 65 490 65 490 c 2
 55 499.5 50 512.25 50 525 c 0
 50 537.75 55 550.5 65 560 c 0
 74.5 570 87.25 575 100 575 c 0
 112.75 575 125.5 570 135 560 c 2
 135 560 202 493 202 493 c 1
 224 680 383 825 575 825 c 0
 782 825 950 657 950 450 c 0
 950 243 782 75 575 75 c 0
 547 75 525 97 525 125 c 0
 525 153 547 175 575 175 c 0
 727 175 850 298 850 450 c 0
 850 602 727 725 575 725 c 0
 440 725 328 628 305 500 c 1
EndSplineSet
Validated: 1
EndChar

StartChar: uniF1968
Encoding: 361 989544 105
Width: 1000
Flags: HW
LayerCount: 2
Fore
SplineSet
650 850 m 2
 650 850 650 50 650 50 c 2
 650 22 628 0 600 0 c 0
 572 0 550 22 550 50 c 2
 550 50 550 400 550 400 c 1
 550 400 300 400 300 400 c 2
 272 400 250 422 250 450 c 0
 250 478 272 500 300 500 c 2
 300 500 550 500 550 500 c 1
 550 500 550 850 550 850 c 2
 550 878 572 900 600 900 c 0
 628 900 650 878 650 850 c 2
EndSplineSet
Validated: 1
EndChar

StartChar: uniF1969
Encoding: 362 989545 106
Width: 1000
Flags: HW
LayerCount: 2
Fore
SplineSet
400 900 m 0
 423 900 443 884 449 862 c 2
 449 862 639 100 639 100 c 1
 639 100 800 100 800 100 c 2
 828 100 850 78 850 50 c 0
 850 22 828 0 800 0 c 2
 800 0 600 0 600 0 c 2
 577 0 557 16 551 38 c 2
 551 38 400 644 400 644 c 1
 400 644 264 100 264 100 c 1
 264 100 400 100 400 100 c 2
 428 100 450 78 450 50 c 0
 450 22 428 0 400 0 c 2
 400 0 200 0 200 0 c 2
 185 0 170 7 161 19 c 0
 153.449979984 28.0600240192 149.890156125 39.4001601281 149.890156125 50.8685468372 c 0
 149.890156125 54.5900360288 150.265006005 58.325030024 151 62 c 2
 151 62 351 862 351 862 c 2
 357 884 377 900 400 900 c 0
EndSplineSet
Validated: 1
EndChar

StartChar: uniF196A
Encoding: 363 989546 107
Width: 1000
Flags: HW
LayerCount: 2
Fore
SplineSet
547 268 m 0
 569.787867498 199.636397505 629.623552247 157.206267085 693.513737555 157.206267085 c 0
 710.930650161 157.206267085 728.648871288 160.359444567 746 167 c 0
 809.827939993 190.639977775 850.060052352 254.641239659 850.060052352 323.28470374 c 0
 850.060052352 341.752316582 847.148021484 360.555935548 841 379 c 0
 839.085006021 384.957759044 838.166042199 391.006066285 838.166042199 396.932989304 c 0
 838.166042199 418.861144564 850.744981936 439.127771087 872 447 c 0
 877.476889049 449.106495788 883.042524588 450.10366045 888.500615305 450.10366045 c 0
 908.953284757 450.10366045 927.895846209 436.101811793 935 414 c 0
 944.98816341 383.822995655 949.737505922 353.013719822 949.737505922 322.72388635 c 0
 949.737505922 210.482794493 884.523108575 105.374294245 779 66 c 0
 750.799214016 55.3178840968 722.00506851 50.2498621219 693.690204821 50.2498621219 c 0
 589.471102648 50.2498621219 491.745168733 118.909924529 454 229 c 0
 454 230 453 231 453 232 c 0
 430.212132502 300.363602495 370.376447753 342.793732915 306.486262445 342.793732915 c 0
 289.069349839 342.793732915 271.351128712 339.640555433 254 333 c 0
 190.172060007 309.360022225 149.939947648 245.358760341 149.939947648 176.71529626 c 0
 149.939947648 158.247683418 152.851978516 139.444064452 159 121 c 0
 160.9251401 115.010675244 161.843667646 108.929840256 161.843667646 102.972813946 c 0
 161.843667646 81.0808349881 149.438484155 60.8609554443 129 53 c 0
 123.523110951 50.8935042119 117.913102167 49.8963395501 112.384959371 49.8963395501 c 0
 91.6697893299 49.8963395501 72.1041537907 63.8981882068 65 86 c 0
 55.0017234231 116.20755902 50.252881886 147.048670544 50.252881886 177.368118798 c 0
 50.252881886 289.574640591 115.29299542 394.636464444 220 434 c 0
 248.414428303 444.682115903 277.376573086 449.750137878 305.823544298 449.750137878 c 0
 410.528897352 449.750137878 508.254831267 381.090075471 546 271 c 0
 546 270 547 269 547 268 c 0
547 668 m 0
 569.787867498 599.636397505 629.623552247 557.206267085 693.513737555 557.206267085 c 0
 710.930650161 557.206267085 728.648871288 560.359444567 746 567 c 0
 809.827939993 590.639977775 850.060052352 654.641239659 850.060052352 723.28470374 c 0
 850.060052352 741.752316582 847.148021484 760.555935548 841 779 c 0
 839.085006021 784.957759044 838.166042199 791.006066285 838.166042199 796.932989304 c 0
 838.166042199 818.861144564 850.744981936 839.127771087 872 847 c 0
 877.476889049 849.106495788 883.042524588 850.10366045 888.500615305 850.10366045 c 0
 908.953284757 850.10366045 927.895846209 836.101811793 935 814 c 0
 944.98816341 783.822995655 949.737505922 753.013719822 949.737505922 722.72388635 c 0
 949.737505922 610.482794493 884.523108575 505.374294245 779 466 c 0
 750.799214016 455.317884097 722.00506851 450.249862122 693.690204821 450.249862122 c 0
 589.471102648 450.249862122 491.745168733 518.909924529 454 629 c 0
 454 630 453 631 453 632 c 0
 430.212132502 700.363602495 370.376447753 742.793732915 306.486262445 742.793732915 c 0
 289.069349839 742.793732915 271.351128712 739.640555433 254 733 c 0
 190.172060007 709.360022225 149.939947648 645.358760341 149.939947648 576.71529626 c 0
 149.939947648 558.247683418 152.851978516 539.444064452 159 521 c 0
 160.9251401 515.010675244 161.843667646 508.929840256 161.843667646 502.972813946 c 0
 161.843667646 481.080834988 149.438484155 460.860955444 129 453 c 0
 123.523110951 450.893504212 117.913102167 449.89633955 112.384959371 449.89633955 c 0
 91.6697893299 449.89633955 72.1041537907 463.898188207 65 486 c 0
 55.0017234231 516.20755902 50.252881886 547.048670544 50.252881886 577.368118798 c 0
 50.252881886 689.574640591 115.29299542 794.636464444 220 834 c 0
 248.414428303 844.682115903 277.376573086 849.750137878 305.823544298 849.750137878 c 0
 410.528897352 849.750137878 508.254831267 781.090075471 546 671 c 0
 546 670 547 669 547 668 c 0
EndSplineSet
Validated: 1
EndChar

StartChar: uniF196B
Encoding: 364 989547 108
Width: 1000
Flags: HW
LayerCount: 2
Fore
SplineSet
500 100 m 0
 693 100 850 257 850 450 c 0
 850 643 693 800 500 800 c 0
 307 800 150 643 150 450 c 0
 150 257 307 100 500 100 c 0
500 0 m 0
 251 0 50 201 50 450 c 0
 50 699 251 900 500 900 c 0
 749 900 950 699 950 450 c 0
 950 201 749 0 500 0 c 0
500 750 m 0
 528 750 550 728 550 700 c 2
 550 700 550 500 550 500 c 1
 550 500 650 500 650 500 c 2
 678 500 700 478 700 450 c 0
 700 422 678 400 650 400 c 2
 650 400 500 400 500 400 c 2
 472 400 450 422 450 450 c 2
 450 450 450 700 450 700 c 2
 450 728 472 750 500 750 c 0
EndSplineSet
Validated: 1
EndChar

StartChar: uniF196C
Encoding: 365 989548 109
Width: 1000
Flags: HW
LayerCount: 2
Fore
SplineSet
500 550 m 0
 390 550 300 460 300 350 c 0
 300 240 390 150 500 150 c 0
 610 150 700 240 700 350 c 0
 700 460 610 550 500 550 c 0
200 350 m 0
 200 516 334 650 500 650 c 0
 666 650 800 516 800 350 c 0
 800 184 666 50 500 50 c 0
 334 50 200 184 200 350 c 0
500 900 m 0
 528 900 550 878 550 850 c 2
 550 850 550 750 550 750 c 2
 550 722 528 700 500 700 c 0
 472 700 450 722 450 750 c 2
 450 750 450 850 450 850 c 2
 450 878 472 900 500 900 c 0
225 826 m 0
 233 830.666666667 241.666666667 832.888888889 250.185185185 832.888888889 c 0
 267.222222222 832.888888889 283.666666667 824 293 808 c 2
 293 808 343 721 343 721 c 2
 347.666666667 713 349.888888889 704.333333333 349.888888889 695.814814815 c 0
 349.888888889 678.777777778 341 662.333333333 325 653 c 0
 317 648.333333333 308.333333333 646.111111111 299.814814815 646.111111111 c 0
 282.777777778 646.111111111 266.333333333 655 257 671 c 2
 257 671 207 758 207 758 c 2
 202.333333333 766 200.111111111 774.777777778 200.111111111 783.407407407 c 0
 200.111111111 800.666666667 209 817.333333333 225 826 c 0
775 826 m 0
 791 817.333333333 799.888888889 800.666666667 799.888888889 783.407407407 c 0
 799.888888889 774.777777778 797.666666667 766 793 758 c 2
 793 758 743 671 743 671 c 2
 733.666666667 655 717.222222222 646.111111111 700.185185185 646.111111111 c 0
 691.666666667 646.111111111 683 648.333333333 675 653 c 0
 659 662.333333333 650.111111111 678.777777778 650.111111111 695.814814815 c 0
 650.111111111 704.333333333 652.333333333 713 657 721 c 2
 657 721 707 808 707 808 c 2
 716.333333333 824 732.777777778 832.888888889 749.814814815 832.888888889 c 0
 758.333333333 832.888888889 767 830.666666667 775 826 c 0
EndSplineSet
Validated: 1
EndChar

StartChar: uniF196D
Encoding: 366 989549 110
Width: 1000
Flags: HW
LayerCount: 2
Fore
SplineSet
470 890 m 2
 479 896.5 489.5 899.75 500 899.75 c 0
 510.5 899.75 521 896.5 530 890 c 2
 530 890 930 590 930 590 c 2
 943 581 950 566 950 550 c 2
 950 550 950 50 950 50 c 2
 950 22 928 0 900 0 c 2
 900 0 100 0 100 0 c 2
 72 0 50 22 50 50 c 2
 50 50 50 550 50 550 c 2
 50 566 57 581 70 590 c 2
 470 890 l 2
150 525 m 1
 150 525 150 100 150 100 c 1
 150 100 850 100 850 100 c 1
 850 100 850 525 850 525 c 1
 850 525 500 788 500 788 c 1
 150 525 l 1
EndSplineSet
Validated: 1
EndChar

StartChar: uniF196E
Encoding: 367 989550 111
Width: 1000
Flags: HW
LayerCount: 2
Fore
SplineSet
750 0 m 0
 722 0 700 22 700 50 c 2
 700 50 700 850 700 850 c 2
 700 878 722 900 750 900 c 0
 778 900 800 878 800 850 c 2
 800 850 800 50 800 50 c 2
 800 22 778 0 750 0 c 0
250 0 m 0
 222 0 200 22 200 50 c 2
 200 50 200 850 200 850 c 2
 200 878 222 900 250 900 c 0
 278 900 300 878 300 850 c 2
 300 850 300 50 300 50 c 2
 300 22 278 0 250 0 c 0
EndSplineSet
Validated: 1
EndChar

StartChar: uniF196F
Encoding: 368 989551 112
Width: 1000
Flags: HW
LayerCount: 2
Fore
SplineSet
382 174 m 0
 405 149 442 132 500 132 c 0
 558 132 595 149 619 174 c 0
 642 200 658 241 658 301 c 0
 658 311 657 323 654 337 c 1
 606 329 553 325 500 325 c 0
 448 325 395 329 347 337 c 1
 344 323 343 311 343 301 c 0
 343 241 359 200 382 174 c 0
751 361 m 1
 756 340 758 320 758 301 c 0
 758 225 738 156 692 106 c 0
 645 56 579 32 500 32 c 0
 422 32 355 56 309 107 c 0
 263 156 243 225 243 301 c 0
 243 320 245 340 249 360 c 1
 231 367 214 374 198 383 c 0
 133 421 83 472 61 536 c 0
 53.5122122151 558.123009364 49.847172106 580.825222922 49.847172106 603.830652431 c 0
 49.847172106 648.417876954 63.6141596089 694.144071335 90 739 c 0
 130 808 186 852 254 864 c 0
 268.222641284 866.759616966 282.580468707 868.077248455 296.996956737 868.077248455 c 0
 350.493641706 868.077248455 404.798084828 849.933427331 456 820 c 0
 471 811 486 801 500 788 c 1
 515 801 530 811 544 820 c 0
 595.989636944 849.933427331 649.840790658 868.077248455 703.109532327 868.077248455 c 0
 717.46459334 868.077248455 731.777358716 866.759616966 746 864 c 0
 814 852 870 808 910 739 c 0
 936.385840391 694.144071335 950.152827894 648.417876954 950.152827894 603.830652431 c 0
 950.152827894 580.825222922 946.487787785 558.123009364 939 536 c 0
 917 472 867 421 802 383 c 0
 787 374 770 367 751 361 c 1
624 433 m 1
 609 468 591 504 571 539 c 0
 549 577 525 612 500 643 c 1
 476 612 452 577 430 539 c 0
 410 504 392 468 377 433 c 1
 416 428 458 425 500 425 c 0
 543 425 585 428 624 433 c 1
570 716 m 1
 601 678 631 635 657 590 c 0
 682 546 705 500 722 456 c 1
 734 461 744 465 752 470 c 0
 804 500 833 534 844 567 c 0
 847.804493815 578.413481444 849.934289905 590.544690485 849.934289905 603.600490015 c 0
 849.934289905 628.293153703 842.315833926 656.293153703 824 689 c 0
 795 738 762 760 728 766 c 0
 720.42394099 767.473122585 712.449293993 768.237644305 704.085379152 768.237644305 c 0
 672.705552043 768.237644305 635.846357569 757.476171408 594 733 c 0
 587 729 579 723 570 716 c 1
431 716 m 1
 422 723 414 729 406 733 c 0
 364.943196347 757.476171408 327.626765016 768.237644305 296.019523083 768.237644305 c 0
 287.594993561 768.237644305 279.57605901 767.473122585 272 766 c 0
 238 760 205 738 176 689 c 0
 157.684166074 656.293153703 150.065710095 628.293153703 150.065710095 603.600490015 c 0
 150.065710095 590.544690485 152.195506185 578.413481444 156 567 c 0
 167 534 196 500 248 470 c 0
 257 465 267 460 279 456 c 1
 296 500 318 546 344 590 c 0
 370 635 400 678 431 716 c 1
EndSplineSet
Validated: 1
EndChar

StartChar: uniF1970
Encoding: 369 989552 113
Width: 1000
Flags: HW
LayerCount: 2
Fore
SplineSet
50 750 m 0
 50 778 72 800 100 800 c 2
 100 800 900 800 900 800 c 2
 928 800 950 778 950 750 c 0
 950 501 749 300 500 300 c 0
 251 300 50 501 50 750 c 0
154 700 m 1
 178 530 324 400 500 400 c 0
 676 400 822 530 846 700 c 1
 154 700 l 1
575 175 m 0
 575 134 541 100 500 100 c 0
 459 100 425 134 425 175 c 0
 425 216 459 250 500 250 c 0
 541 250 575 216 575 175 c 0
EndSplineSet
Validated: 1
EndChar

StartChar: uniF1971
Encoding: 370 989553 114
Width: 1000
Flags: HW
LayerCount: 2
Fore
SplineSet
840 820 m 2
 840 820 563 450 563 450 c 1
 563 450 783 156 783 156 c 1
 783 156 853 366 853 366 c 2
 859.35377553 386.649770472 878.954109389 399.73007904 899.777336126 399.73007904 c 0
 905.172507115 399.73007904 910.649770472 398.852002529 916 397 c 0
 936.649770472 390.64622447 949.73007904 371.045890611 949.73007904 350.222663874 c 0
 949.73007904 344.827492885 948.852002529 339.350229528 947 334 c 2
 947 334 847 34 847 34 c 2
 842 17 826 4 808 1 c 0
 805.258237433 0.543039572249 802.493273441 0.318093402865 799.736914423 0.318093402865 c 0
 784.397445989 0.318093402865 769.324478432 7.28480213876 760 20 c 2
 760 20 500 367 500 367 c 1
 500 367 240 20 240 20 c 2
 230.675521568 7.28480213876 215.602554011 0.318093402865 200.263085577 0.318093402865 c 0
 197.506726559 0.318093402865 194.741762567 0.543039572249 192 1 c 0
 174 4 158 17 153 34 c 2
 153 34 53 334 53 334 c 2
 51.1479974709 339.350229528 50.2699209598 344.827492885 50.2699209598 350.222663874 c 0
 50.2699209598 371.045890611 63.3502295285 390.64622447 84 397 c 0
 89.3502295285 398.852002529 94.8274928854 399.73007904 100.222663874 399.73007904 c 0
 121.045890611 399.73007904 140.64622447 386.649770472 147 366 c 2
 147 366 217 156 217 156 c 1
 217 156 438 450 438 450 c 1
 438 450 160 820 160 820 c 2
 153.114946808 828.910068836 149.838499374 839.296385482 149.838499374 849.63102165 c 0
 149.838499374 864.813808511 156.910068836 879.885053192 170 890 c 0
 178.910068836 896.885053192 189.296385482 900.161500626 199.63102165 900.161500626 c 0
 214.813808511 900.161500626 229.885053192 893.089931164 240 880 c 2
 240 880 500 533 500 533 c 1
 500 533 760 880 760 880 c 2
 770.114946808 893.089931164 785.186191489 900.161500626 800.36897835 900.161500626 c 0
 810.703614518 900.161500626 821.089931164 896.885053192 830 890 c 0
 843.089931164 879.885053192 850.161500626 864.813808511 850.161500626 849.63102165 c 0
 850.161500626 839.296385482 846.885053192 828.910068836 840 820 c 2
EndSplineSet
Validated: 1
EndChar

StartChar: uniF1972
Encoding: 371 989554 115
Width: 1000
Flags: HW
LayerCount: 2
Fore
SplineSet
500 825 m 0
 518 825 534 815 543 800 c 2
 543 800 713 505 713 505 c 1
 713 505 875 598 875 598 c 2
 883 602.666666667 891.666666667 604.888888889 900.185185185 604.888888889 c 0
 917.222222222 604.888888889 933.666666667 596 943 580 c 0
 947.666666667 572 949.888888889 563.222222222 949.888888889 554.592592593 c 0
 949.888888889 537.333333333 941 520.666666667 925 512 c 2
 925 512 763 419 763 419 c 1
 763 419 933 125 933 125 c 2
 937.5 117.5 939.75 108.75 939.75 100 c 0
 939.75 91.25 937.5 82.5 933 75 c 0
 924 60 908 50 890 50 c 2
 890 50 110 50 110 50 c 2
 92 50 76 60 67 75 c 0
 62.5 82.5 60.25 91.25 60.25 100 c 0
 60.25 108.75 62.5 117.5 67 125 c 2
 67 125 237 419 237 419 c 1
 237 419 75 512 75 512 c 2
 59 520.666666667 50.1111111111 537.333333333 50.1111111111 554.592592593 c 0
 50.1111111111 563.222222222 52.3333333333 572 57 580 c 0
 65.6666666667 596 82.3333333333 604.888888889 99.5925925926 604.888888889 c 0
 108.222222222 604.888888889 117 602.666666667 125 598 c 2
 125 598 287 505 287 505 c 1
 287 505 457 800 457 800 c 2
 466 815 482 825 500 825 c 0
649 418 m 2
 649 418 500 675 500 675 c 1
 500 675 350 416 350 416 c 2
 350 414 349 413 348 412 c 0
 348 411 347 409 346 408 c 2
 346 408 197 150 197 150 c 1
 197 150 803 150 803 150 c 1
 803 150 655 406 655 406 c 2
 654 408 653 410 651 412 c 0
 650 414 649 416 649 418 c 2
EndSplineSet
Validated: 1
EndChar

StartChar: uniF1973
Encoding: 372 989555 116
Width: 1000
Flags: HW
LayerCount: 2
Fore
SplineSet
619 896 m 0
 638 888 650 870 650 850 c 2
 650 850 650 50 650 50 c 2
 650 22 628 0 600 0 c 0
 572 0 550 22 550 50 c 2
 550 50 550 729 550 729 c 1
 550 729 385 565 385 565 c 2
 375.5 555 362.75 550 350 550 c 0
 337.25 550 324.5 555 315 565 c 0
 305 574.5 300 587.25 300 600 c 0
 300 612.75 305 625.5 315 635 c 2
 315 635 565 885 565 885 c 2
 574.266653056 894.928556845 586.600122499 900.037830796 599.390488829 900.037830796 c 0
 605.923725913 900.037830796 612.576172004 898.704769682 619 896 c 0
EndSplineSet
Validated: 1
EndChar

StartChar: uniF1974
Encoding: 373 989556 117
Width: 1000
Flags: HW
LayerCount: 2
Fore
SplineSet
370 890 m 0
 378.910068836 896.885053192 389.296385482 900.161500626 399.63102165 900.161500626 c 0
 414.813808511 900.161500626 429.885053192 893.089931164 440 880 c 2
 440 880 890 280 890 280 c 2
 896.508293513 271.125054301 899.866000579 260.499782798 899.866000579 249.781150447 c 0
 899.866000579 242.383673617 898.266695627 234.941728207 895 228 c 0
 886 211 869 200 850 200 c 2
 850 200 300 200 300 200 c 1
 300 200 300 50 300 50 c 2
 300 22 278 0 250 0 c 0
 222 0 200 22 200 50 c 2
 200 50 200 250 200 250 c 2
 200 278 222 300 250 300 c 2
 250 300 750 300 750 300 c 1
 750 300 360 820 360 820 c 2
 353.114946808 828.910068836 349.838499374 839.296385482 349.838499374 849.63102165 c 0
 349.838499374 864.813808511 356.910068836 879.885053192 370 890 c 0
580 425 m 0
 580 384 546 350 505 350 c 0
 464 350 430 384 430 425 c 0
 430 466 464 500 505 500 c 0
 546 500 580 466 580 425 c 0
330 425 m 0
 330 384 296 350 255 350 c 0
 214 350 180 384 180 425 c 0
 180 466 214 500 255 500 c 0
 296 500 330 466 330 425 c 0
EndSplineSet
Validated: 1
EndChar

StartChar: uniF1975
Encoding: 374 989557 118
Width: 1000
Flags: HWO
LayerCount: 2
Fore
SplineSet
500 550 m 0
 390 550 300 460 300 350 c 0
 300 240 390 150 500 150 c 0
 610 150 700 240 700 350 c 0
 700 460 610 550 500 550 c 0
200 350 m 0
 200 516 334 650 500 650 c 0
 666 650 800 516 800 350 c 0
 800 184 666 50 500 50 c 0
 334 50 200 184 200 350 c 0
950 745 m 2
 950 745 900 195 900 195 c 2
 897 169 875 150 849 150 c 1
 849 150 l 1
 822 153 798 177 800 205 c 2
 800 205 850 755 850 755 c 2
 853 781 875 800 901 800 c 1
 928 797 952 773 950 745 c 2
95 800 m 1
 121 800 147 781 150 755 c 2
 150 755 200 205 200 205 c 2
 202 177 182 153 155 150 c 0
 154 150 152.422360443 149.862193851 151.148011504 149.862193851 c 0
 124.828069984 149.862193851 102.861455151 169.246903645 100 195 c 2
 100 195 50 745 50 745 c 2
 48 773 68 797 95 800 c 1
EndSplineSet
EndChar

StartChar: uniF1976
Encoding: 375 989558 119
Width: 1000
Flags: HW
LayerCount: 2
Fore
SplineSet
65 885 m 0
 74.5 895 87.25 900 100 900 c 0
 112.75 900 125.5 895 135 885 c 2
 135 885 410 610 410 610 c 2
 420 600.5 425 587.75 425 575 c 0
 425 562.25 420 549.5 410 540 c 0
 400.5 530 387.75 525 375 525 c 0
 362.25 525 349.5 530 340 540 c 2
 340 540 65 815 65 815 c 2
 55 824.5 50 837.25 50 850 c 0
 50 862.75 55 875.5 65 885 c 0
615 335 m 0
 624.5 345 637.25 350 650 350 c 0
 662.75 350 675.5 345 685 335 c 2
 685 335 935 85 935 85 c 2
 945 75.5 950 62.75 950 50 c 0
 950 37.25 945 24.5 935 15 c 0
 925.5 5 912.75 0 900 0 c 0
 887.25 0 874.5 5 865 15 c 2
 865 15 615 265 615 265 c 2
 605 274.5 600 287.25 600 300 c 0
 600 312.75 605 325.5 615 335 c 0
65 15 m 0
 55 24.5 50 37.25 50 50 c 0
 50 62.75 55 75.5 65 85 c 2
 65 85 340 360 340 360 c 2
 349.5 370 362.25 375 375 375 c 0
 387.75 375 400.5 370 410 360 c 0
 420 350.5 425 337.75 425 325 c 0
 425 312.25 420 299.5 410 290 c 2
 410 290 135 15 135 15 c 2
 125.5 5 112.75 0 100 0 c 0
 87.25 0 74.5 5 65 15 c 0
615 565 m 0
 605 574.5 600 587.25 600 600 c 0
 600 612.75 605 625.5 615 635 c 2
 615 635 865 885 865 885 c 2
 874.5 895 887.25 900 900 900 c 0
 912.75 900 925.5 895 935 885 c 0
 945 875.5 950 862.75 950 850 c 0
 950 837.25 945 824.5 935 815 c 2
 935 815 685 565 685 565 c 2
 675.5 555 662.75 550 650 550 c 0
 637.25 550 624.5 555 615 565 c 0
EndSplineSet
Validated: 1
EndChar

StartChar: uniF1977
Encoding: 376 989559 120
Width: 1000
Flags: HW
LayerCount: 2
Fore
SplineSet
150 450 m 0
 150 370 160 290 186 233 c 0
 198 205 214 185 231 171 c 0
 249 158 270 150 300 150 c 0
 383 150 450 217 450 300 c 0
 450 328 472 350 500 350 c 0
 528 350 550 328 550 300 c 0
 550 217 617 150 700 150 c 0
 730 150 751 158 769 171 c 0
 786 185 802 205 814 233 c 0
 840 290 850 370 850 450 c 0
 850 520 841 576 821 625 c 0
 801 673 768 718 717 762 c 0
 705.558774 772.351585428 699.757301731 786.265120581 699.757301731 800.182797602 c 0
 699.757301731 811.810566276 703.806765142 823.441226 712 833 c 0
 722.351585428 844.441226 736.265120581 850.242698269 750.182797602 850.242698269 c 0
 761.810566276 850.242698269 773.441226 846.193234858 783 838 c 0
 844 785 886 728 913 663 c 0
 940 599 950 529 950 450 c 0
 950 364 940 269 906 192 c 0
 888 154 864 118 829 91 c 0
 794 65 750 50 700 50 c 0
 618 50 546 89 500 150 c 0
 492.673629243 159.7154047 484.687727096 163.799425996 476.106935319 163.799425996 c 0
 430.811608232 163.799425996 368.939947781 50 300 50 c 0
 250 50 206 65 171 91 c 0
 136 118 112 154 94 192 c 0
 60 269 50 364 50 450 c 0
 50 529 60 599 87 663 c 0
 114 728 156 785 217 838 c 0
 226.558774 846.193234858 238.189433724 850.242698269 249.817202398 850.242698269 c 0
 263.734879419 850.242698269 277.648414572 844.441226 288 833 c 0
 296.193234858 823.441226 300.242698269 811.810566276 300.242698269 800.182797602 c 0
 300.242698269 786.265120581 294.441226 772.351585428 283 762 c 0
 232 718 199 673 179 625 c 0
 159 576 150 520 150 450 c 0
EndSplineSet
Validated: 1
EndChar

StartChar: uniF1978
Encoding: 377 989560 121
Width: 1000
Flags: HW
LayerCount: 2
Fore
SplineSet
600 450 m 0
 600 478 622 500 650 500 c 2
 650 500 900 500 900 500 c 2
 928 500 950 478 950 450 c 0
 950 422 928 400 900 400 c 2
 900 400 650 400 650 400 c 2
 622 400 600 422 600 450 c 0
500 900 m 0
 528 900 550 878 550 850 c 2
 550 850 550 600 550 600 c 2
 550 572 528 550 500 550 c 0
 472 550 450 572 450 600 c 2
 450 600 450 850 450 850 c 2
 450 878 472 900 500 900 c 0
500 350 m 0
 528 350 550 328 550 300 c 2
 550 300 550 50 550 50 c 2
 550 22 528 0 500 0 c 0
 472 0 450 22 450 50 c 2
 450 50 450 300 450 300 c 2
 450 328 472 350 500 350 c 0
50 450 m 0
 50 478 72 500 100 500 c 2
 100 500 350 500 350 500 c 2
 378 500 400 478 400 450 c 0
 400 422 378 400 350 400 c 2
 350 400 100 400 100 400 c 2
 72 400 50 422 50 450 c 0
EndSplineSet
Validated: 1
EndChar

StartChar: uniF1979
Encoding: 378 989561 122
Width: 1000
Flags: HW
LayerCount: 2
Fore
SplineSet
550 850 m 2
 550 850 550 500 550 500 c 2
 550 472 528 450 500 450 c 0
 472 450 450 472 450 500 c 2
 450 500 450 850 450 850 c 2
 450 878 472 900 500 900 c 0
 528 900 550 878 550 850 c 2
550 350 m 2
 550 350 550 287 550 287 c 1
 550 287 605 318 605 318 c 2
 613 322.666666667 621.666666667 324.888888889 630.185185185 324.888888889 c 0
 647.222222222 324.888888889 663.666666667 316 673 300 c 0
 677.666666667 292 679.888888889 283.333333333 679.888888889 274.814814815 c 0
 679.888888889 257.777777778 671 241.333333333 655 232 c 2
 655 232 600 200 600 200 c 1
 600 200 655 168 655 168 c 2
 671 158.666666667 679.888888889 142.222222222 679.888888889 125.185185185 c 0
 679.888888889 116.666666667 677.666666667 108 673 100 c 0
 663.666666667 84 647.222222222 75.1111111111 630.185185185 75.1111111111 c 0
 621.666666667 75.1111111111 613 77.3333333333 605 82 c 2
 605 82 550 113 550 113 c 1
 550 113 550 50 550 50 c 2
 550 22 528 0 500 0 c 0
 472 0 450 22 450 50 c 2
 450 50 450 113 450 113 c 1
 450 113 395 82 395 82 c 2
 387 77.3333333333 378.333333333 75.1111111111 369.814814815 75.1111111111 c 0
 352.777777778 75.1111111111 336.333333333 84 327 100 c 0
 322.333333333 108 320.111111111 116.666666667 320.111111111 125.185185185 c 0
 320.111111111 142.222222222 329 158.666666667 345 168 c 2
 345 168 400 200 400 200 c 1
 400 200 345 232 345 232 c 2
 329 241.333333333 320.111111111 257.777777778 320.111111111 274.814814815 c 0
 320.111111111 283.333333333 322.333333333 292 327 300 c 0
 336.333333333 316 352.777777778 324.888888889 369.814814815 324.888888889 c 0
 378.333333333 324.888888889 387 322.666666667 395 318 c 2
 395 318 450 287 450 287 c 1
 450 287 450 350 450 350 c 2
 450 378 472 400 500 400 c 0
 528 400 550 378 550 350 c 2
EndSplineSet
Validated: 1
EndChar

StartChar: uniF197A
Encoding: 379 989562 123
Width: 1000
Flags: HW
LayerCount: 2
Fore
SplineSet
600 450 m 0
 600 395 555 350 500 350 c 0
 445 350 400 395 400 450 c 0
 400 505 445 550 500 550 c 0
 555 550 600 505 600 450 c 0
880 550 m 1
 880 550 881 549 881 549 c 2
 906 519 929 486 947 450 c 1
 928 414 906 380 880 350 c 0
 788 243 652 175 500 175 c 0
 348 175 212 243 120 350 c 0
 94 380 72 414 53 450 c 1
 72 486 94 520 120 550 c 0
 212 657 348 725 500 725 c 0
 652 725 788 657 880 550 c 1
831 450 m 1
 759 556 637 625 500 625 c 0
 363 625 241 556 169 450 c 1
 241 344 363 275 500 275 c 0
 637 275 759 344 831 450 c 1
EndSplineSet
Validated: 1
EndChar

StartChar: uniF197B
Encoding: 380 989563 124
Width: 1000
Flags: HW
LayerCount: 2
Fore
SplineSet
835 785 m 0
 845 775.5 850 762.75 850 750 c 0
 850 737.25 845 724.5 835 715 c 2
 835 715 235 115 235 115 c 2
 225.5 105 212.75 100 200 100 c 0
 187.25 100 174.5 105 165 115 c 0
 155 124.5 150 137.25 150 150 c 0
 150 162.75 155 175.5 165 185 c 2
 165 185 765 785 765 785 c 2
 774.5 795 787.25 800 800 800 c 0
 812.75 800 825.5 795 835 785 c 0
349 700 m 0
 349 645 304 600 249 600 c 0
 194 600 149 645 149 700 c 0
 149 755 194 800 249 800 c 0
 304 800 349 755 349 700 c 0
850 200 m 0
 850 145 805 100 750 100 c 0
 695 100 650 145 650 200 c 0
 650 255 695 300 750 300 c 0
 805 300 850 255 850 200 c 0
EndSplineSet
Validated: 1
EndChar

StartChar: uniF197C
Encoding: 381 989564 125
Width: 1000
Flags: HW
LayerCount: 2
Fore
SplineSet
50 850 m 2
 50 878 72 900 100 900 c 2
 100 900 900 900 900 900 c 2
 928 900 950 878 950 850 c 2
 950 850 950 50 950 50 c 2
 950 22 928 0 900 0 c 2
 900 0 100 0 100 0 c 2
 72 0 50 22 50 50 c 2
 50 850 l 2
150 800 m 1
 150 800 150 100 150 100 c 1
 150 100 850 100 850 100 c 1
 850 100 850 800 850 800 c 1
 150 800 l 1
250 650 m 2
 250 678 272 700 300 700 c 2
 300 700 700 700 700 700 c 2
 728 700 750 678 750 650 c 2
 750 650 750 250 750 250 c 2
 750 222 728 200 700 200 c 2
 700 200 300 200 300 200 c 2
 272 200 250 222 250 250 c 2
 250 650 l 2
350 600 m 1
 350 600 350 300 350 300 c 1
 350 300 650 300 650 300 c 1
 650 300 650 600 650 600 c 1
 350 600 l 1
EndSplineSet
Validated: 1
EndChar

StartChar: uniF197D
Encoding: 382 989565 126
Width: 1000
Flags: HW
LayerCount: 2
Fore
SplineSet
500 200 m 0
 478 200 459 214 452 235 c 2
 452 235 372 496 372 496 c 1
 372 496 301 308 301 308 c 2
 293 289 275 276 254 276 c 0
 234 276 215 288 207 307 c 2
 207 307 162 421 162 421 c 1
 162 421 146 384 146 384 c 2
 138.375310947 364.175808463 119.704804096 352.490640567 99.7403761456 352.490640567 c 0
 93.5208799883 352.490640567 87.1758084627 353.624689053 81 356 c 0
 62.1014426964 363.559422921 50.0602703815 381.976372075 50.0602703815 401.747237362 c 0
 50.0602703815 408.130306697 51.3153652136 414.654499596 54 421 c 2
 54 421 115 573 115 573 c 2
 123 592 141 605 162 605 c 0
 182 605 200 592 208 573 c 2
 208 573 252 463 252 463 c 1
 252 463 330 668 330 668 c 2
 337.711688097 687.279220242 355.644805356 700.053894655 376.63349054 700.053894655 c 0
 377.418180959 700.053894655 378.207142267 700.036038988 379 700 c 0
 400 699 418 685 425 665 c 2
 425 665 500 420 500 420 c 1
 500 420 575 665 575 665 c 2
 582 685 600 699 621 700 c 0
 621.792857733 700.036038988 622.581819041 700.053894655 623.36650946 700.053894655 c 0
 644.355194644 700.053894655 662.288311903 687.279220242 670 668 c 2
 670 668 748 463 748 463 c 1
 748 463 792 573 792 573 c 2
 800 592 818 605 838 605 c 0
 859 605 877 592 885 573 c 2
 885 573 946 421 946 421 c 2
 948.684634786 414.654499596 949.939729619 408.130306697 949.939729619 401.747237362 c 0
 949.939729619 381.976372075 937.898557304 363.559422921 919 356 c 0
 912.824191537 353.624689053 906.479120012 352.490640567 900.259623854 352.490640567 c 0
 880.295195904 352.490640567 861.624689053 364.175808463 854 384 c 2
 854 384 838 421 838 421 c 1
 838 421 793 307 793 307 c 2
 785 288 766 276 746 276 c 0
 725 276 707 289 699 308 c 2
 699 308 628 496 628 496 c 1
 628 496 548 235 548 235 c 2
 541 214 522 200 500 200 c 0
EndSplineSet
Validated: 1
EndChar

StartChar: uniF197E
Encoding: 383 989566 127
Width: 1000
Flags: HW
LayerCount: 2
Fore
SplineSet
731 751 m 1
 731 751 875 834 875 834 c 2
 883 838.666666667 891.777777778 840.888888889 900.444444444 840.888888889 c 0
 917.777777778 840.888888889 934.666666667 832 944 816 c 0
 948.184129483 808.275453262 950.192840444 799.929358376 950.192840444 791.695228604 c 0
 950.192840444 774.346094887 941.275453262 757.494014403 925 748 c 2
 925 748 781 665 781 665 c 1
 793 632 800 597 800 560 c 0
 800 411 692 288 550 264 c 1
 550 264 550 98 550 98 c 2
 550 70 528 48 500 48 c 0
 472 48 450 70 450 98 c 2
 450 98 450 264 450 264 c 1
 308 288 200 411 200 560 c 0
 200 597 207 632 219 665 c 1
 219 665 75 748 75 748 c 2
 59 757.333333333 50.1111111111 773.777777778 50.1111111111 790.814814815 c 0
 50.1111111111 799.333333333 52.3333333333 808 57 816 c 0
 66.3333333333 832 82.7777777778 840.888888889 99.8148148148 840.888888889 c 0
 108.333333333 840.888888889 117 838.666666667 125 834 c 2
 125 834 269 751 269 751 c 1
 324 818 407 860 500 860 c 0
 593 860 676 818 731 751 c 1
500 360 m 0
 611 360 700 450 700 560 c 0
 700 596 691 629 674 659 c 1
 674 659 674 660 673 660 c 1
 673 660 673 661 673 661 c 1
 638 720 574 760 500 760 c 0
 427 760 362 720 328 661 c 0
 327 661 327 660 327 660 c 1
 327 660 326 659 326 659 c 1
 310 629 300 596 300 560 c 0
 300 450 390 360 500 360 c 0
EndSplineSet
Validated: 1
EndChar

StartChar: uniF197F
Encoding: 384 989567 128
Width: 1000
Flags: HW
LayerCount: 2
Fore
SplineSet
500 900 m 0
 528 900 550 878 550 850 c 2
 550 850 550 660 550 660 c 1
 574.199820681 596.768210478 631.916522377 557.302936585 693.655468347 557.302936585 c 0
 711.004187955 557.302936585 728.670510768 560.419181304 746 567 c 0
 809.827939993 590.639977775 850.060052352 654.641239659 850.060052352 723.28470374 c 0
 850.060052352 741.752316582 847.148021484 760.555935548 841 779 c 0
 839.085006021 784.957759044 838.166042199 791.006066285 838.166042199 796.932989304 c 0
 838.166042199 818.861144564 850.744981936 839.127771087 872 847 c 0
 877.476889049 849.106495788 883.042524588 850.10366045 888.500615305 850.10366045 c 0
 908.953284757 850.10366045 927.895846209 836.101811793 935 814 c 0
 944.98816341 783.822995655 949.737505922 753.013719822 949.737505922 722.72388635 c 0
 949.737505922 610.482794493 884.523108575 505.374294245 779 466 c 0
 750.935224975 455.342490497 722.113233225 450.237903647 693.699697836 450.237903647 c 0
 642.131501901 450.237903647 591.90872941 467.052015205 550 498 c 1
 550 498 550 260 550 260 c 1
 574.199820681 196.768210478 631.916522377 157.302936585 693.655468347 157.302936585 c 0
 711.004187955 157.302936585 728.670510768 160.419181304 746 167 c 0
 809.827939993 190.639977775 850.060052352 254.641239659 850.060052352 323.28470374 c 0
 850.060052352 341.752316582 847.148021484 360.555935548 841 379 c 0
 839.085006021 384.957759044 838.166042199 391.006066285 838.166042199 396.932989304 c 0
 838.166042199 418.861144564 850.744981936 439.127771087 872 447 c 0
 877.476889049 449.106495788 883.042524588 450.10366045 888.500615305 450.10366045 c 0
 908.953284757 450.10366045 927.895846209 436.101811793 935 414 c 0
 944.98816341 383.822995655 949.737505922 353.013719822 949.737505922 322.72388635 c 0
 949.737505922 210.482794493 884.523108575 105.374294245 779 66 c 0
 750.935224975 55.3424904969 722.113233225 50.2379036467 693.699697836 50.2379036467 c 0
 642.131501901 50.2379036467 591.90872941 67.0520152049 550 98 c 1
 550 98 550 50 550 50 c 2
 550 22 528 0 500 0 c 0
 472 0 450 22 450 50 c 2
 450 50 450 240 450 240 c 1
 425.019539942 303.231789522 367.131596706 342.697063415 305.830807032 342.697063415 c 0
 288.605209882 342.697063415 271.110128609 339.580818696 254 333 c 0
 190.172060007 309.360022225 149.939947648 245.358760341 149.939947648 176.71529626 c 0
 149.939947648 158.247683418 152.851978516 139.444064452 159 121 c 0
 160.9251401 115.010675244 161.843667646 108.929840256 161.843667646 102.972813946 c 0
 161.843667646 81.0808349881 149.438484155 60.8609554443 129 53 c 0
 123.523110951 50.8935042119 117.913102167 49.8963395501 112.384959371 49.8963395501 c 0
 91.6697893299 49.8963395501 72.1041537907 63.8981882068 65 86 c 0
 55.0017234231 116.20755902 50.252881886 147.048670544 50.252881886 177.368118798 c 0
 50.252881886 289.574640591 115.29299542 394.636464444 220 434 c 0
 248.091487764 444.534307912 276.799484657 449.520033664 305.041574514 449.520033664 c 0
 357.228374984 449.520033664 407.824333808 432.496250939 450 402 c 1
 450 402 450 640 450 640 c 1
 425.019539942 703.231789522 367.131596706 742.697063415 305.830807032 742.697063415 c 0
 288.605209882 742.697063415 271.110128609 739.580818696 254 733 c 0
 190.172060007 709.360022225 149.939947648 645.358760341 149.939947648 576.71529626 c 0
 149.939947648 558.247683418 152.851978516 539.444064452 159 521 c 0
 160.9251401 515.010675244 161.843667646 508.929840256 161.843667646 502.972813946 c 0
 161.843667646 481.080834988 149.438484155 460.860955444 129 453 c 0
 123.523110951 450.893504212 117.913102167 449.89633955 112.384959371 449.89633955 c 0
 91.6697893299 449.89633955 72.1041537907 463.898188207 65 486 c 0
 55.0017234231 516.20755902 50.252881886 547.048670544 50.252881886 577.368118798 c 0
 50.252881886 689.574640591 115.29299542 794.636464444 220 834 c 0
 248.091487764 844.534307912 276.799484657 849.520033664 305.041574514 849.520033664 c 0
 357.228374984 849.520033664 407.824333808 832.496250939 450 802 c 1
 450 802 450 850 450 850 c 2
 450 878 472 900 500 900 c 0
EndSplineSet
Validated: 1
EndChar

StartChar: uniF1980
Encoding: 385 989568 129
Width: 1000
Flags: HW
LayerCount: 2
Fore
SplineSet
471 681 m 0
 424 604 400 494 400 370 c 2
 400 370 400 100 400 100 c 1
 400 100 461 100 461 100 c 1
 460 105 460 111 459 117 c 0
 456 133 452 150 448 164 c 0
 447 170 445 176 444 179 c 0
 444 181 443 183 443 183 c 1
 443 183 443 184 443 184 c 1
 443 184 442 184 442 184 c 1
 442 185 442 185 442 185 c 2
 440.486918338 189.917515402 439.760823466 194.906575057 439.760823466 199.825097825 c 0
 439.760823466 220.911901225 453.106650609 240.70221687 475 248 c 0
 479.917515402 249.513081662 484.906575057 250.239176534 489.825097825 250.239176534 c 0
 510.911901225 250.239176534 530.70221687 236.893349391 538 215 c 0
 538 214 538 214 538 214 c 1
 538 214 538 214 538 213 c 0
 539 212 539 210 540 208 c 0
 541 203 543 197 545 190 c 0
 549 175 554 154 557 133 c 0
 559.666666667 119.666666667 561.444444444 104.111111111 561.444444444 88.4074074074 c 0
 561.444444444 80.5555555556 561 72.6666666667 560 65 c 0
 558 54 554 39 543 25 c 0
 530 9 511 0 490 0 c 2
 490 0 225 0 225 0 c 2
 164 0 117 21 87 60 c 0
 58 97 50 143 50 183 c 0
 50 244 68 300 97 343 c 0
 126 384 170 418 225 418 c 0
 248 418 271 419 292 419 c 0
 294 419 296 419 297 419 c 2
 297 419 301 419 301 419 c 1
 307 536 333 646 385 733 c 0
 446 833 542 900 675 900 c 0
 698 900 715 888 726 873 c 0
 734 861 737 848 738 839 c 0
 741 824 741 804 741 790 c 2
 741 790 741 789 741 789 c 1
 741 789 741 788 741 788 c 2
 741 772 741 759 742 750 c 1
 800 719 848 693 881 669 c 0
 917 643 950 608 950 558 c 0
 950 510 919 471 890 443 c 0
 865 418 833 395 800 373 c 1
 800 373 800 50 800 50 c 2
 800 22 778 0 750 0 c 0
 722 0 700 22 700 50 c 2
 700 50 700 427 700 427 c 1
 700 427 723 442 723 442 c 2
 763 468 797 492 820 515 c 0
 846 540 850 553 850 558 c 0
 850 559 850 568 822 588 c 0
 794 609 749 633 683 668 c 0
 667 677 657 691 652 702 c 0
 647 713 645 725 643 734 c 0
 641 751 641 771 641 786 c 0
 641 787 641 787 641 788 c 0
 641 791 641 795 641 798 c 1
 566 788 510 746 471 681 c 0
320 100 m 1
 320 100 320 320 320 320 c 1
 314 320 307 319 301 319 c 2
 301 319 300 319 300 319 c 2
 298 319 296 319 294 319 c 0
 290 319 285 319 280 319 c 1
 280 319 280 100 280 100 c 1
 320 100 l 1
179 286 m 0
 162 262 150 225 150 183 c 0
 150 154 156 134 166 121 c 0
 171 114 181 106 200 102 c 1
 200 102 200 308 200 308 c 1
 193 303 186 296 179 286 c 0
670 182 m 2
 670 182 670 40 670 40 c 2
 670 18 652 0 630 0 c 0
 608 0 590 18 590 40 c 2
 590 40 590 182 590 182 c 2
 590 204 608 222 630 222 c 0
 652 222 670 204 670 182 c 2
756 550 m 0
 756 522 734 500 706 500 c 0
 679 500 656 522 656 550 c 0
 656 578 679 600 706 600 c 0
 734 600 756 578 756 550 c 0
550 500 m 0
 522 500 500 522 500 550 c 0
 500 578 522 600 550 600 c 0
 578 600 600 578 600 550 c 0
 600 522 578 500 550 500 c 0
EndSplineSet
Validated: 1
EndChar

StartChar: uniF1981
Encoding: 386 989569 130
Width: 1000
Flags: HW
LayerCount: 2
Fore
SplineSet
901 400 m 2
 901 400 550 400 550 400 c 1
 550 400 550 50 550 50 c 2
 550 22 528 0 500 0 c 0
 472 0 450 22 450 50 c 2
 450 50 450 400 450 400 c 1
 450 400 101 400 101 400 c 2
 73 400 51 422 51 450 c 0
 51 699 252 900 501 900 c 0
 750 900 951 699 951 450 c 0
 951 422 929 400 901 400 c 2
501 800 m 0
 325 800 179 670 155 500 c 1
 155 500 847 500 847 500 c 1
 823 670 677 800 501 800 c 0
EndSplineSet
Validated: 1
EndChar

StartChar: uniF1982
Encoding: 387 989570 131
Width: 1000
Flags: HW
LayerCount: 2
Fore
SplineSet
200 900 m 0
 228 900 250 878 250 850 c 2
 250 850 250 50 250 50 c 2
 250 22 228 0 200 0 c 0
 172 0 150 22 150 50 c 2
 150 50 150 850 150 850 c 2
 150 878 172 900 200 900 c 0
800 900 m 0
 828 900 850 878 850 850 c 2
 850 850 850 50 850 50 c 2
 850 22 828 0 800 0 c 0
 772 0 750 22 750 50 c 2
 750 50 750 850 750 850 c 2
 750 878 772 900 800 900 c 0
600 450 m 0
 600 395 555 350 500 350 c 0
 445 350 400 395 400 450 c 0
 400 505 445 550 500 550 c 0
 555 550 600 505 600 450 c 0
EndSplineSet
Validated: 1
EndChar

StartChar: uniF1983
Encoding: 388 989571 132
Width: 1000
Flags: HW
LayerCount: 2
Fore
SplineSet
500 896 m 0
 528 896 550 874 550 846 c 2
 550 846 550 662 550 662 c 2
 550 635 528 612 500 612 c 0
 472 612 450 635 450 662 c 2
 450 662 450 846 450 846 c 2
 450 874 472 896 500 896 c 0
231 840 m 0
 237.287662907 842.766571679 243.828347926 844.078266221 250.272053152 844.078266221 c 0
 269.448778446 844.078266221 287.766571679 832.460830576 296 813 c 2
 296 813 366 643 366 643 c 2
 368.766571679 636.712337093 370.078266221 630.108396546 370.078266221 623.585907797 c 0
 370.078266221 604.174719577 358.460830576 585.484934837 339 578 c 0
 332.712337093 575.233428321 326.171652074 573.921733779 319.727946848 573.921733779 c 0
 300.551221554 573.921733779 282.233428321 585.539169424 274 605 c 2
 274 605 204 775 204 775 c 2
 201.233428321 781.287662907 199.921733779 787.891603454 199.921733779 794.414092203 c 0
 199.921733779 813.825280423 211.539169424 832.515065163 231 840 c 0
704 813 m 2
 712.233428321 832.460830576 730.551221554 844.078266221 749.727946848 844.078266221 c 0
 756.171652074 844.078266221 762.712337093 842.766571679 769 840 c 0
 788.460830576 832.515065163 800.078266221 813.825280423 800.078266221 794.414092203 c 0
 800.078266221 787.891603454 798.766571679 781.287662907 796 775 c 2
 796 775 726 605 726 605 c 2
 717.766571679 585.539169424 699.448778446 573.921733779 680.272053152 573.921733779 c 0
 673.828347926 573.921733779 667.287662907 575.233428321 661 578 c 0
 641.539169424 585.484934837 629.921733779 604.174719577 629.921733779 623.585907797 c 0
 629.921733779 630.108396546 631.233428321 636.712337093 634 643 c 2
 704 813 l 2
100 500 m 0
 128 500 150 478 150 450 c 0
 150 257 307 100 500 100 c 0
 693 100 850 257 850 450 c 0
 850 478 872 500 900 500 c 0
 928 500 950 478 950 450 c 0
 950 201 749 0 500 0 c 0
 251 0 50 201 50 450 c 0
 50 478 72 500 100 500 c 0
EndSplineSet
Validated: 1
EndChar

StartChar: uniF1984
Encoding: 389 989572 133
Width: 1000
Flags: HW
LayerCount: 2
Fore
SplineSet
500 900 m 0
 528 900 550 878 550 850 c 2
 550 850 550 750 550 750 c 2
 550 722 528 700 500 700 c 0
 472 700 450 722 450 750 c 2
 450 750 450 850 450 850 c 2
 450 878 472 900 500 900 c 0
709 566 m 1
 709 566 761 603 761 603 c 2
 770.105194926 609.334048644 780.464145234 612.37698941 790.649890032 612.37698941 c 0
 806.193647155 612.37698941 821.334048644 605.290683114 831 592 c 0
 837.334048644 582.894805074 840.37698941 572.535854766 840.37698941 562.350109968 c 0
 840.37698941 546.806352845 833.290683114 531.665951356 820 522 c 2
 820 522 768 485 768 485 c 1
 788 445 800 399 800 350 c 0
 800 184 666 50 500 50 c 0
 416 50 340 85 286 140 c 1
 286 140 239 107 239 107 c 2
 229.894805074 100.665951356 219.535854766 97.6230105896 209.350109968 97.6230105896 c 0
 193.806352845 97.6230105896 178.665951356 104.709316886 169 118 c 0
 162.665951356 127.105194926 159.62301059 137.464145234 159.62301059 147.649890032 c 0
 159.62301059 163.193647155 166.709316886 178.334048644 180 188 c 2
 180 188 228 222 228 222 c 1
 210 261 200 304 200 350 c 0
 200 516 334 650 500 650 c 0
 581 650 655 618 709 566 c 1
500 550 m 0
 390 550 300 460 300 350 c 0
 300 326 304 303 312 282 c 1
 312 282 625 506 625 506 c 1
 591 534 547 550 500 550 c 0
685 426 m 1
 685 426 368 199 368 199 c 1
 404 169 450 150 500 150 c 0
 610 150 700 240 700 350 c 0
 700 377 695 402 685 426 c 1
293 808 m 2
 293 808 343 721 343 721 c 2
 347.666666667 713 349.888888889 704.333333333 349.888888889 695.814814815 c 0
 349.888888889 678.777777778 341 662.333333333 325 653 c 0
 317 648.333333333 308.333333333 646.111111111 299.814814815 646.111111111 c 0
 282.777777778 646.111111111 266.333333333 655 257 671 c 2
 257 671 207 758 207 758 c 2
 202.333333333 766 200.111111111 774.777777778 200.111111111 783.407407407 c 0
 200.111111111 800.666666667 209 817.333333333 225 826 c 0
 233 830.666666667 241.666666667 832.888888889 250.185185185 832.888888889 c 0
 267.222222222 832.888888889 283.666666667 824 293 808 c 2
775 826 m 0
 791 817.333333333 799.888888889 800.666666667 799.888888889 783.407407407 c 0
 799.888888889 774.777777778 797.666666667 766 793 758 c 2
 793 758 743 671 743 671 c 2
 733.666666667 655 717.222222222 646.111111111 700.185185185 646.111111111 c 0
 691.666666667 646.111111111 683 648.333333333 675 653 c 0
 659 662.333333333 650.111111111 678.777777778 650.111111111 695.814814815 c 0
 650.111111111 704.333333333 652.333333333 713 657 721 c 2
 657 721 707 808 707 808 c 2
 716.333333333 824 732.777777778 832.888888889 749.814814815 832.888888889 c 0
 758.333333333 832.888888889 767 830.666666667 775 826 c 0
EndSplineSet
Validated: 1
EndChar

StartChar: uniF1985
Encoding: 390 989573 134
Width: 1000
Flags: HW
LayerCount: 2
Fore
SplineSet
400 302 m 0
 538 302 650 414 650 552 c 2
 650 552 650 850 650 850 c 2
 650 873 665 892 687 898 c 0
 691.524042167 899.233829682 696.090371436 899.833352829 700.585941796 899.833352829 c 0
 717.951915666 899.833352829 734.262021083 890.887234394 743 875 c 2
 743 875 943 527 943 527 c 2
 947.666666667 519 949.888888889 510.222222222 949.888888889 501.555555556 c 0
 949.888888889 484.222222222 941 467.333333333 925 458 c 0
 917.275453262 453.815870517 908.825767018 451.807159556 900.484479065 451.807159556 c 0
 882.909565375 451.807159556 865.815870517 460.724546738 857 477 c 2
 857 477 750 663 750 663 c 1
 750 663 750 552 750 552 c 2
 750 359 593 202 400 202 c 0
 207 202 50 359 50 552 c 2
 50 552 50 850 50 850 c 2
 50 878 72 900 100 900 c 0
 128 900 150 878 150 850 c 2
 150 850 150 552 150 552 c 2
 150 414 262 302 400 302 c 0
399 0 m 0
 371 0 349 22 349 50 c 2
 349 50 349 100 349 100 c 2
 349 128 371 150 399 150 c 0
 426 150 449 128 449 100 c 2
 449 100 449 50 449 50 c 2
 449 22 426 0 399 0 c 0
172 53 m 0
 152.751160249 62.2394430805 140.616262868 82.1497997157 140.616262868 102.232709427 c 0
 140.616262868 108.233072748 141.6995359 114.248839751 144 120 c 2
 144 120 163 170 163 170 c 2
 170.484934837 189.460830576 188.614477082 201.078266221 207.743856025 201.078266221 c 0
 214.171652074 201.078266221 220.712337093 199.766571679 227 197 c 0
 246.404289726 187.685940932 257.976829089 167.527919822 257.976829089 146.81310642 c 0
 257.976829089 140.839474 257.014455699 134.819538685 255 129 c 2
 255 129 235 80 235 80 c 2
 228.263558647 60.5391694237 210.32226739 48.9217337795 191.240234797 48.9217337795 c 0
 184.828347926 48.9217337795 178.287662907 50.2334283207 172 53 c 0
627 53 m 0
 620.460830576 50.2334283207 613.795150097 48.9217337795 607.321142111 48.9217337795 c 0
 588.054234587 48.9217337795 570.484934837 60.5391694237 563 80 c 2
 563 80 544 129 544 129 c 2
 541.624689053 135.175808463 540.490640567 141.577301009 540.490640567 147.909639208 c 0
 540.490640567 168.236287306 552.175808463 187.850373137 572 197 c 0
 578.287662907 199.766571679 584.765092398 201.078266221 591.098195746 201.078266221 c 0
 609.945765413 201.078266221 627.515065163 189.460830576 635 170 c 2
 635 170 654 120 654 120 c 2
 656.389518621 114.026203448 657.522881409 107.766916934 657.522881409 101.535944905 c 0
 657.522881409 81.6906521382 646.026203448 62.132577655 627 53 c 0
EndSplineSet
Validated: 1
EndChar

StartChar: uniF1986
Encoding: 391 989574 135
Width: 1000
Flags: HW
LayerCount: 2
Fore
SplineSet
500 300 m 0
 445 300 400 255 400 200 c 2
 400 200 400 50 400 50 c 2
 400 22 378 0 350 0 c 0
 322 0 300 22 300 50 c 2
 300 50 300 200 300 200 c 2
 300 310 390 400 500 400 c 0
 610 400 700 310 700 200 c 2
 700 200 700 50 700 50 c 2
 700 22 678 0 650 0 c 0
 622 0 600 22 600 50 c 2
 600 50 600 200 600 200 c 2
 600 255 555 300 500 300 c 0
500 900 m 0
 528 900 550 878 550 850 c 2
 550 850 550 500 550 500 c 2
 550 472 528 450 500 450 c 0
 472 450 450 472 450 500 c 2
 450 500 450 850 450 850 c 2
 450 878 472 900 500 900 c 0
EndSplineSet
Validated: 1
EndChar

StartChar: uniF1987
Encoding: 392 989575 136
Width: 1000
Flags: HW
LayerCount: 2
Fore
SplineSet
500 900 m 0
 638 900 750 788 750 650 c 2
 750 650 750 250 750 250 c 2
 750 112 638 0 500 0 c 0
 362 0 250 112 250 250 c 2
 250 250 250 650 250 650 c 2
 250 788 362 900 500 900 c 0
650 500 m 1
 650 500 650 650 650 650 c 2
 650 733 583 800 500 800 c 0
 417 800 350 733 350 650 c 2
 350 650 350 500 350 500 c 1
 650 500 l 1
350 400 m 1
 350 400 350 250 350 250 c 2
 350 167 417 100 500 100 c 0
 583 100 650 167 650 250 c 2
 650 250 650 400 650 400 c 1
 350 400 l 1
EndSplineSet
Validated: 1
EndChar

StartChar: uniF1988
Encoding: 393 989576 137
Width: 1000
Flags: HW
LayerCount: 2
Fore
SplineSet
700 275 m 0
 700 234 666 200 625 200 c 0
 584 200 550 234 550 275 c 0
 550 316 584 350 625 350 c 0
 666 350 700 316 700 275 c 0
799 900 m 2
 802 900 805 900 809 899 c 0
 816 898 823 895 829 891 c 0
 834 887 839 882 843 875 c 0
 846 870 848 865 849 858 c 0
 850 855 850 852 850 849 c 2
 850 849 850 401 850 401 c 2
 850 400 850 400 850 399 c 2
 850 399 850 50 850 50 c 2
 850 22 828 0 800 0 c 2
 800 0 501 0 501 0 c 2
 500 0 500 0 499 0 c 2
 499 0 200 0 200 0 c 2
 172 0 150 22 150 50 c 2
 150 50 150 850 150 850 c 2
 150 878 172 900 200 900 c 2
 799 900 l 2
750 492 m 1
 750 492 750 778 750 778 c 1
 750 778 468 674 468 674 c 1
 750 492 l 1
750 373 m 1
 750 373 433 578 433 578 c 1
 433 578 540 100 540 100 c 1
 540 100 750 100 750 100 c 1
 750 373 l 1
438 100 m 1
 438 100 309 676 309 676 c 2
 308.059454663 679.762181347 307.610367954 683.548935626 307.610367954 687.290926968 c 0
 307.610367954 707.420137973 320.605423791 726.254060449 340 733 c 2
 340 733 520 800 520 800 c 1
 520 800 250 800 250 800 c 1
 250 800 250 100 250 100 c 1
 438 100 l 1
EndSplineSet
Validated: 1
EndChar

StartChar: uniF1993
Encoding: 395 989587 139
Width: 0
Flags: HW
LayerCount: 2
Fore
SplineSet
0 950 m 0
 22 950 40 933 40 912 c 2
 40 912 40 -50 40 -50 c 2
 40 -71 22 -90 0 -90 c 0
 -22 -90 -37 -71 -37 -50 c 2
 -37 -50 -40 912 -40 912 c 2
 -40 933 -22 950 0 950 c 0
EndSplineSet
Validated: 1
EndChar

StartChar: uniF1994
Encoding: 396 989588 140
Width: 1
Flags: HW
LayerCount: 2
Fore
SplineSet
0 -80 m 1
 -1000 -80 l 1
 -1000 -10 l 1
 0 -10 l 1
 0 -80 l 1
EndSplineSet
Validated: 1
EndChar

StartChar: uniF19E0
Encoding: 402 989664 146
Width: 500
Flags: HW
LayerCount: 2
Fore
SplineSet
199 950 m 2
 199 970 218 990 241 990 c 2
 241 990 500 990 500 990 c 1
 500 990 500 910 500 910 c 1
 500 910 282 910 282 910 c 1
 282 910 282 -10 282 -10 c 1
 282 -10 500 -10 500 -10 c 1
 500 -10 500 -90 500 -90 c 1
 500 -90 241 -90 241 -90 c 2
 218 -90 199 -70 199 -50 c 2
 199 950 l 2
EndSplineSet
Validated: 1
EndChar

StartChar: uniF19E1
Encoding: 403 989665 147
Width: 500
Flags: HW
LayerCount: 2
Fore
SplineSet
301 -50 m 2
 301 -70 282 -90 259 -90 c 2
 259 -90 0 -90 0 -90 c 1
 0 -90 0 -10 0 -10 c 1
 0 -10 218 -10 218 -10 c 1
 218 -10 218 910 218 910 c 1
 218 910 0 910 0 910 c 1
 0 910 0 990 0 990 c 1
 0 990 259 990 259 990 c 2
 282 990 301 970 301 950 c 2
 301 -50 l 2
EndSplineSet
Validated: 1
EndChar

StartChar: uniF19E2
Encoding: 404 989666 148
Width: 0
Flags: HW
LayerCount: 2
Fore
SplineSet
0 -80 m 1
 -1000 -80 l 1
 -1000 0 l 1
 0 0 l 1
 0 -80 l 1
0 910 m 1
 -1000 910 l 1
 -1000 990 l 1
 0 990 l 1
 0 910 l 1
EndSplineSet
Validated: 1
EndChar

